<svg width="60" height="60" viewBox="0 0 60 60" fill="none" xmlns="http://www.w3.org/2000/svg">
<path d="M35.125 38.875L33.375 37.125C32.875 36.625 32.2812 36.3646 31.5938 36.3438C30.9062 36.3229 30.3125 36.5625 29.8125 37.0625C29.3125 37.5625 29.0625 38.1562 29.0625 38.8438C29.0625 39.5312 29.3125 40.125 29.8125 40.625L33.375 44.1875C33.875 44.6875 34.4583 44.9375 35.125 44.9375C35.7917 44.9375 36.375 44.6875 36.875 44.1875L45.8125 35.25C46.3125 34.75 46.5521 34.1667 46.5312 33.5C46.5104 32.8333 46.25 32.25 45.75 31.75C45.25 31.2917 44.6667 31.0521 44 31.0312C43.3333 31.0104 42.75 31.25 42.25 31.75L35.125 38.875ZM20 37.5H22.5C23.2083 37.5 23.8021 37.2604 24.2812 36.7812C24.7604 36.3021 25 35.7083 25 35C25 34.2917 24.7604 33.6979 24.2812 33.2188C23.8021 32.7396 23.2083 32.5 22.5 32.5H20C19.2917 32.5 18.6979 32.7396 18.2188 33.2188C17.7396 33.6979 17.5 34.2917 17.5 35C17.5 35.7083 17.7396 36.3021 18.2188 36.7812C18.6979 37.2604 19.2917 37.5 20 37.5ZM20 30H32.5C33.2083 30 33.8021 29.7604 34.2812 29.2812C34.7604 28.8021 35 28.2083 35 27.5C35 26.7917 34.7604 26.1979 34.2812 25.7188C33.8021 25.2396 33.2083 25 32.5 25H20C19.2917 25 18.6979 25.2396 18.2188 25.7188C17.7396 26.1979 17.5 26.7917 17.5 27.5C17.5 28.2083 17.7396 28.8021 18.2188 29.2812C18.6979 29.7604 19.2917 30 20 30ZM20 22.5H32.5C33.2083 22.5 33.8021 22.2604 34.2812 21.7812C34.7604 21.3021 35 20.7083 35 20C35 19.2917 34.7604 18.6979 34.2812 18.2188C33.8021 17.7396 33.2083 17.5 32.5 17.5H20C19.2917 17.5 18.6979 17.7396 18.2188 18.2188C17.7396 18.6979 17.5 19.2917 17.5 20C17.5 20.7083 17.7396 21.3021 18.2188 21.7812C18.6979 22.2604 19.2917 22.5 20 22.5ZM30 55C26.5417 55 23.2917 54.3438 20.25 53.0312C17.2083 51.7188 14.5625 49.9375 12.3125 47.6875C10.0625 45.4375 8.28125 42.7917 6.96875 39.75C5.65625 36.7083 5 33.4583 5 30C5 26.5417 5.65625 23.2917 6.96875 20.25C8.28125 17.2083 10.0625 14.5625 12.3125 12.3125C14.5625 10.0625 17.2083 8.28125 20.25 6.96875C23.2917 5.65625 26.5417 5 30 5C33.4583 5 36.7083 5.65625 39.75 6.96875C42.7917 8.28125 45.4375 10.0625 47.6875 12.3125C49.9375 14.5625 51.7188 17.2083 53.0312 20.25C54.3438 23.2917 55 26.5417 55 30C55 33.4583 54.3438 36.7083 53.0312 39.75C51.7188 42.7917 49.9375 45.4375 47.6875 47.6875C45.4375 49.9375 42.7917 51.7188 39.75 53.0312C36.7083 54.3438 33.4583 55 30 55ZM30 50C35.5833 50 40.3125 48.0625 44.1875 44.1875C48.0625 40.3125 50 35.5833 50 30C50 24.4167 48.0625 19.6875 44.1875 15.8125C40.3125 11.9375 35.5833 10 30 10C24.4167 10 19.6875 11.9375 15.8125 15.8125C11.9375 19.6875 10 24.4167 10 30C10 35.5833 11.9375 40.3125 15.8125 44.1875C19.6875 48.0625 24.4167 50 30 50Z" fill="#FBBD0D"/>
</svg>
