<svg width="60" height="60" viewBox="0 0 60 60" fill="none" xmlns="http://www.w3.org/2000/svg">
<path d="M29.9941 27.0571C32.8024 27.0571 35.1608 26.0403 37.0693 24.0065C38.9778 21.9729 39.9321 19.5073 39.9321 16.6099V9.06798H20.0679V16.6102C20.0679 19.5078 21.0202 21.9733 22.9248 24.0069C24.8293 26.0404 27.1858 27.0571 29.9941 27.0571ZM9.11682 55.8832V50.9321H15.1168V43.3249C15.1168 40.4706 15.8242 37.8307 17.2391 35.4049C18.6539 32.9792 20.6449 31.1776 23.2119 30C20.6449 28.799 18.6539 26.981 17.2391 24.5462C15.8242 22.1114 15.1168 19.4669 15.1168 16.6127V9.06798H9.11682V4.08154H50.9185V9.06798H44.9185V16.6127C44.9185 19.4669 44.2052 22.1114 42.7786 24.5462C41.3519 26.981 39.3669 28.799 36.8234 30C39.3669 31.1776 41.3519 32.9808 42.7786 35.4098C44.2052 37.8387 44.9185 40.473 44.9185 43.3125V50.9321H50.9185V55.8832H9.11682Z" fill="#FBBD0D"/>
</svg>
