<svg width="70" height="70" viewBox="0 0 70 70" fill="none" xmlns="http://www.w3.org/2000/svg">
<path d="M32.6224 61.6784C26.4185 61.1689 21.189 58.6246 16.9338 54.0456C12.6787 49.4666 10.5512 44.0269 10.5512 37.7265C10.5512 33.9589 11.4072 30.4015 13.119 27.0543C14.8309 23.707 17.23 20.9421 20.3162 18.7595L24.4078 22.8511C21.8709 24.4151 19.8823 26.5359 18.4419 29.2133C17.0015 31.8906 16.2813 34.7284 16.2813 37.7265C16.2813 42.467 17.8386 46.5565 20.9531 49.9949C24.0676 53.4334 27.9574 55.4042 32.6224 55.9074V61.6784ZM36.9624 61.6784V55.9074C41.7028 55.356 45.5994 53.3731 48.6521 49.9588C51.7047 46.5444 53.2311 42.467 53.2311 37.7265C53.2311 32.7156 51.5197 28.4375 48.097 24.8922C44.6743 21.3468 40.4574 19.4923 35.4465 19.3288H33.8772L38.3807 23.8732L34.9433 27.3106L23.892 16.2592L34.9433 5.16699L38.3807 8.60442L33.4274 13.5577H35.0376C41.7175 13.5577 47.3815 15.9212 52.0297 20.648C56.6779 25.3748 59.002 31.0677 59.002 37.7265C59.002 44.0269 56.8797 49.4666 52.6351 54.0456C48.3905 58.6246 43.1662 61.1689 36.9624 61.6784Z" fill="#FBBD0D"/>
</svg>
