<svg width="60" height="60" viewBox="0 0 60 60" fill="none" xmlns="http://www.w3.org/2000/svg">
<path d="M27.375 31.7499L23.75 28.1874C23.2917 27.7291 22.7188 27.4999 22.0312 27.4999C21.3438 27.4999 20.75 27.7499 20.25 28.2499C19.7917 28.7083 19.5625 29.2916 19.5625 29.9999C19.5625 30.7083 19.7917 31.2916 20.25 31.7499L25.625 37.1249C26.125 37.6249 26.7083 37.8749 27.375 37.8749C28.0417 37.8749 28.625 37.6249 29.125 37.1249L39.75 26.4999C40.25 25.9999 40.4896 25.4166 40.4688 24.7499C40.4479 24.0833 40.2083 23.4999 39.75 22.9999C39.25 22.4999 38.6562 22.2395 37.9688 22.2187C37.2812 22.1978 36.6875 22.4374 36.1875 22.9374L27.375 31.7499ZM20.375 54.3749L16.75 48.2499L9.875 46.7499C9.25 46.6249 8.75 46.302 8.375 45.7812C8 45.2603 7.85417 44.6874 7.9375 44.0624L8.625 36.9999L3.9375 31.6249C3.52083 31.1666 3.3125 30.6249 3.3125 29.9999C3.3125 29.3749 3.52083 28.8333 3.9375 28.3749L8.625 22.9999L7.9375 15.9374C7.85417 15.3124 8 14.7395 8.375 14.2187C8.75 13.6978 9.25 13.3749 9.875 13.2499L16.75 11.7499L20.375 5.62493C20.7083 5.08326 21.1667 4.71868 21.75 4.53118C22.3333 4.34368 22.9167 4.37493 23.5 4.62493L30 7.37493L36.5 4.62493C37.0833 4.37493 37.6667 4.34368 38.25 4.53118C38.8333 4.71868 39.2917 5.08326 39.625 5.62493L43.25 11.7499L50.125 13.2499C50.75 13.3749 51.25 13.6978 51.625 14.2187C52 14.7395 52.1458 15.3124 52.0625 15.9374L51.375 22.9999L56.0625 28.3749C56.4792 28.8333 56.6875 29.3749 56.6875 29.9999C56.6875 30.6249 56.4792 31.1666 56.0625 31.6249L51.375 36.9999L52.0625 44.0624C52.1458 44.6874 52 45.2603 51.625 45.7812C51.25 46.302 50.75 46.6249 50.125 46.7499L43.25 48.2499L39.625 54.3749C39.2917 54.9166 38.8333 55.2812 38.25 55.4687C37.6667 55.6562 37.0833 55.6249 36.5 55.3749L30 52.6249L23.5 55.3749C22.9167 55.6249 22.3333 55.6562 21.75 55.4687C21.1667 55.2812 20.7083 54.9166 20.375 54.3749ZM23.625 49.8749L30 47.1249L36.5 49.8749L40 43.8749L46.875 42.2499L46.25 35.2499L50.875 29.9999L46.25 24.6249L46.875 17.6249L40 16.1249L36.375 10.1249L30 12.8749L23.5 10.1249L20 16.1249L13.125 17.6249L13.75 24.6249L9.125 29.9999L13.75 35.2499L13.125 42.3749L20 43.8749L23.625 49.8749Z" fill="#FBBD0D"/>
</svg>
