<svg width="40" height="40" viewBox="0 0 40 40" fill="none" xmlns="http://www.w3.org/2000/svg">
<path d="M17.625 36.4167V32.5H33.0834V18.75C33.0834 17.0962 32.6945 15.5022 31.9167 13.968C31.1389 12.4338 30.125 11.0903 28.875 9.9375C27.625 8.78472 26.2223 7.86806 24.6667 7.1875C23.1112 6.50694 21.5625 6.16667 20.0209 6.16667C18.4514 6.16667 16.8889 6.50694 15.3334 7.1875C13.7778 7.86806 12.375 8.78472 11.125 9.9375C9.87504 11.0903 8.8681 12.4338 8.10421 13.968C7.34032 15.5022 6.95837 17.0962 6.95837 18.75V30.7083H5.37504C4.2504 30.7083 3.29562 30.3159 2.51071 29.531C1.72582 28.7461 1.33337 27.7913 1.33337 26.6667V22.625C1.33337 21.9028 1.47921 21.2708 1.77087 20.7292C2.06254 20.1875 2.47226 19.7361 3.00004 19.375L3.04171 18.0833C3.15282 15.7778 3.70143 13.6458 4.68754 11.6875C5.67365 9.72917 6.95143 8.04167 8.52087 6.625C10.0903 5.20833 11.8681 4.10417 13.8542 3.3125C15.8403 2.52083 17.8889 2.125 20 2.125C22.1112 2.125 24.1598 2.51389 26.1459 3.29167C28.132 4.06944 29.9098 5.15972 31.4792 6.5625C33.0487 7.96528 34.3264 9.64583 35.3125 11.6042C36.2986 13.5625 36.8473 15.7222 36.9584 18.0833L37 19.2917C37.5278 19.625 37.9375 20.0833 38.2292 20.6667C38.5209 21.25 38.6667 21.8605 38.6667 22.4982V26.746C38.6667 27.4153 38.5209 28.0972 38.2292 28.7917C37.9375 29.4861 37.5278 29.9861 37 30.2917V32.5C37 33.5757 36.6162 34.4974 35.8485 35.2651C35.0808 36.0328 34.1591 36.4167 33.0834 36.4167H17.625ZM15 23.1667C14.5723 23.1667 14.2153 23.0236 13.9292 22.7375C13.6431 22.4514 13.5 22.0875 13.5 21.6458C13.5 21.2042 13.6431 20.8472 13.9292 20.575C14.2153 20.3028 14.5792 20.1667 15.0209 20.1667C15.4625 20.1667 15.8195 20.3045 16.0917 20.5802C16.3639 20.8559 16.5 21.2181 16.5 21.6667C16.5 22.0944 16.3622 22.4514 16.0865 22.7375C15.8108 23.0236 15.4487 23.1667 15 23.1667ZM25 23.1667C24.5723 23.1667 24.2153 23.0236 23.9292 22.7375C23.6431 22.4514 23.5 22.0875 23.5 21.6458C23.5 21.2042 23.6431 20.8472 23.9292 20.575C24.2153 20.3028 24.5792 20.1667 25.0209 20.1667C25.4625 20.1667 25.8195 20.3045 26.0917 20.5802C26.3639 20.8559 26.5 21.2181 26.5 21.6667C26.5 22.0944 26.3622 22.4514 26.0865 22.7375C25.8108 23.0236 25.4487 23.1667 25 23.1667ZM9.37504 19.4167C9.26393 17.9722 9.50698 16.5903 10.1042 15.2708C10.7014 13.9514 11.507 12.7986 12.5209 11.8125C13.5348 10.8264 14.7084 10.0347 16.0417 9.4375C17.375 8.84028 18.7223 8.54167 20.0834 8.54167C22.6667 8.54167 24.9375 9.40278 26.8959 11.125C28.8542 12.8472 29.9584 14.9444 30.2084 17.4167C27.5417 17.3889 25.1667 16.7361 23.0834 15.4583C21 14.1806 19.375 12.4861 18.2084 10.375C17.6806 12.5139 16.6042 14.3958 14.9792 16.0208C13.3542 17.6458 11.4862 18.7778 9.37504 19.4167Z" fill="#FBBD0D"/>
</svg>
