<svg width="40" height="40" viewBox="0 0 40 40" fill="none" xmlns="http://www.w3.org/2000/svg">
<path d="M6.07785 32.2555V28.9547H9.19923V16.8768C9.19923 14.407 9.9142 12.1766 11.3441 10.1857C12.7741 8.19473 14.6926 6.9396 17.0996 6.4203V5.64493C17.0996 4.83273 17.3816 4.14235 17.9455 3.5738C18.5095 3.00527 19.1943 2.72101 20 2.72101C20.8056 2.72101 21.4905 3.00527 22.0544 3.5738C22.6184 4.14235 22.9004 4.83273 22.9004 5.64493V6.4203C25.3074 6.92391 27.2298 8.17391 28.6676 10.1703C30.1054 12.1667 30.8243 14.4022 30.8243 16.8768V28.9547H33.9456V32.2555H6.07785ZM20.0118 37.4674C19.0409 37.4674 18.2093 37.1203 17.5169 36.426C16.8244 35.7317 16.4782 34.8971 16.4782 33.9221H23.5453C23.5453 34.9016 23.1974 35.7374 22.5018 36.4294C21.8061 37.1214 20.9761 37.4674 20.0118 37.4674ZM3.77527 16.8171C3.77527 14.1128 4.37085 11.6284 5.56202 9.36384C6.75316 7.09931 8.3641 5.21838 10.3949 3.72105L12.2717 6.23917C10.6376 7.45295 9.3357 8.97595 8.36589 10.8082C7.39609 12.6404 6.91119 14.6434 6.91119 16.8171H3.77527ZM33.1123 16.8171C33.1123 14.6396 32.622 12.6347 31.6414 10.8025C30.6609 8.97035 29.3565 7.44923 27.7283 6.23917L29.6286 3.72105C31.6405 5.22524 33.2468 7.10655 34.4474 9.36496C35.6479 11.6234 36.2482 14.1074 36.2482 16.8171H33.1123Z" fill="#FBBD0D"/>
</svg>
