<svg width="42" height="42" viewBox="0 0 42 42" fill="none" xmlns="http://www.w3.org/2000/svg">
<path d="M12.4263 18.9875C10.5879 18.9875 9.04167 18.3536 7.7875 17.0857C6.53333 15.8178 5.90625 14.2697 5.90625 12.4414C5.90625 10.613 6.53981 9.06669 7.80692 7.80249C9.07407 6.53832 10.6218 5.90624 12.4502 5.90624C14.2786 5.90624 15.8252 6.53834 17.0901 7.80254C18.355 9.06674 18.9875 10.6109 18.9875 12.4351C18.9875 14.2735 18.3536 15.8252 17.0857 17.0901C15.8178 18.355 14.2647 18.9875 12.4263 18.9875ZM12.4198 14.875C13.0976 14.875 13.6762 14.6378 14.1557 14.1634C14.6352 13.689 14.875 13.113 14.875 12.4353C14.875 11.7576 14.6378 11.1927 14.1634 10.7406C13.689 10.2885 13.113 10.0625 12.4353 10.0625C11.7576 10.0625 11.1927 10.2859 10.7406 10.7329C10.2885 11.1798 10.0625 11.7421 10.0625 12.4198C10.0625 13.0975 10.286 13.6762 10.7329 14.1557C11.1798 14.6352 11.7421 14.875 12.4198 14.875ZM29.5485 36.0937C27.7287 36.0937 26.1844 35.4628 24.9156 34.201C23.6469 32.9392 23.0125 31.3933 23.0125 29.5635C23.0125 27.7337 23.6464 26.1844 24.9143 24.9156C26.1822 23.6469 27.7353 23.0125 29.5737 23.0125C31.4121 23.0125 32.9656 23.6527 34.2344 24.9331C35.5031 26.2135 36.1375 27.7593 36.1375 29.5706C36.1375 31.3818 35.4943 32.9219 34.2079 34.1906C32.9214 35.4594 31.3683 36.0937 29.5485 36.0937ZM29.5647 31.9812C30.2424 31.9812 30.8073 31.747 31.2594 31.2787C31.7115 30.8103 31.9375 30.2415 31.9375 29.5724C31.9375 28.9033 31.714 28.3354 31.2671 27.8687C30.8202 27.4021 30.2578 27.1687 29.5802 27.1687C28.9024 27.1687 28.3238 27.4029 27.8443 27.8713C27.3648 28.3397 27.125 28.9085 27.125 29.5776C27.125 30.2467 27.3622 30.8146 27.8366 31.2812C28.311 31.7479 28.887 31.9812 29.5647 31.9812ZM8.79375 36.0937L5.90625 33.2062L33.25 5.86249L36.1375 8.74999L8.79375 36.0937Z" fill="#FBBD0D"/>
</svg>
