<svg width="75" height="76" viewBox="0 0 75 76" fill="none" xmlns="http://www.w3.org/2000/svg">
<circle cx="37" cy="37.2322" r="35" fill="#ED1D24"/>
<path d="M59.1275 25.9546C58.6105 24.0394 56.9301 22.5073 54.9913 21.9966C50.5965 20.8475 24.0988 20.7198 19.0578 21.9966C17.119 22.5073 15.4386 24.0394 14.9216 25.9546C13.7583 30.8064 13.629 43.1912 14.9216 48.1706C15.4386 50.0858 17.119 51.6179 19.0578 52.1287C23.7111 53.4054 50.2088 53.4054 54.9913 52.1287C56.9301 51.6179 58.6105 50.0858 59.1275 48.1706C60.2908 43.5742 60.2908 30.6787 59.1275 25.9546Z" fill="white"/>
<path d="M33 30.0862V44.0862L45 37.0862" fill="#ED1D24"/>
</svg>
