<svg width="100" height="100" viewBox="0 0 100 100" fill="none" xmlns="http://www.w3.org/2000/svg">
<path d="M20.8333 83.3333V47.9167C20.8333 38.0556 24.2708 29.6875 31.1458 22.8125C38.0208 15.9375 46.3889 12.5 56.25 12.5C66.1111 12.5 74.4791 15.9375 81.3541 22.8125C88.2291 29.6875 91.6666 38.0556 91.6666 47.9167C91.6666 57.7778 88.2291 66.1458 81.3541 73.0208C74.4791 79.8958 66.1111 83.3333 56.25 83.3333H20.8333ZM56.25 62.5C60.2778 62.5 63.7153 61.0764 66.5625 58.2292C69.4097 55.3819 70.8333 51.9444 70.8333 47.9167C70.8333 43.8889 69.4097 40.4514 66.5625 37.6042C63.7153 34.7569 60.2778 33.3333 56.25 33.3333C52.2222 33.3333 48.7847 34.7569 45.9375 37.6042C43.0903 40.4514 41.6666 43.8889 41.6666 47.9167C41.6666 51.9444 43.0903 55.3819 45.9375 58.2292C48.7847 61.0764 52.2222 62.5 56.25 62.5ZM56.2745 56.25C53.9665 56.25 51.9965 55.4422 50.3646 53.8266C48.7326 52.211 47.9166 50.2492 47.9166 47.9411C47.9166 45.6332 48.7245 43.6632 50.3401 42.0312C51.9556 40.3993 53.9174 39.5833 56.2255 39.5833C58.5335 39.5833 60.5034 40.3911 62.1354 42.0068C63.7673 43.6223 64.5833 45.5841 64.5833 47.8922C64.5833 50.2002 63.7755 52.1701 62.1599 53.8021C60.5443 55.434 58.5825 56.25 56.2745 56.25ZM8.33331 83.3333V62.5H14.5833V83.3333H8.33331Z" fill="#FBBD0D"/>
</svg>
