<svg width="60" height="60" viewBox="0 0 60 60" fill="none" xmlns="http://www.w3.org/2000/svg">
<path d="M44.3654 51.2499H16.5482V21.6059L33.0577 4.75975L34.3991 5.78375C34.7772 6.08504 35.0352 6.41598 35.1731 6.77656C35.3109 7.13715 35.3798 7.53217 35.3798 7.96162V8.41837L32.6875 21.6059H52.6442C53.5705 21.6059 54.403 21.9753 55.1418 22.714C55.8806 23.4528 56.25 24.2853 56.25 25.2116V29.3509C56.25 29.7452 56.2059 30.1923 56.1178 30.6923C56.0296 31.1923 55.9054 31.6234 55.7452 31.9856L48.7596 48.2547C48.4006 49.0817 47.8061 49.7876 46.9759 50.3725C46.1458 50.9575 45.2756 51.2499 44.3654 51.2499ZM13.7117 21.6059V51.2499H6.25012V21.6059H13.7117Z" fill="#FBBD0D"/>
</svg>
