<svg width="60" height="60" viewBox="0 0 60 60" fill="none" xmlns="http://www.w3.org/2000/svg">
<path d="M15.0001 48.7499C12.5866 48.7499 10.525 47.895 8.815 46.1851C7.10508 44.4751 6.25012 42.4134 6.25012 40V20C6.25012 17.5866 7.10508 15.5249 8.815 13.8149C10.525 12.105 12.5866 11.2501 15.0001 11.2501H45.0001C47.4135 11.2501 49.4752 12.105 51.1851 13.8149C52.895 15.5249 53.75 17.5866 53.75 20V40C53.75 42.4134 52.895 44.4751 51.1851 46.1851C49.4752 47.895 47.4135 48.7499 45.0001 48.7499H15.0001ZM15.0001 21.0817H45.0001C46.1603 21.0817 47.2436 21.2813 48.2501 21.6803C49.2565 22.0794 50.1443 22.6411 50.9135 23.3654V20C50.9135 18.3462 50.3414 16.9471 49.1972 15.8029C48.0529 14.6587 46.6539 14.0866 45.0001 14.0866H15.0001C13.3462 14.0866 11.9472 14.6587 10.8029 15.8029C9.65873 16.9471 9.08662 18.3462 9.08662 20V23.3654C9.85583 22.6411 10.7436 22.0794 11.7501 21.6803C12.7565 21.2813 13.8398 21.0817 15.0001 21.0817ZM9.17793 28.8365L38.726 35.9759C39.0017 36.0432 39.2917 36.0496 39.5962 35.9952C39.9007 35.9407 40.1491 35.8093 40.3414 35.6009L50.3174 27.2259C49.8398 26.2356 49.1259 25.4367 48.1756 24.8293C47.2252 24.2219 46.1667 23.9183 45.0001 23.9183H15.0001C13.5417 23.9183 12.2661 24.3862 11.1731 25.3221C10.0802 26.258 9.41514 27.4295 9.17793 28.8365Z" fill="#FBBD0D"/>
</svg>
