<svg width="70" height="70" viewBox="0 0 70 70" fill="none" xmlns="http://www.w3.org/2000/svg">
<path d="M35 34.0576C32.1927 34.0576 29.8784 33.1469 28.0569 31.3254C26.2354 29.5039 25.3246 27.1895 25.3246 24.3822C25.3246 21.5563 26.2354 19.2372 28.0569 17.425C29.8784 15.6129 32.1927 14.7069 35 14.7069C37.8072 14.7069 40.1216 15.6129 41.9431 17.425C43.7646 19.2372 44.6754 21.5563 44.6754 24.3822C44.6754 27.1895 43.7646 29.5039 41.9431 31.3254C40.1216 33.1469 37.8072 34.0576 35 34.0576ZM13.1251 56.314V50.778C13.1251 49.2113 13.5401 47.8464 14.3703 46.6835C15.2004 45.5206 16.2792 44.6269 17.6067 44.0024C20.6766 42.6376 23.6362 41.6093 26.4856 40.9175C29.3349 40.2258 32.1731 39.8799 35 39.8799C37.8269 39.8799 40.6576 40.2332 43.4919 40.9399C46.3264 41.6467 49.2785 42.6675 52.3485 44.0024C53.7058 44.6269 54.7996 45.5206 55.6297 46.6835C56.4599 47.8464 56.8749 49.2113 56.8749 50.778V56.314H13.1251Z" fill="#FBBD0D"/>
</svg>
