<svg width="70" height="24" viewBox="0 0 70 24" fill="none" xmlns="http://www.w3.org/2000/svg">
<path fill-rule="evenodd" clip-rule="evenodd" d="M5.26855 4.31779C5.46726 4.62848 6.29066 7.41597 6.41088 7.95941L4.15586 7.93965L5.26855 4.31779ZM12.6687 0.968197C11.5769 1.29042 11.5813 2.43385 11.5813 3.64974C11.5813 5.6248 11.5011 9.34931 11.5835 11.0955C11.6806 13.1534 13.9669 13.3642 14.5521 11.7514C14.7931 11.0878 14.686 7.17444 14.686 6.317C14.686 5.11923 14.742 3.77928 14.6789 2.59908C14.6213 1.52372 13.8884 0.608646 12.6687 0.968197ZM16.6529 4.17452C14.9182 4.18495 14.8804 6.14573 16.6529 6.27364C16.6529 7.61139 16.6529 8.94914 16.6529 10.2869C16.6529 10.9363 16.576 11.5138 16.8549 12.0402C17.412 13.0908 19.0281 12.9909 19.4766 12.0846C19.8932 11.2409 19.4914 7.86774 19.6819 6.27309C20.6206 6.27309 21.6136 6.24125 21.5867 5.20102C21.5592 4.15695 20.6387 4.17452 19.6638 4.17452C19.6638 3.52458 19.5913 3.14801 20.2824 3.08379C20.884 3.02779 21.3506 3.22431 21.6213 2.75388C22.1148 1.89589 21.4198 1.1208 20.2083 0.945142C19.1373 0.790343 18.0878 1.00937 17.3978 1.5089C16.6128 2.07649 16.6529 3.26493 16.6529 4.17452ZM25.8947 6.18142C27.1408 5.91628 27.4723 7.06081 27.5399 8.11311C27.6129 9.24336 27.4894 10.5883 26.3668 10.6876C25.0702 10.8023 24.6629 9.84829 24.6047 8.67522C24.5427 7.43298 24.8386 6.40648 25.8947 6.18142ZM27.9137 12.358C28.1415 12.5188 28.1459 12.6237 28.4209 12.7554C29.0922 13.0782 30.0057 12.8844 30.424 12.1165L30.4854 4.7981C30.0831 3.82814 28.6196 3.48725 27.9971 4.41605C27.4174 4.29638 27.1342 3.77873 25.6164 3.90279C24.7963 3.96976 24.0448 4.22392 23.4723 4.60433C22.4655 5.27403 21.6037 6.54316 21.5439 8.36288C21.4835 10.2045 22.347 11.5203 23.4086 12.1867C23.9976 12.5567 24.7343 12.8175 25.5571 12.8784C27.0601 12.9904 27.199 12.5924 27.9137 12.358ZM3.43017 10.5531L7.15194 10.5339C7.30673 11.1998 7.57571 12.162 7.98302 12.4777C8.62802 12.9767 9.57328 12.8521 10.1079 12.3311C10.7853 11.6713 10.6349 11.0559 10.3149 10.1442C10.0646 9.43 9.82579 8.74878 9.57273 8.03461C9.0743 6.63099 8.583 5.23231 8.10269 3.86107C7.478 2.07924 7.50215 0.97204 5.27294 0.982469C4.34085 0.986861 3.62669 1.16966 3.26878 1.77019C2.91692 2.36084 0.771685 8.74987 0.272705 10.1266C-0.030855 10.9654 -0.159854 11.6965 0.419819 12.2861C1.0983 12.9761 2.63037 13.1616 3.09752 11.6477C3.21114 11.2794 3.31983 10.9335 3.43017 10.5531Z" fill="#005AAB"/>
<path fill-rule="evenodd" clip-rule="evenodd" d="M-0.00012207 19.5293L0.0119545 20.755L56.013 20.7545C59.1139 20.7545 62.2182 20.7699 65.3185 20.755C66.5487 20.7495 67.8524 20.1946 68.5018 19.3031C69.441 18.0148 69.4443 17.4894 69.4443 15.5879C68.7549 15.4792 10.1497 15.5588 4.09382 15.5594C1.88272 15.5594 -0.00012207 17.3149 -0.00012207 19.5293Z" fill="#ED1C24"/>
<path fill-rule="evenodd" clip-rule="evenodd" d="M64.2613 2.10679C64.4365 2.5366 64.532 2.38729 64.5111 3.09322C64.4996 3.48297 64.4348 3.86832 64.3623 4.24873C64.2339 4.92611 64.0368 5.61502 63.8798 6.30174C63.2628 8.99535 61.9602 13.366 66.0767 12.8439C67.4567 12.6688 69.059 11.8789 68.1686 10.3605C67.5758 10.702 65.7495 11.9772 65.749 10.04C65.749 8.8433 66.1908 7.68615 66.3566 6.54986C67.6603 6.54711 69.3593 6.83475 69.4444 4.8542C68.5178 5.04139 67.707 5.12318 66.7151 5.07652C66.8353 4.32009 67.5275 2.67384 67.1114 2.10295C66.5762 1.36902 65.0227 1.92015 64.2613 2.10679ZM35.5483 6.53448C35.6674 5.8302 36.1834 4.53417 35.5483 4.07911C34.9642 3.66137 33.6012 3.9556 33.0221 4.28276C33.3762 4.5726 33.2993 5.05401 33.228 5.6238C33.0759 6.83201 32.6949 8.51723 32.3886 9.67274C32.2256 10.2875 31.6849 11.7203 31.9912 12.2857C32.4046 13.0481 33.6589 12.8307 34.4839 12.5634C34.4065 11.931 34.0761 11.8899 34.7436 10.5433C35.0394 9.9472 35.3188 9.38564 35.6158 8.80926C35.9199 8.21916 36.2679 7.69054 36.6001 7.18717C36.7763 6.92093 36.9849 6.64921 37.1578 6.44226C37.2708 6.30613 37.3603 6.25892 37.4734 6.1387C37.6359 5.96579 37.6139 5.91364 37.9032 5.884C38.0053 6.6278 37.2154 9.57612 37.0074 10.4506C36.8465 11.1263 36.4732 12.0946 37.0359 12.5788C37.5179 12.9938 38.7628 12.8214 39.264 12.5201C38.9544 11.712 39.1938 11.2152 39.5401 10.5022C39.836 9.89286 40.1 9.34996 40.4223 8.77688C40.7955 8.11377 42.0817 5.91254 42.6762 5.88619C42.7794 6.17274 41.9126 9.93128 41.793 10.5812C41.625 11.4924 41.6727 12.3905 42.4248 12.7105C43.3289 13.0953 44.0639 12.5409 44.6792 12.301C44.5859 12.088 44.693 12.3016 44.5695 12.1177C44.4701 11.97 44.5398 12.1188 44.4438 11.9294C44.0052 11.0637 44.4207 9.53221 44.6084 8.62427C44.7857 7.76794 45.3457 5.58812 45.2403 4.80315C45.047 3.36659 43.4463 3.66521 42.3754 4.40353C41.8857 4.74167 41.575 5.10836 41.2204 5.48273C40.7747 5.95371 40.4426 6.49716 40.1972 6.7568C40.2625 6.01519 40.6287 5.20387 40.313 4.46501C40.0265 3.79421 39.2728 3.63392 38.4258 3.9276C37.3894 4.28715 36.8141 5.02272 36.1675 5.76268C36.0489 5.89827 35.9973 5.97238 35.8672 6.14529L35.5483 6.53448ZM52.0421 6.27868C51.8675 6.5021 50.9629 8.26856 50.3344 9.13753C50.0582 9.51958 48.2978 12.2077 48.4576 9.79021C48.5306 8.67752 49.1734 5.02711 50.7598 5.30597C51.2703 5.396 51.901 5.94987 52.0421 6.27868ZM51.2379 9.91701C51.2083 10.9084 51.003 12.1034 51.7506 12.5651C52.5828 13.0789 53.6636 12.7857 54.2197 12.2933C53.9804 11.4502 53.8289 11.5561 53.8827 10.1629C53.9348 8.81201 54.1846 7.29915 54.6023 6.02398L55.2632 4.27014C54.8449 3.98195 53.6982 3.79037 53.0922 3.95779C52.8441 4.02641 52.664 4.23391 52.4324 4.19603C52.3632 4.1845 51.9691 3.98414 51.8154 3.93693C49.304 3.15855 47.1857 5.3971 46.2327 7.76355C45.5976 9.34063 45.215 12.5502 47.1687 12.8538C48.2451 13.0207 49.1805 12.3905 49.6509 11.8652C50.0385 11.4321 49.932 11.6204 50.4771 10.9545C50.6906 10.6932 51.0288 10.0894 51.2379 9.91701ZM59.0734 6.60145C59.0876 5.82801 59.7815 4.67854 59.0767 4.12083C58.4103 3.5933 57.2405 4.02806 56.5313 4.23006C56.9051 5.17588 56.7097 5.8077 56.4676 6.95607C56.2771 7.86071 56.0592 8.77578 55.8264 9.66286C55.6672 10.2689 55.1046 11.835 55.4372 12.3515C55.9066 13.0789 57.2361 12.8324 58.0342 12.5568C57.9415 11.8262 57.6478 12.0331 58.2478 10.5988C58.5063 9.97959 58.766 9.4614 59.0816 8.89051C59.3621 8.38274 60.2585 6.97528 60.8206 6.77876C61.2751 6.62012 61.4673 6.91709 61.6572 7.17015C62.6804 6.53339 64.0105 3.48791 62.059 3.80903C60.8794 4.0028 59.7101 5.73963 59.0734 6.60145Z" fill="#ED1C24"/>
<path fill-rule="evenodd" clip-rule="evenodd" d="M-0.00012207 23.1269C21.2145 23.1269 42.4286 23.1269 63.6426 23.1269C65.2302 23.1269 66.3324 23.2642 67.5489 22.5045C68.2081 22.0928 69.3428 20.8983 69.3477 19.7949C69.1287 19.9442 69.0161 20.1616 68.8043 20.3493C66.8363 22.0922 65.1226 21.7217 62.3395 21.7217H0.00481833L-0.00012207 23.1269Z" fill="#FFD503"/>
</svg>
