<svg width="76" height="26" viewBox="0 0 76 26" fill="none" xmlns="http://www.w3.org/2000/svg">
<path fill-rule="evenodd" clip-rule="evenodd" d="M12.9342 1.33887C12.9097 1.33887 12.8852 1.33887 12.8606 1.33887C9.56636 1.33887 6.39674 2.10317 3.32522 3.64507C2.07862 6.60624 1.37563 9.61646 1.33884 12.688C1.28979 15.735 1.9182 18.8556 3.31193 22.0385C6.51936 23.4322 9.72678 24.1474 12.9342 24.1853C16.1416 24.1474 19.3491 23.4322 22.5555 22.0385C23.9502 18.8556 24.5786 15.735 24.5296 12.688C24.4928 9.61646 23.7898 6.60624 22.5432 3.64507C19.4717 2.10317 16.3021 1.33887 13.0078 1.33887C12.9833 1.33887 12.9587 1.33887 12.9342 1.33887Z" fill="#F5F5F5"/>
<path d="M2.80722 2.96764C6.03917 1.31437 9.39373 0.5 12.8607 0.5C12.8852 0.5 12.9097 0.5 12.9343 0.5C12.9588 0.5 12.9833 0.5 13.0078 0.5C16.4748 0.5 19.8294 1.31437 23.0613 2.96764L23.2595 3.17711C24.5787 6.28542 25.3317 9.45606 25.3685 12.6757C25.3685 12.7371 25.3685 12.7861 25.3685 12.8484V13.0702C25.3563 16.1662 24.6901 19.3246 23.2595 22.532L23.0368 22.7415C19.67 24.2343 16.3021 24.9864 12.9343 25.0242C9.56642 24.9864 6.19857 24.2343 2.83174 22.7415L2.60899 22.532C1.17847 19.3246 0.512262 16.1662 0.5 13.0702V12.8484C0.5 12.7861 0.5 12.7371 0.5 12.6757C0.536785 9.45606 1.28985 6.28542 2.60899 3.17711L2.80722 2.96764ZM12.9343 1.3389C12.9097 1.3389 12.8852 1.3389 12.8607 1.3389C9.56642 1.3389 6.3968 2.1032 3.32527 3.6451C2.07868 6.60627 1.37568 9.61648 1.3389 12.688C1.28985 15.735 1.91826 18.8556 3.31199 22.0385C6.51941 23.4322 9.72684 24.1475 12.9343 24.1853C16.1417 24.1475 19.3491 23.4322 22.5555 22.0385C23.9503 18.8556 24.5787 15.735 24.5296 12.688C24.4928 9.61648 23.7898 6.60627 22.5433 3.6451C19.4717 2.1032 16.3021 1.3389 13.0078 1.3389C12.9833 1.3389 12.9588 1.3389 12.9343 1.3389Z" fill="#003399"/>
<path fill-rule="evenodd" clip-rule="evenodd" d="M13.156 19.6087C12.9833 17.2524 13.0947 14.797 12.3917 12.5521C11.7377 10.4554 9.25784 9.25886 9.20879 6.95164C9.15975 5.15021 10.529 3.06574 13.0947 3.06574C15.5 3.05348 16.9929 4.80484 17.1655 6.75443C17.375 9.01158 14.6366 10.529 13.9213 12.6758C13.1805 14.8716 13.391 17.3014 13.156 19.6087Z" fill="#003399"/>
<path fill-rule="evenodd" clip-rule="evenodd" d="M14.1063 19.0407C14.0072 16.993 14.0072 15.0322 14.5753 13.292C15.2037 11.319 16.5116 9.65343 18.5103 9.11085C19.8795 8.74096 21.8894 10.3442 21.5695 11.9852C21.2977 13.3053 19.9776 14.8595 17.8563 15.0322C16.8693 15.118 16.4503 15.9079 15.8332 16.3646C18.5961 16.0928 20.3853 15.0076 21.6308 13.8724C21.8158 14.8339 21.9394 16.4504 21.1864 17.0053C19.7068 18.0536 18.3376 17.2025 16.5975 17.696C15.6237 17.9801 15.0188 18.5972 14.1063 19.0407Z" fill="#003399"/>
<path fill-rule="evenodd" clip-rule="evenodd" d="M12.219 19.0407C12.3293 16.993 12.3171 15.0322 11.7622 13.292C11.1328 11.319 9.82594 9.65343 7.8273 9.11085C6.45809 8.74096 4.43493 10.3442 4.76804 11.9852C5.03984 13.3053 6.35898 14.8595 8.48125 15.0322C9.45605 15.118 9.88725 15.9079 10.5044 16.3646C7.72819 16.0928 5.9523 15.0076 4.70673 13.8724C4.52179 14.8339 4.39815 16.4504 5.15019 17.0053C6.63078 18.0536 7.99999 17.2025 9.73909 17.696C10.7139 17.9801 11.3055 18.5972 12.219 19.0407Z" fill="#003399"/>
<path fill-rule="evenodd" clip-rule="evenodd" d="M18.7932 22.0874V21.7543L19.0405 21.693L18.7932 21.3231V20.706L19.9039 22.2478L19.5095 22.347L19.2377 21.9638L18.7932 22.0874ZM18.7932 20.706V21.3231L18.6206 21.0758L18.547 21.8166L18.7932 21.7543V22.0874L18.5102 22.1498L18.4601 22.6055L18.0657 22.7046L18.3253 20.6937L18.7197 20.5946L18.7932 20.706ZM15.1178 23.1613V22.8405H15.2037C15.3396 22.8282 15.4264 22.816 15.4632 22.8027C15.5123 22.7904 15.5613 22.7536 15.5868 22.7169C15.6236 22.6678 15.6359 22.6177 15.6359 22.5564C15.6236 22.4951 15.6114 22.4451 15.5736 22.4083C15.549 22.3715 15.5 22.347 15.4509 22.3347C15.4019 22.3224 15.2905 22.3224 15.1178 22.3347V22.0139C15.2159 22.0139 15.2783 22.0016 15.3028 22.0016C15.3641 21.9893 15.4142 21.9515 15.4509 21.9147C15.4877 21.878 15.5 21.8289 15.4877 21.7666C15.4877 21.7053 15.4632 21.6562 15.4264 21.6307C15.4019 21.5939 15.3518 21.5694 15.2783 21.5694C15.2537 21.5694 15.2037 21.5694 15.1178 21.5816V21.2608C15.2537 21.2485 15.3518 21.2485 15.4142 21.2608C15.4877 21.2608 15.5613 21.2863 15.6236 21.3231C15.6849 21.3476 15.734 21.3967 15.784 21.458C15.8208 21.5203 15.8454 21.5939 15.8576 21.6807C15.8699 21.7666 15.8454 21.8534 15.8086 21.927C15.7718 22.0016 15.7095 22.0629 15.6236 22.1119C15.7462 22.1375 15.8454 22.1865 15.9067 22.2601C15.9813 22.3347 16.018 22.4205 16.0303 22.5319C16.0303 22.6177 16.018 22.7046 15.9935 22.7904C15.9567 22.8773 15.9067 22.9386 15.8454 23.0009C15.7718 23.05 15.6972 23.0867 15.5991 23.1113C15.5368 23.1235 15.3764 23.1358 15.1424 23.1613H15.1178ZM17.4486 22.1242L17.8317 22.1743C17.8072 22.3837 17.7449 22.5564 17.6345 22.6801C17.5232 22.7904 17.3627 22.8773 17.1655 22.9141C16.9182 22.9508 16.6965 22.9018 16.5116 22.7659C16.3144 22.6177 16.203 22.4083 16.1417 22.1119C16.0916 21.8044 16.1294 21.5449 16.2643 21.3476C16.3879 21.1504 16.5851 21.0268 16.8447 20.9778C17.0787 20.9399 17.2636 20.9778 17.4363 21.0881C17.5354 21.1504 17.6212 21.2485 17.6836 21.3967L17.3259 21.5449C17.2892 21.458 17.2268 21.3844 17.1533 21.3476C17.0664 21.2986 16.9806 21.2863 16.8815 21.2986C16.7456 21.3231 16.6475 21.3967 16.5729 21.5081C16.4993 21.6307 16.487 21.7921 16.5238 22.0139C16.5729 22.2478 16.6475 22.4083 16.7456 22.4951C16.8447 22.581 16.9683 22.6177 17.1032 22.5932C17.2023 22.5687 17.2769 22.5196 17.3382 22.4451C17.3995 22.3715 17.4363 22.2601 17.4486 22.1242ZM15.1178 21.2608V21.5816C15.0688 21.5816 15.0187 21.5939 14.9574 21.5939L14.7357 21.6194L14.7725 22.0506L15.031 22.0261C15.0555 22.0261 15.0933 22.0261 15.1178 22.0139V22.3347C15.1178 22.3347 15.1178 22.3347 15.1056 22.3347L14.8093 22.3592L14.846 22.865L15.1178 22.8405V23.1613L14.5007 23.2226L14.328 21.3354L15.0811 21.2741C15.0933 21.2608 15.1056 21.2608 15.1178 21.2608ZM12.737 22.5074V22.1865C12.8229 22.1865 12.8729 22.1743 12.9097 22.162C12.9588 22.1498 12.9956 22.1119 13.0334 22.0752C13.0579 22.0261 13.0702 21.9771 13.0702 21.927C13.0824 21.8534 13.0579 21.8044 13.0201 21.7543C12.9833 21.7053 12.9343 21.6808 12.8729 21.6685C12.8351 21.6685 12.7984 21.6562 12.737 21.6562V21.3354C12.922 21.3354 13.0334 21.3476 13.0947 21.3722C13.2061 21.3967 13.2919 21.458 13.3665 21.5571C13.44 21.6562 13.4768 21.7788 13.4646 21.927C13.4646 22.0384 13.44 22.1375 13.4033 22.2233C13.3532 22.2969 13.3041 22.3592 13.2428 22.4083C13.1682 22.4451 13.1069 22.4696 13.0334 22.4951C12.9588 22.5074 12.8607 22.5074 12.737 22.5074ZM12.737 21.3354V21.6562C12.7003 21.6562 12.6502 21.6562 12.5889 21.6562L12.4039 21.644V22.1865H12.6011C12.6502 22.1865 12.7003 22.1865 12.737 22.1865V22.5074C12.7125 22.5074 12.6747 22.5074 12.6379 22.5074H12.3917L12.3794 23.2226L11.9962 23.2104L12.0341 21.3231L12.6379 21.3354C12.6747 21.3354 12.7125 21.3354 12.737 21.3354ZM9.17199 22.3224V21.7421C9.28337 21.7666 9.35694 21.7666 9.39372 21.7666C9.44379 21.7543 9.48058 21.7421 9.51736 21.7053C9.54188 21.6685 9.56641 21.6307 9.57867 21.5694C9.59093 21.5081 9.57867 21.458 9.55415 21.409C9.52962 21.3599 9.48058 21.3354 9.41825 21.3109C9.39372 21.2986 9.30789 21.2863 9.17199 21.2608V20.9399L9.33242 20.9655C9.52962 21.0023 9.66552 21.0391 9.75135 21.0881C9.83821 21.1382 9.89951 21.2117 9.9363 21.3109C9.97411 21.3967 9.98637 21.5081 9.96184 21.6194C9.9363 21.7543 9.87499 21.8657 9.7769 21.9393C9.69005 22.0139 9.55415 22.0506 9.38146 22.0506C9.45605 22.1119 9.51736 22.1743 9.55415 22.2356C9.60319 22.3102 9.65326 22.4205 9.71457 22.581L9.87499 22.9887L9.43051 22.9018L9.2333 22.4451C9.20878 22.4083 9.19652 22.3592 9.17199 22.3224ZM10.2571 21.1504L10.627 21.1872L10.5412 22.2111C10.5289 22.3715 10.5289 22.4829 10.5289 22.5196C10.5412 22.6055 10.578 22.6678 10.627 22.7169C10.6894 22.7782 10.7629 22.8027 10.8743 22.816C10.9857 22.8282 11.0715 22.8027 11.1206 22.7659C11.1829 22.7291 11.2197 22.6801 11.2442 22.6177C11.2565 22.5564 11.2687 22.4451 11.281 22.2969L11.3678 21.2485L11.75 21.2863L11.6642 22.2724C11.6519 22.5074 11.6264 22.6678 11.5896 22.7536C11.565 22.8405 11.516 22.9263 11.4659 22.9754C11.4046 23.0377 11.3188 23.0867 11.2197 23.1113C11.1328 23.1491 11.0102 23.1491 10.862 23.1358C10.6771 23.1235 10.5412 23.0867 10.4544 23.0377C10.3685 22.9887 10.2939 22.9263 10.2449 22.865C10.1958 22.7904 10.1713 22.7169 10.1591 22.6433C10.1468 22.5319 10.1468 22.3715 10.1591 22.162L10.2571 21.1504ZM7.26021 21.7053L7.33378 21.3967L8.13589 21.6062L7.93868 22.3347C7.83957 22.396 7.71593 22.4328 7.54325 22.4451C7.38283 22.4573 7.23569 22.4451 7.08753 22.4083C6.8893 22.3592 6.7299 22.2724 6.61852 22.162C6.49488 22.0384 6.42131 21.8902 6.38453 21.7298C6.35898 21.5571 6.35898 21.3844 6.40905 21.2117C6.4581 21.0268 6.54393 20.8664 6.66757 20.7305C6.77894 20.6079 6.9271 20.5333 7.09979 20.4965C7.23569 20.4597 7.39509 20.472 7.56879 20.521C7.79052 20.5823 7.96321 20.6692 8.0613 20.8051C8.16041 20.9277 8.20946 21.0881 8.1972 21.2608L7.81505 21.2363C7.81505 21.1382 7.79052 21.0513 7.72819 20.9778C7.66688 20.9154 7.59332 20.8541 7.48194 20.8296C7.32152 20.7928 7.18562 20.8051 7.06198 20.8786C6.93936 20.9532 6.85251 21.1004 6.7912 21.2986C6.7299 21.5203 6.74216 21.693 6.80347 21.8289C6.87703 21.9638 6.98841 22.0506 7.13657 22.0874C7.2224 22.1119 7.29699 22.1119 7.38283 22.1119C7.46968 22.0997 7.54325 22.0752 7.61784 22.0506L7.67915 21.8166L7.26021 21.7053ZM9.17199 20.9399L8.5303 20.8296L8.20946 22.6923L8.57935 22.7536L8.71525 21.9771L8.8021 21.9893C8.88793 22.0016 8.95026 22.0261 8.98705 22.0384C9.02383 22.0629 9.04836 22.0997 9.08514 22.1375C9.0974 22.1743 9.13521 22.2356 9.17199 22.3224V21.7421C9.13521 21.7421 9.0974 21.7298 9.04836 21.7298L8.77758 21.6807L8.85115 21.2117L9.14747 21.2608C9.15973 21.2608 9.17199 21.2608 9.17199 21.2608V20.9399Z" fill="#003399"/>
<path fill-rule="evenodd" clip-rule="evenodd" d="M67.9632 18.6339V15.1546H69.4928V9.03611L67.9632 12.0954V4.45948H73.9704L75.5 22.0508H69.4928V18.6339H67.9632ZM67.9632 4.45948V12.0954L66.4336 15.1546H67.9632V18.6339H65.0766L63.8924 21.8658H60.1669V17.844L64.3236 8.87569H63.4724L65.8409 4.45948H67.9632ZM60.1669 10.3195L62.0296 5.90328L60.1669 4.86718V10.3195ZM45.3518 8.62944C45.4387 8.12365 45.4387 7.63012 45.3518 7.16111V8.62944ZM60.1669 4.86718V10.3195L59.9206 10.9111C56.2442 8.28407 50.8164 10.6771 50.5078 13.4523C50.2003 16.3512 52.4084 18.6952 58.0456 16.9438L56.1083 22.1243C48.6706 22.951 45.784 20.0031 45.3518 16.5617V14.6121C45.4632 13.7119 45.6972 12.8362 46.018 12.0218C49.6822 2.91759 55.627 4.96527 57.8852 4.79259L58.2183 3.78101L60.1669 4.86718ZM60.1669 17.844L58.3041 21.8658H60.1669V17.844ZM38.6662 21.7544C42.6502 20.9656 46.5606 16.1785 42.6379 12.3672C44.1676 11.5528 45.1178 10.0855 45.3518 8.62944V7.16111C45.0811 5.64374 43.909 4.41043 41.7009 4.37365L38.6662 4.31132V7.69143H39.924C41.2687 7.69143 41.096 11.1707 39.4182 11.1707H38.6662V13.8355C40.4799 14.1809 39.8382 16.6965 38.6662 17.4741V21.7544ZM45.3518 16.5617V14.6121C45.2783 15.266 45.2783 15.92 45.3518 16.5617ZM33.4111 4.20096L30.9567 8.96254L32.0541 8.87569L29.094 21.8658H37.5688C37.9387 21.8658 38.2963 21.829 38.6662 21.7544V17.4741C38.4567 17.6223 38.2217 17.7081 37.9877 17.7081H34.9407L35.9523 13.7977H38.234C38.3944 13.7977 38.5426 13.81 38.6662 13.8355V11.1707H36.5439L37.3951 7.69143H38.6662V4.31132L33.4111 4.20096Z" fill="#003399"/>
</svg>
