<svg width="84" height="25" viewBox="0 0 84 25" fill="none" xmlns="http://www.w3.org/2000/svg">
<path fill-rule="evenodd" clip-rule="evenodd" d="M29.2717 0.876709C30.2353 1.53663 31.2156 2.53741 31.2156 3.50359V20.5424C31.2156 21.4971 30.3148 22.8477 29.496 23.3858C32.3868 23.3858 35.2789 23.3858 38.1698 23.3858C43.7823 23.1539 47.1857 21.128 47.5932 16.8789C47.8777 13.8996 46.3041 11.5828 42.4356 10.2758C44.3654 9.54156 45.4033 7.94237 45.4981 5.73707C45.6609 1.94412 41.2464 0.876709 38.4696 0.876709L29.2717 0.876709ZM34.6549 10.0003V2.8962H37.3177C40.3366 2.8962 41.7603 4.3775 41.759 6.61099C41.759 8.84447 39.7164 10.0003 37.1677 10.0003H34.6549ZM37.4932 21.2164H34.6549V12.0185H37.8712C42.6611 12.0185 44.1104 14.8991 43.8528 17.253C43.5965 19.6083 41.5732 21.2164 37.4932 21.2164ZM55.2304 0.876709H50.5174C51.5656 2.04279 52.0218 2.6553 52.0218 4.46336V19.9914C52.0218 21.779 51.2299 22.8771 50.092 23.6537H56.3644C55.4329 23.0847 54.4308 21.9686 54.4308 19.9491V6.23297C57.5984 10.4642 60.7673 14.6966 63.935 18.9291C65.7315 21.2792 67.8138 23.2718 70.242 24.8325V4.38135C70.242 2.33366 71.0685 1.55201 72.1731 0.876709H66.0583C67.1667 1.69937 67.7548 2.62711 67.7548 4.30062V17.995L55.2304 0.876709ZM75.6444 23.6537C76.913 22.8118 77.5576 21.8238 77.5576 20.5424V4.27755C77.5576 2.35545 77.0027 1.91977 75.9135 0.876709H83.1522C81.9028 1.5802 81.0263 3.01665 81.0263 4.27755V20.4976C81.0263 21.7418 81.7631 22.8822 82.7626 23.6537H75.6444Z" fill="#007697"/>
<path fill-rule="evenodd" clip-rule="evenodd" d="M0.847656 0.876709H7.83515C7.46995 1.50332 7.19445 2.91158 7.9005 6.07408C8.52839 8.88548 10.3441 11.8173 12.2393 14.1354L9.85848 16.0895L0.847656 4.76833L0.847656 0.876709ZM11.0515 0.876709H23.3529V3.85725C22.4009 3.30112 20.6658 2.76422 18.1184 3.78293C14.0077 5.42825 13.6553 10.2438 13.6553 10.2438C11.3808 7.49644 9.88539 2.99231 11.0515 0.876709ZM23.3529 7.81166V16.6841C20.5582 17.7451 16.6371 14.9862 15.6517 11.711C14.2242 6.96466 17.5892 5.25142 19.9969 5.7217C21.7973 6.0728 22.8417 7.14533 23.3529 7.81166ZM23.3529 18.1398V23.3833H15.8132L17.3252 22.1416C16.3385 22.2621 14.4011 21.7982 13.4579 20.6129L10.8042 17.2787L13.2299 15.2861C14.7214 16.9301 16.1412 18.1103 16.9434 18.4653C18.663 19.2238 20.5992 19.589 23.3529 18.1398ZM11.6038 23.3833H3.36818L8.49892 19.17C8.91922 19.698 9.32414 20.208 9.70984 20.6911C10.4659 21.6419 11.1002 22.5786 11.6038 23.3833ZM0.974515 23.3833H0.847656V9.55565C2.80692 12.0185 5.31078 15.1644 7.55324 17.9822L0.974515 23.3833Z" fill="#EC6722"/>
</svg>
