<svg width="84" height="18" viewBox="0 0 84 18" fill="none" xmlns="http://www.w3.org/2000/svg">
<path fill-rule="evenodd" clip-rule="evenodd" d="M3.72845 0.740479H16.5169C18.1012 0.740479 19.3974 1.9239 19.3974 3.37018V15.2819C19.3974 16.7281 18.1012 17.9116 16.5169 17.9116H3.72845C2.14415 17.9116 0.8479 16.7281 0.8479 15.2819V3.37018C0.8479 1.9239 2.14415 0.740479 3.72845 0.740479ZM4.03751 1.96171H6.30594C6.92826 2.22336 7.43176 2.63384 7.77803 3.10253C8.1933 3.66484 8.37454 4.29316 8.24791 4.81706C8.24431 4.83206 8.23711 4.85726 8.22631 4.89147C7.91305 5.91707 6.84605 6.85985 5.75984 7.81823C5.44658 8.09548 5.13152 8.37334 4.82066 8.66559L4.17914 9.26751L4.82786 9.86042L4.82846 9.86102L4.83026 9.85982C5.13812 10.1485 5.44958 10.4239 5.75984 10.6976C6.84605 11.6566 7.91305 12.5993 8.22631 13.6243C8.23711 13.6591 8.24431 13.6838 8.24791 13.6994C8.37454 14.2233 8.1933 14.851 7.77803 15.4139C7.36395 15.9744 6.72542 16.4509 5.92787 16.6897H4.03751C3.40559 16.6897 2.88829 16.1706 2.88829 15.5363V3.11573C2.88829 2.48141 3.40559 1.96231 4.03751 1.96231V1.96171ZM9.17449 1.96171H11.4627C12.0844 2.22336 12.5879 2.63384 12.9342 3.10253C13.3501 3.66484 13.5313 4.29316 13.4041 4.81706C13.4005 4.83206 13.3933 4.85726 13.3831 4.89147C13.0698 5.91707 12.0022 6.85985 10.9166 7.81823C10.6028 8.09548 10.2877 8.37334 9.97684 8.66559L9.35033 9.2531L9.97324 9.84722L16.8968 16.4575C16.7047 16.6033 16.4659 16.6897 16.2078 16.6897H9.05927C9.15169 16.5841 9.2393 16.4761 9.32092 16.3657C10.0129 15.4295 10.2991 14.3205 10.0603 13.3327C10.0447 13.2691 10.0303 13.2151 10.0171 13.1719C9.56637 11.6962 8.31813 10.5938 7.04829 9.47275C6.96727 9.40133 6.88625 9.32992 6.80584 9.25791C6.88625 9.18649 6.96727 9.11508 7.04829 9.04366C8.31813 7.92265 9.56637 6.82024 10.0171 5.34456C10.0303 5.30075 10.0447 5.24674 10.0603 5.18313C10.2991 4.19594 10.0129 3.08693 9.32092 2.15015C9.27411 2.08654 9.2249 2.02412 9.17449 1.96171ZM14.3307 1.96171H16.2078C16.8398 1.96171 17.3571 2.48141 17.3571 3.11573V14.4399L11.9452 9.27291C12.0316 9.19669 12.1181 9.11988 12.2045 9.04366C13.4743 7.92265 14.7226 6.82024 15.1732 5.34456C15.1864 5.30075 15.2008 5.24674 15.2164 5.18313C15.4559 4.19594 15.169 3.08693 14.4771 2.15015C14.4303 2.08654 14.3811 2.02412 14.3307 1.96171Z" fill="#F5F5F5"/>
<path fill-rule="evenodd" clip-rule="evenodd" d="M49.8208 5.4082H52.2219V8.85166L55.2213 5.4082H58.0796L54.7994 9.0749L58.2374 13.3219H55.1919L52.2219 9.61921V13.3219H49.8208V5.4082ZM40.2862 5.4082H43.6012L46.4716 11.2563V5.4082H48.5918V13.3219H45.2648L42.4064 7.38678V13.3219H40.2862V5.4082ZM33.2583 5.4082H36.3303L39.9057 13.3219H37.0354L36.4311 11.5978H32.8682L32.2765 13.3219H29.5946L33.2583 5.4082ZM35.7385 10.2289L34.6559 7.03691L33.4599 10.2289H35.7385ZM22.179 5.4082H26.0779C26.2225 5.4154 26.4482 5.42621 26.7542 5.44121C27.0597 5.45561 27.3777 5.50662 27.7078 5.59424C28.1345 5.70346 28.5264 5.8925 28.8846 6.16255C29.2429 6.432 29.4463 6.84368 29.4944 7.39758C29.4944 7.41199 29.4944 7.42519 29.4944 7.43599C29.4944 7.44679 29.4986 7.45939 29.5064 7.4744C29.5064 7.4888 29.5064 7.5014 29.5064 7.51221C29.5064 7.52361 29.5064 7.53621 29.5064 7.55061C29.5064 7.9881 29.3329 8.36137 28.9873 8.67103C28.641 8.98069 28.1783 9.15772 27.5986 9.20093C27.607 9.20093 27.6136 9.20333 27.6172 9.20633C27.6214 9.21053 27.6274 9.21233 27.6352 9.21233C28.1501 9.34315 28.6212 9.5544 29.0479 9.84605C29.4739 10.1377 29.6876 10.5818 29.6876 11.1795C29.6876 11.9519 29.3833 12.5022 28.776 12.8304C28.1687 13.1581 27.2691 13.3219 26.0779 13.3219H22.179V5.4082ZM24.6538 11.77H25.9813C26.3438 11.7772 26.609 11.7172 26.7782 11.5894C26.9475 11.4622 27.0519 11.3217 27.0921 11.1687C27.0999 11.1393 27.1065 11.1123 27.1101 11.0865C27.1143 11.0613 27.1161 11.0337 27.1161 11.0049C27.1161 10.9611 27.1125 10.9155 27.1041 10.868C27.0963 10.8206 27.0801 10.7714 27.0561 10.7204C26.9997 10.5818 26.8929 10.4528 26.7356 10.3327C26.579 10.2121 26.36 10.1521 26.0779 10.1521L24.6538 10.1413V11.77ZM24.6538 8.50179H25.8853C26.2633 8.509 26.5328 8.44718 26.6936 8.31576C26.855 8.18433 26.9349 7.9917 26.9349 7.73665C26.9349 7.52541 26.8424 7.34297 26.6576 7.18994C26.4722 7.03691 26.2147 6.9601 25.8853 6.9601L24.6538 6.9493V8.50179Z" fill="#F5F5F5"/>
<mask id="mask0_123_1710" style="mask-type:luminance" maskUnits="userSpaceOnUse" x="62" y="5" width="22" height="9">
<path d="M62.7502 5.36377H83.1523V13.3525H62.7502V5.36377Z" fill="white"/>
</mask>
<g mask="url(#mask0_123_1710)">
<path fill-rule="evenodd" clip-rule="evenodd" d="M80.6588 5.4082H83.1535V13.3219H80.6588V5.4082ZM71.6121 5.4082H75.5434C75.5842 5.4154 75.6226 5.41901 75.6593 5.41901C75.6959 5.41901 75.7343 5.41901 75.7745 5.41901C76.6026 5.43401 77.3612 5.57564 78.0507 5.84569C78.7402 6.11514 79.0859 6.66184 79.0859 7.4852C79.0859 8.12612 78.8783 8.59481 78.4648 8.89007C78.0507 9.18472 77.5556 9.37616 76.9795 9.46378C77.8479 9.49258 78.3856 9.75483 78.5926 10.2505C79.0163 11.2653 79.3878 12.3353 79.7946 13.3219H77.1169C76.7647 12.6078 76.4484 11.605 76.164 10.8404C76.0343 10.4906 75.7301 10.3159 75.2512 10.3159L74.1074 10.3051V13.3219H71.6121V5.4082ZM74.1074 7.03691V8.76404H75.0687C75.1096 8.77125 75.148 8.77485 75.1846 8.77485C75.2206 8.77485 75.2596 8.77485 75.3004 8.77485C75.6004 8.76044 75.8765 8.69863 76.1279 8.58881C76.3794 8.47959 76.5048 8.25395 76.5048 7.91128C76.5048 7.61242 76.3752 7.39398 76.1159 7.25536C75.8561 7.11733 75.5356 7.04772 75.154 7.04772L74.1074 7.03691ZM62.8972 5.4082H66.8286C66.975 5.4154 67.2018 5.42621 67.5103 5.44121C67.8188 5.45561 68.1392 5.50662 68.4717 5.59424C68.902 5.70346 69.2974 5.8925 69.6587 6.16255C70.02 6.432 70.2246 6.84368 70.2732 7.39758C70.2732 7.41199 70.2732 7.42519 70.2732 7.43599C70.2732 7.44679 70.2774 7.45939 70.2852 7.4744C70.2852 7.4888 70.2852 7.5014 70.2852 7.51221C70.2852 7.52361 70.2852 7.53621 70.2852 7.55061C70.2852 7.9881 70.1112 8.36137 69.7619 8.67103C69.4133 8.98069 68.947 9.15772 68.3625 9.20093C68.3703 9.20093 68.3769 9.20333 68.3805 9.20633C68.3847 9.21053 68.3907 9.21233 68.3991 9.21233C68.9182 9.34315 69.3929 9.5544 69.8231 9.84605C70.2528 10.1377 70.4677 10.5818 70.4677 11.1795C70.4677 11.9519 70.1616 12.5022 69.5489 12.8304C68.9368 13.1581 68.03 13.3219 66.8286 13.3219H62.8972V5.4082ZM65.3925 11.77H66.7313C67.0968 11.7772 67.3645 11.7172 67.5343 11.5894C67.7053 11.4622 67.811 11.3217 67.8512 11.1687C67.8596 11.1393 67.8656 11.1123 67.8692 11.0865C67.8734 11.0613 67.8752 11.0337 67.8752 11.0049C67.8752 10.9611 67.8716 10.9155 67.8632 10.868C67.8554 10.8206 67.8386 10.7714 67.8146 10.7204C67.7581 10.5818 67.6501 10.4528 67.4923 10.3327C67.3339 10.2121 67.1124 10.1521 66.8286 10.1521L65.3925 10.1413V11.77ZM65.3925 8.50179H66.6341C67.0152 8.509 67.2871 8.44718 67.4497 8.31576C67.6117 8.18433 67.6933 7.9917 67.6933 7.73665C67.6933 7.52541 67.5997 7.34297 67.4131 7.18994C67.2264 7.03691 66.9666 6.9601 66.6341 6.9601L65.3925 6.9493V8.50179Z" fill="#F5F5F5"/>
</g>
</svg>
