<svg width="84" height="25" viewBox="0 0 84 25" fill="none" xmlns="http://www.w3.org/2000/svg">
<path fill-rule="evenodd" clip-rule="evenodd" d="M11.6997 0.697345C7.73136 1.07265 4.5154 3.17381 2.56222 6.4171C1.29299 8.52449 0.696374 11.0212 0.880359 13.5834C1.33054 19.8518 6.71744 25.1589 13.6124 24.6125C19.7988 24.1221 24.9031 18.557 24.3802 11.7122C24.1887 9.20621 23.3177 7.14082 21.9215 5.27586C21.2894 4.43149 21.1647 4.41771 20.5045 3.72643C19.6859 2.86895 17.9548 1.88458 16.85 1.44906C15.3685 0.864887 13.4822 0.528692 11.6997 0.697345Z" fill="#F5F5F5"/>
<path fill-rule="evenodd" clip-rule="evenodd" d="M5.80755 9.15591C5.65712 9.59032 5.74667 14.4204 5.74667 15.3163C5.74667 16.2856 5.55535 16.5882 7.07167 17.1068C11.0865 18.4798 15.0619 13.8244 19.054 16.1278C19.2391 16.2344 19.4644 16.4533 19.5173 16.0998L19.5189 9.8863C19.5191 9.21791 19.5789 9.00859 19.1356 8.69995C15.5632 6.21126 11.6953 10.468 8.07048 9.99051C6.72903 9.81386 6.17352 9.12947 5.80755 9.15591Z" fill="#108DE8"/>
<path fill-rule="evenodd" clip-rule="evenodd" d="M33.3891 18.7343C34.954 18.846 36.777 17.6324 37.4194 16.9373C39.6506 14.5226 39.7043 11.0289 37.4583 8.50043C36.6219 7.55895 34.6638 6.51837 33.4148 6.66414L28.9043 6.66747L28.9032 18.7192L33.3891 18.7343ZM31.437 16.1229C31.7692 16.1807 33.1337 16.1591 33.5086 16.1247C36.5899 15.8429 37.6783 11.63 35.0878 9.86521C34.6578 9.57212 34.1794 9.33859 33.5517 9.26882C33.208 9.23037 31.7396 9.2066 31.4354 9.26148L31.437 16.1229Z" fill="#F5F5F5"/>
<path fill-rule="evenodd" clip-rule="evenodd" d="M72.8951 18.7569L75.4607 18.7558L75.4634 16.1582L80.5543 16.1591L80.5692 18.756L83.1337 18.7565C83.1354 17.313 83.1343 15.8811 83.1343 14.4495C83.1343 13.1598 83.2428 11.5453 82.9246 10.3754C82.3864 8.39529 80.5034 6.63921 78.0254 6.62944C75.5207 6.61966 73.7026 8.37063 73.1222 10.322C72.7787 11.4768 72.8934 13.1325 72.8934 14.4037C72.8934 15.8525 72.8785 17.309 72.8951 18.7569ZM75.4632 13.5449L80.567 13.5471C80.5794 12.433 80.699 11.3502 80.199 10.4965C79.8413 9.88584 79.0866 9.24678 78.0267 9.24233C76.9455 9.23789 76.2244 9.8514 75.8387 10.484C75.3332 11.3137 75.4474 12.4561 75.4632 13.5449Z" fill="#F5F5F5"/>
<path fill-rule="evenodd" clip-rule="evenodd" d="M43.5494 18.7536L46.1063 18.7558C46.1079 18.2136 46.0377 16.5518 46.1312 16.1578L51.2026 16.1585L51.2206 18.754L53.7808 18.7565C53.7675 17.3173 53.7797 15.8803 53.7797 14.449C53.7797 13.2211 53.8935 11.4619 53.5717 10.3734C52.1065 5.41577 45.2853 5.38066 43.7714 10.3238C43.4286 11.4433 43.5457 13.1565 43.5457 14.4033C43.5457 15.842 43.5128 17.3197 43.5494 18.7536ZM46.1079 13.5442L51.2181 13.5469C51.2288 12.449 51.3488 11.3457 50.8475 10.4938C49.9302 8.9346 47.5975 8.71017 46.4879 10.4862C45.9806 11.2982 46.0912 12.4752 46.1079 13.5442Z" fill="#F5F5F5"/>
<path fill-rule="evenodd" clip-rule="evenodd" d="M58.2812 11.3714L58.2463 13.1717C58.2463 14.6811 58.1712 17.4969 58.2517 18.7214L60.759 18.7228C60.8172 17.8644 60.6684 11.7389 60.8272 11.5438C60.8279 10.3535 62.0689 9.24666 63.3241 9.24199C64.0952 9.2391 64.6574 9.55286 65.0667 9.92527C65.3862 10.2161 65.8748 10.8787 65.8655 11.55C65.9828 11.616 65.8902 18.0055 65.927 18.721L68.4371 18.7228L68.4171 11.408C68.4797 10.835 68.1346 9.94904 67.9133 9.4993C66.0553 5.7225 60.7219 5.6725 58.811 9.4342C58.587 9.87527 58.2283 10.7852 58.2812 11.3714Z" fill="#F5F5F5"/>
<path fill-rule="evenodd" clip-rule="evenodd" d="M33.389 18.7344L28.9032 18.7193L28.9043 6.66759L33.4148 6.66425C33.3328 6.54937 31.451 6.61803 31.1872 6.61803C30.531 6.61803 29.4951 6.55626 28.8852 6.62781C28.8276 6.81979 28.8041 18.4482 28.8812 18.7615C29.2965 18.815 32.1909 18.7737 33.1059 18.7759L33.3575 18.7495C33.3655 18.7473 33.3786 18.7395 33.389 18.7344Z" fill="#79BBE7"/>
<path fill-rule="evenodd" clip-rule="evenodd" d="M65.8656 11.5502C65.8925 12.5361 65.8123 18.4107 65.9043 18.7629L68.4601 18.774C68.5267 18.4916 68.4856 13.9109 68.4856 13.2174C68.4856 12.8859 68.5745 11.5835 68.4172 11.4082L68.4372 18.7229L65.9272 18.7212C65.8903 18.0057 65.9829 11.6162 65.8656 11.5502Z" fill="#79BBE7"/>
<path fill-rule="evenodd" clip-rule="evenodd" d="M60.8273 11.5435C60.6684 11.7386 60.8173 17.8641 60.7591 18.7225L58.2517 18.7212C58.1713 17.4966 58.2464 14.6808 58.2464 13.1714L58.2813 11.3711C58.1386 11.4331 58.2024 14.6417 58.2024 15.0421C58.2024 15.6252 58.1331 18.4296 58.2328 18.7638L60.7873 18.7732L60.8273 11.5435Z" fill="#79BBE7"/>
</svg>
