<svg width="84" height="18" viewBox="0 0 84 18" fill="none" xmlns="http://www.w3.org/2000/svg">
<path d="M9.42551 0.11084C14.4461 0.11084 18.5166 4.03941 18.5166 8.88488C18.5166 13.7303 14.4461 17.6589 9.42551 17.6589C4.40376 17.6589 0.333252 13.7303 0.333252 8.88488C0.333252 4.03941 4.40376 0.11084 9.42551 0.11084Z" fill="#00AED6"/>
<path fill-rule="evenodd" clip-rule="evenodd" d="M14.7288 8.61492C14.659 7.49771 13.6746 6.64148 12.5162 6.69185H6.77326C6.56378 6.69185 6.39437 6.52816 6.39437 6.32555C6.39437 6.12408 6.56378 5.96039 6.77326 5.96039H12.5917C12.5585 5.20375 12.0228 4.55357 11.2662 4.3521C9.56974 4.05906 7.83324 4.05906 6.13681 4.3521C5.17299 4.58104 4.45183 5.35485 4.31905 6.3038C4.05348 8.02541 4.05348 9.77449 4.31905 11.495C4.52166 12.5 5.34812 13.2772 6.39437 13.4478C8.49716 13.7031 10.6251 13.7031 12.7279 13.4478C13.6654 13.2647 14.374 12.5217 14.4862 11.6049C14.6785 10.6193 14.7598 9.61653 14.7288 8.61492ZM12.8344 9.84317V10.1648C12.8344 10.3663 12.665 10.53 12.4555 10.53C12.246 10.53 12.0766 10.3663 12.0766 10.1648V9.84317C11.9541 9.74015 11.8854 9.5902 11.8877 9.43338C11.8877 9.13003 12.1419 8.88507 12.4555 8.88507C12.7691 8.88507 13.0233 9.13003 13.0233 9.43338C13.0221 9.58905 12.9534 9.73786 12.8344 9.84317Z" fill="white"/>
<path d="M44.4129 7.89819C44.4255 6.35972 43.1435 5.10286 41.5489 5.09026C39.9544 5.07882 38.6528 6.31508 38.6403 7.85354C38.6277 9.392 39.9097 10.65 41.5043 10.6615C41.5191 10.6615 41.534 10.6615 41.5489 10.6615C43.061 10.7404 44.3534 9.6198 44.4347 8.16032C44.4392 8.07332 44.4392 7.98518 44.4358 7.89819H44.4129ZM35.8369 7.89819C35.8369 4.97351 38.2305 2.74365 41.5489 2.74365C44.8674 2.74365 47.2621 4.98724 47.2621 7.89819C47.2621 10.808 44.8903 13.0596 41.5489 13.0596C38.2076 13.0596 35.8369 10.8149 35.8369 7.89819Z" fill="black"/>
<path d="M31.2902 8.43138C31.2902 9.63788 30.0173 10.6246 28.4045 10.6246C26.9221 10.77 25.5988 9.72717 25.4489 8.2963C25.434 8.15207 25.4317 8.0067 25.442 7.86132C25.442 6.26677 26.6542 5.17016 28.5178 5.17016C30.0334 5.17016 31.2902 6.17176 31.2902 7.305V8.43138ZM31.4036 2.73541V3.8904C30.4821 3.08225 29.2607 2.66901 28.0176 2.74342C25.078 2.7686 22.7177 5.09003 22.744 7.92657C22.7715 10.7631 25.1765 13.0422 28.116 13.0159C29.326 13.0685 30.5038 12.6312 31.3658 11.8094V12.7961C31.3658 14.1342 30.1696 15.1141 28.5934 15.1141C27.3903 15.1976 26.2044 14.7958 25.3207 14.0026L23.4789 15.7139C24.8594 17.0211 26.7355 17.724 28.6689 17.6587C31.8969 17.6587 34.1085 15.5674 34.1085 12.7823V2.73541H31.4036Z" fill="black"/>
<path d="M48.9287 3.03542H51.6405V3.89851H51.6783C52.5677 3.11555 53.7421 2.70575 54.944 2.75726C57.8962 2.86486 60.1993 5.26184 60.0883 8.10982C59.983 10.809 57.7405 12.9725 54.944 13.0743C53.7959 13.0995 52.6753 12.7355 51.7767 12.043V16.9274H48.9516L48.9287 3.03542ZM54.5045 5.17026C52.9889 5.17026 51.7549 6.18675 51.7549 7.29137V8.52649C51.7549 9.70323 52.974 10.6762 54.5194 10.6762C56.0956 10.7541 57.4383 9.58533 57.5196 8.06518C57.6009 6.54503 56.3898 5.24925 54.8136 5.17026C54.7163 5.16568 54.6178 5.16568 54.5194 5.17026H54.5045Z" fill="black"/>
<path d="M65.5129 6.95493C67.3696 6.7134 67.9225 6.45699 67.9225 5.96019C67.9225 5.31688 67.2185 4.92883 66.1265 4.92883C64.9509 4.83611 63.8806 5.58474 63.6036 6.69165L60.9376 6.15708C61.3165 4.16876 63.4376 2.75049 66.0509 2.75049C69.0065 2.75049 70.8392 4.21226 70.8392 6.58176V12.7894H68.3014V11.7077H68.2636C67.4028 12.6429 66.1402 13.1397 64.8467 13.0527C62.6112 13.0527 61.0578 11.8748 61.0578 10.128C61.0578 8.38007 62.3307 7.37846 65.5129 6.95493ZM68.1503 7.98515H68.1125C67.8618 8.33657 67.3547 8.54147 65.9525 8.77498C64.2938 9.07489 63.6803 9.38968 63.6803 9.95974C63.6803 10.5298 64.1725 10.808 65.2405 10.808C66.8694 10.808 68.1274 10.0765 68.1274 9.14815L68.1503 7.98515Z" fill="black"/>
<path d="M75.9537 12.2412L71.2788 3.03564H74.3935L77.4613 9.41156H77.5071L80.537 3.03564H83.6666L76.6657 16.9276H73.5522L75.9537 12.2412Z" fill="black"/>
</svg>
