<svg width="75" height="27" viewBox="0 0 75 27" fill="none" xmlns="http://www.w3.org/2000/svg">
<path fill-rule="evenodd" clip-rule="evenodd" d="M0.666504 0.333496H74.7406V26.6885H0.666504V0.333496Z" fill="white"/>
<path fill-rule="evenodd" clip-rule="evenodd" d="M3.95655 1.98291H71.4507C72.3999 1.98291 73.1758 2.77194 73.1758 3.73655V9.1478H64.7291C64.2847 4.24793 42.0416 3.20321 38.1974 3.17358C32.0004 3.12639 10.6583 4.58483 10.6583 9.05342V9.1478H2.23145V3.73655C2.23145 2.77194 3.0073 1.98291 3.95655 1.98291Z" fill="#FF0000"/>
<path fill-rule="evenodd" clip-rule="evenodd" d="M10.6517 17.16H2.23145V9.88428H10.6561C10.6496 12.1636 10.6188 14.9586 10.6517 17.16ZM73.1758 9.88428V17.16H64.7478C64.8147 14.8851 64.6655 12.1789 64.7192 9.88428H73.1758Z" fill="#0000FF"/>
<path fill-rule="evenodd" clip-rule="evenodd" d="M73.1758 17.895V23.2865C73.1758 24.25 72.3999 25.0391 71.4507 25.0391H3.95655C3.0073 25.0391 2.23145 24.25 2.23145 23.2865V17.895H10.7088C11.7491 22.2989 29.2317 24.0295 37.9779 24.0777C42.9052 24.1052 63.4144 22.5381 64.6731 17.895H73.1758Z" fill="#F9CD09"/>
<path fill-rule="evenodd" clip-rule="evenodd" d="M38.0932 4.45994C42.8976 4.50384 63.4737 6.59547 63.285 9.19081C63.1258 11.3702 63.4485 15.5963 63.285 17.7757C63.094 20.3008 42.7516 22.5099 37.9626 22.4693C32.8016 22.4254 12.1936 20.7178 12.1091 17.542C12.0509 15.3582 12.1091 11.616 12.1091 9.43114C12.1091 6.18944 32.852 4.41166 38.0932 4.45994ZM38.0712 6.44842C33.1231 6.41111 13.5368 7.60507 13.5368 10.1302C13.5368 11.8333 13.4841 15.1946 13.5368 16.8956C13.6158 19.435 33.0748 20.4468 37.9483 20.4808C42.4696 20.5115 61.6784 19.0454 61.8583 17.0778C62.0131 15.3801 61.708 11.706 61.8583 10.0073C62.0372 7.98477 42.6079 6.48354 38.0712 6.44842Z" fill="#E6252D"/>
<path fill-rule="evenodd" clip-rule="evenodd" d="M29.8923 13.7461C30.1447 13.8602 30.0964 14.4715 29.7847 15.109C29.4731 15.7455 29.0133 16.1713 28.7598 16.0572C28.5074 15.9442 28.5557 15.3318 28.8673 14.6942C29.179 14.0577 29.6399 13.632 29.8923 13.7461ZM47.0138 13.801C47.2662 13.9151 47.219 14.5274 46.9063 15.1639C46.5946 15.8004 46.1337 16.2262 45.8813 16.1132C45.6278 15.999 45.6761 15.3867 45.9888 14.7502C46.3005 14.1137 46.7603 13.6868 47.0138 13.801ZM55.4188 13.6221C55.5559 13.7263 55.4319 14.1269 55.14 14.5121C54.8492 14.8972 54.498 15.1266 54.3609 15.0224C54.2226 14.9181 54.3466 14.5175 54.6385 14.1324C54.9293 13.7472 55.2794 13.5178 55.4188 13.6221ZM55.5954 12.7968C54.6341 12.7244 53.991 13.3905 53.6541 14.049C53.3864 14.5713 53.3074 15.3219 53.4983 15.9486C53.2207 16.1724 52.875 16.3667 52.3252 16.4753C52.053 16.5302 51.9027 16.3239 51.9049 16.134C51.9115 15.5886 51.9707 15.131 52.1277 14.6196C52.1913 14.4078 52.4097 14.4802 52.4843 14.3014C52.6369 13.9304 52.6555 13.5716 52.1661 13.6298C51.8511 13.6682 51.5109 13.7154 51.4989 13.2896C51.4868 12.8748 51.9938 12.6531 51.9192 12.6169C51.6382 12.4819 51.4023 12.6158 51.1093 12.5115C51.027 12.4819 51.095 12.2953 51.0116 12.2679C50.8997 12.2306 50.7033 12.3491 50.6385 12.4479C50.4969 12.6651 50.509 12.8638 50.4037 13.1195C50.3159 13.3346 50.3071 13.5738 50.2577 13.801C50.1052 14.2476 49.1373 15.6325 48.4262 15.9935C48.0267 16.1966 47.7754 16.0177 47.8994 15.6007C48.064 15.0432 48.6127 13.6868 48.9694 12.7299C48.6204 12.7387 48.3109 12.7661 47.962 12.7738C47.9214 12.8956 47.861 12.9779 47.8215 13.0997C47.0402 12.5993 46.565 12.7913 45.855 13.3016C45.3271 13.6813 44.864 14.2553 44.6149 14.9433C44.5161 15.2166 44.4624 15.4931 44.4547 15.7521C44.0234 15.909 43.5943 16.1395 43.2092 16.0824C43.1159 16.0682 43.0511 15.9244 43.0731 15.8322C43.2015 15.2758 43.4736 14.7623 43.6426 14.2158C43.748 13.8723 43.9576 13.5211 43.8928 13.1689C43.805 12.6937 43.1982 12.6794 42.8679 12.8495C42.588 12.9955 42.374 13.2501 42.0942 13.396C42.0382 13.4256 41.9581 13.3927 41.912 13.351C41.7913 13.2424 41.7343 13.0745 41.6157 12.9636C41.5115 12.866 41.3919 12.765 41.2514 12.7365C41.0802 12.7014 40.8893 12.7145 40.7279 12.7815C40.3856 12.9241 40.1408 13.3137 39.7721 13.351C39.6119 13.3675 39.715 13.0196 39.613 12.8956C39.3661 12.5971 39.129 12.7014 38.8382 12.8265C38.2412 13.0865 37.6519 13.362 37.0583 13.6298C37.1175 13.7505 37.1669 13.8745 37.2075 14.004C37.4434 13.9228 37.6882 13.8185 37.9274 13.7603C38.0382 13.7329 38.1732 13.6769 38.2698 13.7373C38.3565 13.7922 38.3916 13.9348 38.3598 14.0336C38.036 15.0772 37.6015 16.0824 37.2218 17.1074C37.6168 17.0997 38.0108 17.092 38.4059 17.0844C38.7625 16.1658 39.0116 15.1979 39.4758 14.3299C39.5592 14.173 39.8028 14.1126 39.9762 14.1477C40.0958 14.1719 40.1375 14.3464 40.1584 14.466C40.1858 14.6163 40.1628 14.7765 40.1134 14.9214C39.8654 15.6544 39.5515 16.3634 39.2706 17.0844C39.7041 17.0767 40.1584 17.1151 40.5908 17.1074C41.0089 16.1505 41.1724 15.1705 41.6838 14.2619C41.7474 14.1477 42.0832 14.1115 42.2072 14.1477C42.2906 14.1719 42.385 14.2673 42.3674 14.3529C42.2566 14.8643 41.9735 15.3252 41.844 15.8322C41.7825 16.0682 41.7321 16.3272 41.7979 16.5609C41.8539 16.7584 42.002 16.9472 42.1853 17.0383C42.3411 17.1173 42.5474 17.0833 42.7087 17.0163C43.3211 16.7617 43.8895 16.4127 44.4755 16.1011C44.5787 16.7595 45.0517 17.2117 45.9526 17.0108C46.2676 16.9406 46.4399 16.7354 46.7307 16.5971C46.8788 17.069 47.2048 17.2621 47.7282 17.047C49.021 16.5159 49.7792 15.593 50.7351 14.2092C50.8898 14.2432 51.1938 14.1565 51.3474 14.1587C51.1828 14.6569 50.1633 16.4347 51.2289 16.9702C51.5263 17.1195 51.7546 17.0701 52.0827 17.0108C52.819 16.8769 53.2733 16.5642 53.6267 16.2712C53.8067 16.6245 54.0942 16.9055 54.5112 17.0328C55.3595 17.2929 56.3285 16.844 56.9343 16.5774C57.2569 17.1337 58.0898 17.2369 58.576 17.0602C59.0895 16.8726 59.5526 16.5455 59.9631 16.1845C60.0476 16.1088 60.0388 15.9178 59.9532 15.8432C59.8742 15.773 59.7403 15.8981 59.6547 15.9617C59.3002 16.2262 58.5902 16.8934 58.1908 16.3326C58.0119 16.0813 58.1315 15.6577 58.3082 15.1771C58.4816 14.7085 58.6473 14.1016 58.8174 13.632C59.0588 13.6122 59.331 13.6374 59.5724 13.6177C59.6766 13.3247 59.7216 13.0898 59.8259 12.7968C59.6624 12.7837 59.4396 12.8001 59.2761 12.787C59.4264 12.0012 59.7513 11.199 60.0267 10.4122C59.6558 10.4199 59.3452 10.4418 58.9732 10.4484C58.7131 11.2133 58.509 11.9639 58.1535 12.7288C57.9109 12.7365 57.653 12.7584 57.4105 12.765C57.3469 13.0514 57.2821 13.3379 57.2174 13.6232C57.4039 13.6166 57.664 13.6089 57.8495 13.6023C57.6135 14.5 57.3578 15.3088 56.8322 16.0045C56.6456 16.2514 56.3219 16.393 56.019 16.4555C55.0895 16.6454 54.7318 16.3447 54.5847 15.9233C54.9765 15.5941 55.3661 15.4394 55.7194 15.0684C56.289 14.4737 56.988 12.9033 55.5954 12.7968ZM23.3035 9.30273C21.8286 9.47283 19.6437 9.63415 18.3949 10.4561C17.6607 10.94 17.0023 11.8684 17.6607 12.8133C18.306 13.7362 19.4561 13.3455 19.9225 12.7321C19.3891 12.6619 18.9644 12.562 18.9304 12.1801C18.779 10.4451 20.3647 10.804 21.8857 10.3079C21.0956 12.1768 20.3845 15.5074 18.3729 15.9189C16.909 16.2174 16.2374 15.571 15.8961 14.6602C15.0851 16.2207 16.2451 16.9329 17.2854 17.0931C18.2478 17.2424 19.4802 16.6421 20.1606 15.9299C20.6412 15.616 21.1219 15.2594 21.5598 14.8534C21.6739 14.7469 23.2783 13.5189 23.1301 14.5351C22.9995 15.4295 22.644 16.0824 22.3784 16.9483C22.7735 16.9549 23.1674 16.9625 23.5625 16.9702C23.8511 16.1132 24.0629 15.2265 24.4273 14.3979C24.4909 14.2531 24.6588 14.1466 24.8146 14.1247C24.9595 14.1038 25.1713 14.1477 25.2251 14.2838C25.3183 14.5252 25.1845 14.8303 25.1164 15.0783C25.0056 15.4855 24.3921 16.8111 25.1899 16.9121C25.9735 17.0119 26.8536 16.4512 27.3178 16.0737C27.3825 16.4676 27.591 16.8111 28.0059 17.0086C28.2912 17.1447 28.6467 17.0569 28.954 16.9867C29.2042 16.9296 29.4105 16.7518 29.6377 16.6333C29.5971 17.2051 30.1425 17.1381 30.5079 16.9647C31.3343 16.5719 31.7952 16.2964 32.3592 16.1088C32.3011 16.0078 32.2495 15.9014 32.2045 15.7927C31.7985 15.8959 31.399 16.0923 30.9831 16.0605C30.8437 16.0495 30.8064 15.796 30.8503 15.6632C31.433 13.9151 32.1738 12.2229 32.8355 10.5033C32.4898 10.5252 32.2253 10.5252 31.8797 10.5472C31.6075 11.2824 31.2552 12.0396 30.9831 12.7749C29.6849 12.5368 28.4766 12.9 27.6316 14.5165C27.4506 14.8621 27.3233 15.266 27.2991 15.6544C27.005 15.8476 26.7318 16.0451 26.385 16.1318C26.2566 16.1647 26.1578 15.9628 26.1809 15.8322C26.2555 15.3977 26.407 14.9817 26.5529 14.5636C26.6528 14.2783 27.0237 13.4498 26.8865 13.1689C26.6495 12.6816 26.3027 12.6849 25.9504 12.8298C25.4983 13.0152 25.0374 13.4355 24.7916 13.351C24.4305 13.2259 24.5337 12.6684 23.9905 12.7321C23.8193 12.7518 23.6448 12.821 23.4945 12.8956C22.7208 13.2764 21.9856 13.824 21.2459 14.2937C21.9559 12.9285 22.6297 11.109 23.3035 9.30273Z" fill="#0000FF"/>
<path d="M34.667 12.1313H34.6681C35.4001 12.1313 36.0651 12.4298 36.5469 12.9116V12.9127C37.0275 13.3934 37.326 14.0573 37.326 14.7892V14.7903C37.326 15.5234 37.0275 16.1884 36.5458 16.6691C36.064 17.1508 35.4001 17.4493 34.6681 17.4493H34.667C33.9351 17.4493 33.2701 17.1508 32.7883 16.6691C32.3065 16.1873 32.0081 15.5234 32.0081 14.7914V14.7892C32.0081 14.0573 32.3065 13.3923 32.7883 12.9116C33.2701 12.4298 33.934 12.1313 34.6659 12.1313H34.667ZM34.6681 12.4551H34.6659C34.024 12.4551 33.4402 12.7174 33.0177 13.1409C32.5952 13.5634 32.3318 14.1473 32.3318 14.7892V14.7914C32.3329 15.4334 32.5952 16.0172 33.0177 16.4397C33.4402 16.8622 34.024 17.1256 34.667 17.1256H34.6681C35.3112 17.1245 35.8939 16.8633 36.3164 16.4397C36.74 16.0172 37.0023 15.4334 37.0023 14.7903V14.7892C37.0023 14.1473 36.74 13.5634 36.3175 13.1409H36.3164C35.8939 12.7174 35.3101 12.4551 34.6681 12.4551Z" fill="#FF0000"/>
<path fill-rule="evenodd" clip-rule="evenodd" d="M34.667 12.7788C35.7776 12.7788 36.6786 13.6798 36.6786 14.7903C36.6786 15.9009 35.7776 16.8019 34.667 16.8019C33.5565 16.8019 32.6555 15.9009 32.6555 14.7903C32.6555 13.6798 33.5565 12.7788 34.667 12.7788ZM34.667 13.1925C35.5493 13.1925 36.2648 13.908 36.2648 14.7903C36.2648 15.6726 35.5493 16.3881 34.667 16.3881C33.7847 16.3881 33.0703 15.6726 33.0703 14.7903C33.0703 13.908 33.7847 13.1925 34.667 13.1925Z" fill="#FF0000"/>
<path fill-rule="evenodd" clip-rule="evenodd" d="M34.6671 13.5845C35.3332 13.5845 35.8731 14.1244 35.8731 14.7905C35.8731 15.4566 35.3332 15.9965 34.6671 15.9965C34.001 15.9965 33.4611 15.4566 33.4611 14.7905C33.4611 14.1244 34.001 13.5845 34.6671 13.5845Z" fill="#FF0000"/>
</svg>
