<svg width="46" height="46" viewBox="0 0 46 46" fill="none" xmlns="http://www.w3.org/2000/svg">
<mask id="mask0_123_1802" style="mask-type:luminance" maskUnits="userSpaceOnUse" x="0" y="0" width="46" height="46">
<path d="M0.77771 0.777832H45.2222V45.069H0.77771V0.777832Z" fill="#E82529"/>
</mask>
<g mask="url(#mask0_123_1802)">
<path fill-rule="evenodd" clip-rule="evenodd" d="M41.0493 45.069H4.95063C2.65561 45.069 0.77771 43.1978 0.77771 40.9105V4.93637C0.77771 2.64926 2.65561 0.777832 4.95063 0.777832H41.0493C43.3444 0.777832 45.2222 2.64926 45.2222 4.93637V40.9105C45.2222 43.1978 43.3444 45.069 41.0493 45.069Z" fill="#E82529"/>
</g>
<path fill-rule="evenodd" clip-rule="evenodd" d="M10.3668 9.11816H12.4724C12.6328 9.11816 12.7559 9.2598 12.7331 9.41789L11.7552 16.1783C11.7175 16.4385 11.9201 16.6715 12.1839 16.6715H15.8778C15.9827 16.6715 16.0631 16.7644 16.0478 16.8678L15.7613 18.8095C15.7465 18.9103 15.6596 18.9852 15.5571 18.9852H11.3803C10.1379 18.9852 8.94641 17.9698 9.12172 16.744L10.1058 9.34608C10.1231 9.21566 10.2347 9.11816 10.3668 9.11816Z" fill="#FEFEFE"/>
<path fill-rule="evenodd" clip-rule="evenodd" d="M17.3883 11.8155L16.4244 18.71C16.4091 18.8194 16.4943 18.917 16.6051 18.917H18.6427C18.7876 18.917 18.9105 18.8106 18.9305 18.6676L19.885 11.8851C19.9053 11.7289 19.7833 11.5903 19.6251 11.5903H17.6478C17.517 11.5903 17.4063 11.6864 17.3883 11.8155Z" fill="#FEFEFE"/>
<path fill-rule="evenodd" clip-rule="evenodd" d="M21.5912 18.3887C20.9625 18.3661 20.6683 18.5625 20.2974 18.783C20.3869 18.1614 21.0889 13.3173 21.1529 13.0197C21.2207 12.7025 21.2822 12.1732 21.5622 11.9062C21.8902 11.5928 22.3981 11.4135 24.9249 11.4053C27.5042 11.397 28.0039 13.2469 27.867 14.4489C27.7503 15.4777 27.3665 18.0196 27.2582 18.7298C27.2417 18.8378 27.1491 18.9173 27.04 18.9173H25.0476C24.9016 18.9173 24.7894 18.789 24.8098 18.6451C24.9106 17.9349 25.1808 16.0416 25.2724 15.4919C25.3862 14.8118 25.4772 14.0635 25.2951 13.7681C25.113 13.4733 24.5667 13.2469 23.52 13.4284L22.7458 18.8836C22.7458 18.8836 22.2476 18.4124 21.5912 18.3887Z" fill="#FEFEFE"/>
<path fill-rule="evenodd" clip-rule="evenodd" d="M30.0279 8.72607H32.238C32.3203 8.72607 32.3835 8.79851 32.3723 8.87971L30.997 18.8081C30.9868 18.8818 30.9235 18.9367 30.8488 18.9367H28.6668C28.576 18.9367 28.5063 18.8569 28.5188 18.7674L29.8936 8.8428C29.9029 8.7759 29.9601 8.72607 30.0279 8.72607Z" fill="#FEFEFE"/>
<path fill-rule="evenodd" clip-rule="evenodd" d="M31.7383 14.7082L34.2361 11.7931C34.3148 11.7013 34.4299 11.6484 34.5512 11.6484H36.7439C36.9022 11.6484 36.9856 11.8353 36.8797 11.9523L34.3257 14.7769L36.6604 19.7808C36.7461 19.9644 36.6115 20.1745 36.4084 20.1745H34.4265C34.323 20.1745 34.229 20.1144 34.1858 20.0207L31.7383 14.7082Z" fill="#FEFEFE"/>
<path fill-rule="evenodd" clip-rule="evenodd" d="M20.3118 9.72354C20.1331 10.4748 19.4542 11.0338 18.7434 11.0338C18.0328 11.0338 17.4877 10.4248 17.6666 9.67372C17.8453 8.92247 18.4337 8.31348 19.2771 8.31348C19.9877 8.31348 20.4905 8.9723 20.3118 9.72354Z" fill="#FEFEFE"/>
<path fill-rule="evenodd" clip-rule="evenodd" d="M22.5584 20.6747C22.3797 21.426 21.7008 21.985 20.99 21.985C20.2794 21.985 19.7343 21.376 19.9132 20.6249C20.0919 19.8736 20.6803 19.2646 21.5237 19.2646C22.2343 19.2646 22.7371 19.9235 22.5584 20.6747Z" fill="#FEFEFE"/>
<path fill-rule="evenodd" clip-rule="evenodd" d="M33.2493 29.6519C33.0987 30.3942 32.4128 30.9465 31.6656 30.946C30.9182 30.9457 30.315 30.3435 30.4656 29.6013C30.6162 28.859 31.2046 28.2574 32.0913 28.2578C32.8386 28.2583 33.4 28.9096 33.2493 29.6519Z" fill="#FEFEFE"/>
<path fill-rule="evenodd" clip-rule="evenodd" d="M14.4366 25.9541H13.0985C13.0488 25.9541 13.0147 25.9043 13.0329 25.8581L14.1974 22.9125C14.2196 22.8564 14.3026 22.8684 14.308 22.9284L14.5697 25.8088C14.5768 25.8867 14.5153 25.9541 14.4366 25.9541ZM17.6782 29.6531L16.185 20.7464C16.1197 20.3571 15.7815 20.0718 15.3853 20.0718H13.887C13.4301 20.0718 13.0153 20.3377 12.8261 20.7521L8.8038 29.6642C8.74546 29.7935 8.84083 29.9395 8.98296 29.9387L11.0729 29.9266C11.2159 29.9258 11.3446 29.8403 11.4005 29.7093L12.0953 28.0805C12.1141 28.0361 12.1577 28.0073 12.2062 28.0073H14.7355C14.7975 28.0073 14.8495 28.0542 14.8555 28.1157L15.0065 29.657C15.0239 29.8363 15.1753 29.9732 15.3562 29.9732H17.4061C17.5766 29.9732 17.7063 29.8206 17.6782 29.6531Z" fill="#FEFEFE"/>
<path fill-rule="evenodd" clip-rule="evenodd" d="M16.6813 31.267L17.164 32.7531C17.2507 32.9976 17.3161 33.0519 17.4857 33.0162C18.0954 32.8881 19.5687 32.4543 20.2895 31.4825C21.2292 30.2156 21.358 27.9758 21.5239 26.8375C21.6605 25.8999 21.9596 23.5919 22.0608 22.8074C22.079 22.6662 21.9687 22.5415 21.8258 22.5415H19.9522C19.7866 22.5415 19.6467 22.6633 19.6244 22.8268C19.4734 23.9348 18.9292 27.9193 18.8342 28.4715C18.7237 29.1142 18.7016 30.0398 17.7476 30.5924C17.2715 30.868 17.0274 30.9205 16.839 31.0082C16.7432 31.0528 16.6348 31.1006 16.6813 31.267Z" fill="#FEFEFE"/>
<path fill-rule="evenodd" clip-rule="evenodd" d="M26.992 27.8362C26.992 27.8362 26.015 28.1673 25.546 27.8167C25.0769 27.4662 25.0379 26.7457 25.3115 25.7137C25.5851 24.6815 26.269 24.5063 26.5621 24.4868C26.8553 24.4672 27.4063 24.6055 27.4063 24.6055L26.992 27.8362ZM29.6973 22.8082C29.0656 22.6507 28.0034 22.3047 26.2959 22.4294C24.7204 22.5444 22.9414 23.2706 22.6083 26.3699C22.2751 29.4691 23.6968 30.0669 25.7405 30.1555C27.2381 30.2204 28.4136 29.8098 28.9349 29.5857C29.1163 29.5077 29.2427 29.3406 29.2693 29.1454L30.0243 23.1784C30.054 22.9415 29.9352 22.8674 29.6973 22.8082Z" fill="#FEFEFE"/>
<path fill-rule="evenodd" clip-rule="evenodd" d="M31.1547 27.2697L31.7045 21.5558C31.7243 21.3511 31.8967 21.2676 32.103 21.2676H33.9997C34.1764 21.2676 34.2512 21.4012 34.2025 21.6201L33.0448 27.3417C33.0213 27.4524 32.9235 27.5316 32.8099 27.5316H31.3934C31.2519 27.5316 31.1411 27.4101 31.1547 27.2697Z" fill="#FEFEFE"/>
<path fill-rule="evenodd" clip-rule="evenodd" d="M8.95912 37.8057C9.33473 38.0126 9.77346 38.0727 10.191 37.9741C11.8544 37.5813 15.5356 36.5241 23.3223 35.4023C33.1052 33.993 40.3282 33.9989 40.3282 33.9989L40.3472 33.9874C40.3472 33.9874 33.9451 33.1108 23.438 34.1335C12.9308 35.1561 7.06641 36.7634 7.06641 36.7634L8.95912 37.8057Z" fill="#FEFEFE"/>
</svg>
