<svg width="76" height="23" viewBox="0 0 76 23" fill="none" xmlns="http://www.w3.org/2000/svg">
<path d="M0.526514 15.7842C0.526514 14.6927 0.50744 13.7789 0.448486 12.9613H2.51274L2.61071 14.3641H2.66793C3.13522 13.6237 3.99179 12.7463 5.58875 12.7463C6.83545 12.7463 7.80819 13.4486 8.2174 14.4993H8.25728C8.58846 13.9739 8.97686 13.5838 9.42422 13.3124C9.95047 12.9414 10.5556 12.7463 11.3333 12.7463C12.9112 12.7463 14.5064 13.817 14.5064 16.8566V22.4434H12.1699V17.2051C12.1699 15.629 11.6246 14.6927 10.4759 14.6927C9.6583 14.6927 9.05402 15.2787 8.80174 15.9602C8.73153 16.2202 8.69225 16.4877 8.6847 16.7569V22.4442H6.34821V16.9511C6.34821 15.6299 5.82283 14.6935 4.71224 14.6935C3.8184 14.6935 3.21499 15.3958 2.99824 16.0564C2.90201 16.2905 2.86213 16.5644 2.86213 16.8349V22.4442H0.526514V15.7842ZM23.6104 20.1667C23.6104 21.0224 23.6495 21.859 23.7457 22.4442H21.5843L21.4291 21.3935H21.3702C20.7859 22.1339 19.7923 22.6575 18.5681 22.6575C16.6591 22.6575 15.5884 21.2764 15.5884 19.8347C15.5884 17.4375 17.709 16.2324 21.2159 16.2515V16.0963C21.2159 15.4721 20.9618 14.4404 19.2869 14.4404C18.3514 14.4404 17.3787 14.7334 16.7362 15.1409L16.2689 13.5829C16.9703 13.1538 18.1971 12.7454 19.6952 12.7454C22.7339 12.7454 23.6113 14.6753 23.6113 16.737L23.6104 20.1667ZM21.2731 17.8111C19.5782 17.7713 17.963 18.1415 17.963 19.5824C17.963 20.517 18.5681 20.9461 19.3267 20.9461C20.2795 20.9461 20.9818 20.321 21.1959 19.6405C21.2484 19.4703 21.2747 19.2931 21.274 19.1151L21.2731 17.8111ZM25.2646 15.7842C25.2646 14.6927 25.2447 13.7789 25.1883 12.9613H27.289L27.4052 14.3849H27.4641C27.8725 13.6436 28.905 12.7463 30.482 12.7463C32.138 12.7463 33.8502 13.817 33.8502 16.8176V22.4434H31.4556V17.0898C31.4556 15.727 30.9485 14.6918 29.6446 14.6918C28.6918 14.6918 28.0276 15.3741 27.7754 16.0954C27.6973 16.3087 27.6783 16.6017 27.6783 16.8722V22.4425H25.2638L25.2646 15.7842ZM44.2348 9.15186V19.7766C44.2348 20.7502 44.2747 21.8035 44.3128 22.4442H42.1723L42.0743 20.9461H42.0344C41.4709 21.9969 40.3204 22.6584 38.9393 22.6584C36.68 22.6584 34.8897 20.7311 34.8897 17.812C34.8689 14.6372 36.8543 12.7472 39.1344 12.7472C40.4383 12.7472 41.3729 13.2925 41.8012 13.9965H41.8419V9.15272H44.2356L44.2348 9.15186ZM41.8411 16.9138C41.8411 16.7205 41.822 16.4864 41.7821 16.2905C41.568 15.3576 40.8102 14.5973 39.7187 14.5973C38.1807 14.5973 37.3224 15.961 37.3224 17.7323C37.3224 19.4636 38.1799 20.7302 39.6997 20.7302C40.6715 20.7302 41.529 20.067 41.7622 19.0353C41.8211 18.822 41.8419 18.5871 41.8419 18.3348L41.8411 16.9138ZM45.9288 22.4442V12.9613H48.3451V22.4442H45.9288ZM50.0374 16.0191C50.0374 14.7343 50.0192 13.8179 49.9611 12.9622H52.0444L52.1207 14.7716H52.1996C52.6669 13.4286 53.7758 12.9622 54.791 12.9622C55.0242 12.9622 55.1595 12.9223 55.3537 12.9622V15.0663C55.1239 15.0155 54.8893 14.9893 54.654 14.9883C53.5027 14.9883 52.7241 15.7287 52.5109 16.7977C52.4637 17.0423 52.4379 17.2906 52.4337 17.5398V22.4451H50.0374V16.0191ZM56.4651 22.4442V12.9613H58.8779V22.4442H56.4651Z" fill="white"/>
<path d="M73.9077 2.932C72.7122 1.56826 71.4412 2.18554 70.4312 2.68751C70.0063 2.89732 66.9399 4.63559 66.9399 4.63559C65.2597 5.3283 63.9514 4.57231 63.4382 3.93595C63.3891 3.8756 63.3447 3.81154 63.3055 3.74435L63.1859 3.53714C62.9837 3.18741 62.7589 2.85118 62.5131 2.53059C62.3639 2.33627 62.2023 2.1518 62.0294 1.97833C60.8797 0.817461 59.0426 0.00511086 55.9718 1.48069C54.5179 2.32339 49.7817 5.0292 49.7817 5.0292C48.0018 5.76179 46.6406 4.86968 46.1985 4.21511C46.1786 4.19061 46.1612 4.16418 46.1465 4.13622L46.0884 4.03738L45.7884 3.54668C45.653 3.33173 45.5078 3.12314 45.3532 2.9216C45.2025 2.72851 45.0407 2.5444 44.8686 2.3702C43.7268 1.21627 41.8992 0.405651 38.8553 1.85349C37.0147 2.90426 32.7336 5.35171 32.7336 5.35171L32.7319 5.35345L29.5986 7.14374L31.2199 9.1343C31.9022 9.78453 33.1844 10.8509 35.168 9.95185C35.168 9.95185 40.643 6.78134 40.6646 6.77181C45.3454 4.20298 47.655 6.65737 48.6763 8.29334C48.7118 8.34449 48.7404 8.39997 48.7725 8.44939L48.7743 8.45199C48.7873 8.47193 48.7951 8.49014 48.8063 8.50921L48.9216 8.69821C49.4193 9.45248 50.2039 9.93971 51.1394 9.91717C51.6552 9.90677 52.0055 9.73858 52.5152 9.45508L57.8124 6.38254L57.8237 6.37734C62.5634 3.77729 64.912 6.39207 65.9151 8.02805C65.9931 8.16936 66.0816 8.30461 66.1726 8.43032C66.6694 9.10395 67.3543 9.54524 68.2247 9.52357C68.7995 9.5123 69.4437 9.16724 69.5399 9.10396L75.8905 5.43841C75.8922 5.44014 75.2437 4.4596 73.9077 2.932Z" fill="#FDD213"/>
</svg>
