<svg width="90" height="23" viewBox="0 0 90 23" fill="none" xmlns="http://www.w3.org/2000/svg">
<path d="M47.0722 21.8659C47.0791 21.7264 47.0877 21.5033 47.0946 21.1993V15.3434L47.0757 14.7758C47.0705 14.6552 47.0653 14.5734 47.0593 14.5294C47.0524 14.4838 47.0429 14.445 47.03 14.4089C46.9852 14.265 46.8888 14.1625 46.7423 14.1014C46.608 14.0445 46.4082 14.017 46.1498 14.0152V13.8163L49.4933 13.8154C49.9799 13.8172 50.4183 13.8482 50.8102 13.9119C51.2021 13.9739 51.5174 14.0609 51.7594 14.1711C52.4579 14.5027 52.8033 15.0609 52.799 15.8541C52.8076 16.9893 52.0617 17.7136 50.5165 17.9005L50.2573 17.9419C50.6052 17.9548 51.0747 18.0702 51.2934 18.121C51.5105 18.171 51.7223 18.2502 51.9316 18.3587C52.7507 18.7713 53.1547 19.4293 53.1469 20.3414C53.1512 21.4473 52.6121 22.1657 51.5174 22.5059C51.2779 22.5739 50.9782 22.6273 50.6156 22.6669C50.2513 22.7066 49.8576 22.7264 49.4313 22.7272H46.1498V22.5274C46.5365 22.5222 46.8018 22.4637 46.9198 22.325C46.968 22.2785 47.0033 22.2268 47.0266 22.1674C47.0498 22.1071 47.0645 22.0037 47.0722 21.8659ZM48.1015 14.0902V17.8058H49.4063C50.9231 17.7963 51.7094 17.1667 51.7172 15.9041C51.7284 14.6793 50.9007 14.0807 49.2944 14.0902H48.1015ZM51.979 20.2407C51.9695 19.3759 51.6569 18.7627 51.0324 18.4199C50.843 18.3243 50.6018 18.2494 50.3124 18.196C50.0239 18.1434 49.7052 18.1176 49.3564 18.1167H48.1015V22.4533H49.3564C50.2659 22.4576 50.93 22.288 51.3399 21.9323C51.5466 21.7609 51.7043 21.53 51.8136 21.2389C51.923 20.9487 51.9773 20.6145 51.979 20.2407Z" fill="black"/>
<mask id="mask0_123_1542" style="mask-type:luminance" maskUnits="userSpaceOnUse" x="53" y="13" width="20" height="10">
<path d="M53.5793 13.5083H72.9826V22.9188H53.5793V13.5083Z" fill="white"/>
</mask>
<g mask="url(#mask0_123_1542)">
<path d="M57.9324 22.4734C57.8652 22.3391 57.817 22.1797 57.7972 21.7706L57.7903 21.6509L57.7102 21.7422C57.6146 21.8481 57.5207 21.9429 57.4294 22.023C57.3372 22.1031 57.2296 22.1849 57.1098 22.2676C56.8463 22.4622 56.5913 22.5992 56.3476 22.6784C56.1039 22.7576 55.8291 22.7955 55.5233 22.793C54.9893 22.7955 54.5802 22.6689 54.2874 22.42C54.1246 22.2736 53.9954 22.0884 53.9015 21.8636C53.8076 21.6397 53.7594 21.3994 53.7577 21.1401C53.7637 20.1867 54.3485 19.5717 55.5466 19.2987C55.8627 19.2255 56.1977 19.1652 56.55 19.1187C56.9023 19.0713 57.3036 19.0317 57.7506 19.0015L57.7972 18.1704C57.7972 17.8862 57.7834 17.6553 57.7558 17.4796C57.7283 17.3022 57.6817 17.1472 57.6171 17.0171C57.4397 16.6709 57.0771 16.5047 56.5543 16.5047C55.7145 16.5004 55.2598 16.9 55.2124 17.6941C55.2081 17.8216 55.196 17.9103 55.1788 17.9637C55.1625 18.0145 55.1358 18.0515 55.097 18.0791C55.0135 18.1359 54.88 18.1678 54.6896 18.1704C54.2779 18.1756 54.1237 18.0541 54.1306 17.8474C54.1332 17.6321 54.2047 17.4237 54.3477 17.223C54.4924 17.0214 54.6922 16.8457 54.9506 16.6967C55.4157 16.4392 56.0108 16.3074 56.7412 16.3048C57.5396 16.3074 58.0754 16.4883 58.3682 16.8345C58.487 16.9801 58.5749 17.1601 58.6309 17.378C58.6886 17.5951 58.7179 17.8715 58.717 18.2066L58.7162 18.2772L58.7093 18.6028L58.692 19.4615L58.68 20.6423L58.6671 21.2142C58.6688 21.4829 58.68 21.6879 58.6989 21.9179C58.717 22.141 58.7963 22.3907 58.9754 22.4562C59.1614 22.526 59.3415 22.5535 59.6834 22.5552C59.934 22.5509 60.127 22.5216 60.2579 22.4657C60.4077 22.4028 60.4999 22.2676 60.5395 22.0764C60.5774 21.8903 60.5938 21.6061 60.5903 21.2254V17.8931C60.5989 17.4392 60.5464 17.1205 60.4172 16.9534C60.2906 16.7906 60.0555 16.7208 59.7325 16.7243V16.5469L61.511 16.4177V17.8336L61.6032 17.6683C61.8659 17.2006 62.1648 16.8681 62.4972 16.67C62.8297 16.4711 63.2457 16.3712 63.747 16.3772C64.5015 16.366 65.026 16.6183 65.3335 17.1239C65.4463 17.2936 65.5281 17.4969 65.5772 17.7354C65.6254 17.974 65.6504 18.2789 65.6487 18.651V21.2254C65.6444 21.6095 65.6599 21.8955 65.6978 22.0815C65.7357 22.2736 65.8261 22.4071 65.976 22.4682C66.1 22.5208 66.3894 22.5475 66.6349 22.5544C66.8666 22.5475 67.044 22.5182 67.1663 22.4657C67.3119 22.4019 67.4006 22.2667 67.4376 22.0764C67.4738 21.8895 67.4901 21.6061 67.485 21.2254V15.1714C67.4901 14.8243 67.4755 14.5676 67.4402 14.4014C67.404 14.2274 67.3153 14.1094 67.1689 14.0577C67.0423 14.0129 66.8519 13.9923 66.603 13.9905V13.814L68.4513 13.7192C68.429 14.1301 68.4109 14.5495 68.3988 14.9793C68.3868 15.4272 68.3807 15.8182 68.3807 16.1524V20.2203L70.4177 17.9878C70.7054 17.6691 70.8638 17.4013 70.8656 17.1859C70.8802 16.8871 70.5787 16.7519 70.0826 16.7269V16.5503H72.7302V16.7295C72.5709 16.7484 72.4331 16.7777 72.3151 16.8173C72.1868 16.8612 72.0559 16.9241 71.9215 17.0051C71.7863 17.0869 71.6717 17.1627 71.5796 17.2316C71.4857 17.3014 71.3746 17.4021 71.248 17.5313C71.1205 17.6605 70.9353 17.8569 70.6924 18.1204L70.0206 18.8439L71.7802 21.613C71.9818 21.9411 72.1661 22.1728 72.3358 22.3037C72.4986 22.4304 72.7053 22.5113 72.9542 22.5492V22.7301H71.3444C71.2996 22.6405 71.2394 22.5242 71.161 22.3813L70.9052 21.9136L70.7088 21.5613L69.4074 19.4391L68.3833 20.5846L68.3807 21.2254C68.3756 21.6061 68.3919 21.8903 68.429 22.0764C68.466 22.2676 68.5556 22.4019 68.7037 22.4657C68.8329 22.5216 69.025 22.5509 69.2747 22.5552V22.7301H63.834V22.5552C64.2026 22.5449 64.4558 22.4846 64.5574 22.3494C64.5979 22.2977 64.6289 22.2383 64.6505 22.172C64.672 22.1056 64.6849 22.0187 64.6918 21.9136C64.6987 21.83 64.7064 21.7095 64.7142 21.5518C64.7237 21.3934 64.728 21.2848 64.7288 21.2263V18.7259C64.7314 18.1092 64.6651 17.6528 64.5256 17.3625C64.3128 16.906 63.9304 16.6769 63.3869 16.6752C62.7815 16.6735 62.2991 16.9611 61.9408 17.5313C61.8056 17.7466 61.7014 17.9921 61.6256 18.2651C61.5507 18.539 61.511 18.8086 61.511 19.073V21.2254C61.5059 21.6095 61.5222 21.8955 61.5584 22.0815C61.5972 22.2736 61.6876 22.4071 61.8375 22.4682C61.9684 22.5234 62.163 22.5509 62.418 22.5552V22.7301H59.742C59.5042 22.7387 59.0521 22.7499 58.8281 22.7473C58.593 22.7439 58.4802 22.7189 58.2657 22.7025C58.0754 22.6474 57.9953 22.5974 57.9324 22.4734ZM54.7775 21.1022C54.7818 21.5088 54.88 21.8378 55.0772 22.0858C55.2744 22.3356 55.5414 22.4639 55.8704 22.4691C56.2029 22.4648 56.5181 22.3778 56.8118 22.2107C57.1055 22.0419 57.3372 21.8163 57.5043 21.5372C57.6068 21.3598 57.6809 21.1307 57.7274 20.8525C57.7739 20.5777 57.7972 20.2341 57.7972 19.8224V19.1841C57.2011 19.2367 56.7739 19.2927 56.4647 19.3581C56.1529 19.4244 55.8773 19.5183 55.637 19.6423C55.0677 19.9249 54.7818 20.4149 54.7775 21.1022Z" fill="black"/>
</g>
<path d="M2.42368 18.9764V21.1925C2.41937 21.5482 2.43918 21.8126 2.48483 21.9849C2.53048 22.1571 2.62867 22.2717 2.78111 22.3268C2.9327 22.3828 3.16697 22.4146 3.48135 22.4198V22.7299H0V22.4198C0.296285 22.4146 0.515914 22.3828 0.658889 22.3268C0.801003 22.2717 0.893161 22.1571 0.935364 21.9849C0.976706 21.8126 0.995655 21.5482 0.991348 21.1925V15.365C0.995655 15.0093 0.977568 14.7448 0.937087 14.5726C0.896606 14.3995 0.807893 14.284 0.671808 14.2272C0.535724 14.1695 0.32643 14.1359 0.043926 14.1256V13.8155H3.3599C4.47786 13.8112 5.29695 14.0084 5.81717 14.4072C6.33739 14.8068 6.59406 15.4347 6.58803 16.2952C6.59234 17.5018 6.12207 18.2925 5.17809 18.6663C4.93176 18.7619 4.61825 18.8377 4.2367 18.892C3.85429 18.9471 3.43053 18.9755 2.96371 18.9764H2.42368ZM2.42368 18.631H2.9973C3.68547 18.6275 4.19191 18.4656 4.51748 18.1418C4.69405 17.9549 4.82755 17.7085 4.91971 17.4054C5.01014 17.1022 5.05665 16.756 5.05665 16.3658C5.05321 14.8981 4.41068 14.1635 3.12908 14.1609H2.42368" fill="black"/>
<mask id="mask1_123_1542" style="mask-type:luminance" maskUnits="userSpaceOnUse" x="6" y="16" width="7" height="7">
<path d="M6.39429 16.1538H12.3475V22.9184H6.39429V16.1538Z" fill="white"/>
</mask>
<g mask="url(#mask1_123_1542)">
<path d="M12.1934 19.35H8.14277C8.14708 19.7823 8.17205 20.1449 8.21856 20.4378C8.26421 20.7298 8.33914 20.9968 8.44078 21.2388C8.77668 22.0234 9.2969 22.4153 10.0006 22.4153C10.3985 22.4127 10.7594 22.2956 11.0841 22.063C11.4071 21.8305 11.6775 21.4963 11.8911 21.0614L12.1788 21.2508C11.8963 21.8124 11.5518 22.225 11.1452 22.4877C10.7378 22.7504 10.2417 22.8813 9.65606 22.8787C8.73362 22.8666 7.8861 22.5721 7.35469 21.995C6.82327 21.4179 6.55282 20.6264 6.54163 19.623C6.55282 18.6118 6.81466 17.8126 7.32799 17.2234C7.84046 16.6343 8.65868 16.3337 9.54151 16.3208C10.128 16.3217 10.6948 16.456 11.097 16.7222C11.4992 16.9874 11.7955 17.3767 11.9867 17.8892C12.0496 18.0589 12.097 18.2527 12.1288 18.4723C12.1607 18.6919 12.1831 18.9839 12.1934 19.35ZM8.15397 19.0063H10.6879C10.6776 18.6394 10.6586 18.344 10.6293 18.1209C10.6009 17.8961 10.5544 17.6971 10.4932 17.5206C10.2788 16.897 9.95062 16.5878 9.50706 16.5938C9.01009 16.5981 8.63887 16.9461 8.39513 17.6394C8.33225 17.8186 8.2823 18.0158 8.2444 18.2294C8.20651 18.443 8.1755 18.7014 8.15397 19.0063Z" fill="black"/>
</g>
<path d="M12.4525 16.4907L14.6988 16.3356C14.7108 16.5596 14.7203 16.7482 14.7263 16.8998C14.7324 17.0531 14.735 17.1875 14.735 17.3037V17.662C15.2233 16.7697 15.8133 16.3193 16.5041 16.3115C16.8029 16.3176 17.0449 16.4054 17.231 16.5725C17.4179 16.7413 17.5143 16.9575 17.5195 17.2202C17.5152 17.439 17.4351 17.6138 17.2775 17.7464C17.1207 17.8774 16.9149 17.9463 16.6591 17.9488C16.3525 17.9583 16.1656 17.8317 16.0975 17.5664C16.0536 17.4028 16.0079 17.2917 15.9597 17.2322C15.9123 17.1728 15.8434 17.1453 15.7504 17.1478H15.7272C15.492 17.1685 15.269 17.3554 15.0571 17.7111C14.9623 17.8877 14.8908 18.0823 14.8426 18.2968C14.7952 18.5113 14.7711 18.7585 14.7711 19.0375V21.2485C14.766 21.6016 14.784 21.8608 14.8228 22.0288C14.8607 22.1959 14.9494 22.3053 15.0855 22.3569C15.2233 22.4078 15.4369 22.437 15.7272 22.4439V22.7299H12.4043V22.4439C12.6756 22.4448 12.8763 22.4181 13.0063 22.3647C13.1373 22.3104 13.2217 22.1985 13.2604 22.0288C13.2992 21.8574 13.3164 21.5973 13.313 21.2485V17.9368C13.3242 17.4441 13.2751 17.1246 13.1648 16.9764C13.0554 16.8292 12.8177 16.762 12.4525 16.7783" fill="black"/>
<path d="M20.1888 16.3358L20.2008 17.5193C20.6849 16.7226 21.3782 16.3203 22.2808 16.3126C23.199 16.3066 23.7648 16.7243 23.9776 17.5675C24.2368 17.1325 24.534 16.8147 24.8664 16.6132C25.1989 16.4099 25.5882 16.3091 26.0335 16.3126C26.7363 16.316 27.2548 16.5477 27.5873 17.0051C27.7165 17.179 27.8103 17.3909 27.8646 17.6416C27.9206 17.8931 27.9473 18.2186 27.9456 18.6191V21.2487C27.9412 21.5975 27.9593 21.8576 27.9981 22.0281C28.0369 22.1987 28.1221 22.3106 28.2522 22.3649C28.3831 22.4183 28.5838 22.445 28.8542 22.4433V22.7301H25.6149V22.4433C25.8741 22.445 26.0662 22.4183 26.192 22.3649C26.3177 22.3106 26.3995 22.1987 26.4366 22.0281C26.4745 21.8576 26.4917 21.5975 26.4882 21.2487V18.6312C26.4908 18.0024 26.4133 17.5494 26.2566 17.2712C26.0989 16.9921 25.8457 16.8569 25.4952 16.8621C25.0749 16.8535 24.72 17.0731 24.4323 17.5193C24.1834 17.8913 24.0594 18.2944 24.0611 18.7268V21.2487C24.0577 21.5975 24.0749 21.8576 24.1128 22.0281C24.1507 22.1987 24.2334 22.3106 24.3609 22.3649C24.4883 22.4183 24.683 22.445 24.9457 22.4433V22.7301H21.7425V22.4433C22.0018 22.445 22.1938 22.4183 22.3196 22.3649C22.4453 22.3106 22.5263 22.1987 22.5642 22.0281C22.6021 21.8576 22.6193 21.5975 22.615 21.2487V18.6191C22.621 17.4357 22.2989 16.85 21.6469 16.8621C21.2421 16.8767 20.9019 17.0688 20.628 17.4383C20.3541 17.8087 20.212 18.2694 20.2008 18.8224V21.2487C20.1974 21.6018 20.2146 21.8636 20.2525 22.0333C20.2895 22.2038 20.3713 22.3149 20.4971 22.3675C20.622 22.4192 20.8141 22.445 21.0742 22.4433V22.7301H17.8348V22.4433C18.1053 22.445 18.306 22.4192 18.4369 22.3675C18.5669 22.3149 18.6522 22.2038 18.691 22.0333C18.7297 21.8636 18.7469 21.6018 18.7426 21.2487V17.9258C18.7556 17.4392 18.7065 17.1248 18.5962 16.9809C18.4868 16.8354 18.2405 16.7691 17.859 16.7785V16.4909" fill="black"/>
<mask id="mask2_123_1542" style="mask-type:luminance" maskUnits="userSpaceOnUse" x="35" y="14" width="5" height="9">
<path d="M35.0581 14.3901H39.2474V22.9187H35.0581V14.3901Z" fill="white"/>
</mask>
<g mask="url(#mask2_123_1542)">
<path d="M37.3517 16.8825V20.8746C37.3509 21.1347 37.3603 21.3492 37.3802 21.5197C37.3991 21.6903 37.4292 21.8332 37.4706 21.9504C37.5214 22.0839 37.5998 22.1898 37.7049 22.2708C37.8108 22.35 37.9288 22.3905 38.0563 22.3922C38.3121 22.3888 38.5903 22.2647 38.8934 22.0227L39.0605 22.3207C38.5808 22.7238 38.0347 22.9219 37.4232 22.9185C36.7635 22.909 36.3139 22.6885 36.0727 22.2613C36.0253 22.1666 35.9883 22.0589 35.9625 21.9366C35.9366 21.8152 35.9177 21.6524 35.9082 21.4448C35.8979 21.2389 35.8927 20.9608 35.8927 20.6119V16.8825H35.2123V16.5242C35.4724 16.5148 35.6929 16.4596 35.8738 16.3606C36.0555 16.2598 36.2131 16.1039 36.3475 15.8912C36.4534 15.7284 36.5404 15.5484 36.6084 15.3503C36.6773 15.1522 36.7376 14.9059 36.7902 14.6113L37.3879 14.5527C37.3793 14.7104 37.3724 14.8706 37.3672 15.0342C37.3621 15.1961 37.3578 15.3925 37.356 15.6207C37.3526 15.8498 37.3517 16.1435 37.3517 16.5001H38.7978V16.8825" fill="black"/>
</g>
<mask id="mask3_123_1542" style="mask-type:luminance" maskUnits="userSpaceOnUse" x="28" y="16" width="8" height="7">
<path d="M28.8843 16.1538H35.2785V22.9184H28.8843V16.1538Z" fill="white"/>
</mask>
<g mask="url(#mask3_123_1542)">
<path d="M35.2062 22.4775V22.7299C34.8565 22.7532 34.7152 22.7532 34.3474 22.7532C34.0555 22.7532 33.754 22.748 33.5034 22.6541C33.3483 22.5955 33.2614 22.5456 33.1459 22.4241C33.065 22.2958 33.0142 22.2889 32.9883 21.9324C32.68 22.2657 32.3587 22.5103 32.0245 22.6679C31.6904 22.8247 31.3303 22.9022 30.9445 22.9004C30.3709 22.8944 29.9221 22.7359 29.5983 22.425C29.2744 22.1141 29.1099 21.6869 29.1039 21.1434C29.1013 20.1176 29.7395 19.4803 31.016 19.2313C31.5913 19.1194 32.245 19.0436 32.9763 19.004V18.2271C32.9823 17.6052 32.916 17.1737 32.779 16.9334C32.6412 16.694 32.3966 16.5794 32.0435 16.5906C31.6697 16.582 31.4027 16.7181 31.2433 16.9963C31.1856 17.0927 31.1426 17.2021 31.1159 17.327C31.09 17.451 31.0676 17.6233 31.0521 17.8447C31.0427 18.0583 30.9806 18.2098 30.8661 18.2986C30.7524 18.389 30.5715 18.4329 30.3226 18.4312C29.7688 18.4269 29.4897 18.2434 29.4863 17.8808C29.488 17.6698 29.5535 17.4674 29.6818 17.2762C29.8101 17.0833 29.9927 16.9145 30.227 16.7689C30.7248 16.4623 31.3786 16.3116 32.1873 16.315C33.0099 16.3116 33.5998 16.4743 33.9564 16.8051C34.1166 16.9567 34.2346 17.1496 34.3104 17.3847C34.3862 17.6199 34.4232 17.9204 34.4224 18.2882L34.4103 19.3269L34.3983 20.3665C34.3888 20.7076 34.3845 20.9229 34.3862 21.0116C34.3819 21.4431 34.3957 21.7584 34.4267 21.9556C34.4585 22.1546 34.493 22.2424 34.6231 22.3501C34.8513 22.4801 35.0468 22.4767 35.2062 22.4775ZM32.9763 20.1994V19.2796C32.1201 19.3373 31.5138 19.4958 31.1546 19.7541C30.7972 20.0125 30.6232 20.4156 30.6335 20.9643C30.637 21.394 30.7257 21.7351 30.898 21.9875C31.0702 22.2407 31.3054 22.369 31.6016 22.3742C31.8445 22.3725 32.0693 22.3027 32.2752 22.164C32.481 22.0262 32.6429 21.8324 32.7609 21.5861C32.8376 21.4345 32.8927 21.2502 32.9272 21.0314C32.9608 20.8127 32.9771 20.5353 32.9763 20.1994Z" fill="black"/>
</g>
<mask id="mask4_123_1542" style="mask-type:luminance" maskUnits="userSpaceOnUse" x="39" y="16" width="7" height="7">
<path d="M39.2474 16.1538H45.6417V22.9184H39.2474V16.1538Z" fill="white"/>
</mask>
<g mask="url(#mask4_123_1542)">
<path d="M45.4969 22.4777V22.73C45.1472 22.7533 45.006 22.7541 44.6382 22.7541C44.3462 22.7541 44.0448 22.749 43.7933 22.6551C43.6383 22.5974 43.5521 22.5474 43.4367 22.4243C43.3557 22.2968 43.3041 22.289 43.2782 21.9333C42.9699 22.2658 42.6486 22.5113 42.3153 22.6689C41.9811 22.8248 41.6211 22.9031 41.2352 22.9014C40.6616 22.8954 40.2129 22.7361 39.8882 22.4268C39.5643 22.1151 39.4007 21.6879 39.3938 21.1444C39.3921 20.1186 40.0294 19.4812 41.3067 19.2323C41.8821 19.1203 42.5358 19.0446 43.2662 19.0049V18.228C43.2722 17.6062 43.2067 17.1747 43.0698 16.9335C42.932 16.6941 42.6865 16.5804 42.3343 16.5916C41.9596 16.583 41.6926 16.7191 41.5333 16.9973C41.4755 17.0937 41.4333 17.2031 41.4066 17.328C41.3799 17.452 41.3584 17.6243 41.3429 17.8456C41.3334 18.0584 41.2714 18.21 41.1569 18.2995C41.0432 18.39 40.8614 18.4339 40.6134 18.4322C40.0596 18.4279 39.7805 18.2444 39.7762 17.8827C39.7779 17.6708 39.8434 17.4684 39.9726 17.2772C40.1009 17.0842 40.2827 16.9154 40.5178 16.7707C41.0156 16.4633 41.6693 16.3125 42.4781 16.316C43.3006 16.3125 43.8906 16.4753 44.2472 16.8061C44.4074 16.9576 44.5254 17.1514 44.6003 17.3857C44.6761 17.6208 44.7131 17.9214 44.7123 18.2883L44.7002 19.3279L44.689 20.3675C44.6787 20.7086 44.6744 20.9239 44.677 21.0126C44.6727 21.4441 44.6864 21.7593 44.7175 21.9566C44.7493 22.1555 44.7829 22.2434 44.913 22.3511C45.1412 22.4811 45.3376 22.4768 45.4969 22.4777ZM43.2662 20.2013V19.2797C42.4109 19.3383 41.8037 19.4967 41.4454 19.7551C41.0871 20.0144 40.9131 20.4166 40.9243 20.9652C40.9278 21.395 41.0156 21.7361 41.1887 21.9884C41.361 22.2417 41.5961 22.37 41.8916 22.3752C42.1353 22.3734 42.3601 22.3037 42.5659 22.165C42.7718 22.0272 42.9337 21.8334 43.0509 21.5871C43.1284 21.4355 43.1835 21.2512 43.2171 21.0324C43.2507 20.8136 43.2679 20.5363 43.2662 20.2013Z" fill="black"/>
</g>
<path d="M70.1058 7.77806L70.0825 8.23799L78.9142 18.5993L79.2312 18.6502L79.2708 18.6304L79.4267 18.3435L75.6603 5.7368L75.0203 5.30615" fill="#0095B8"/>
<path d="M70.0825 8.23877L78.9142 18.5993L79.2312 18.6501L72.7181 8.74176L70.0825 8.23877Z" fill="#005575"/>
<path d="M75.0203 5.30615L72.7689 7.95635L73.6888 8.35857L75.6603 5.7368" fill="#0ABAEE"/>
<path d="M70.0825 8.23874L72.7181 8.74173L72.7689 7.95623L70.1058 7.77881L70.0825 8.23874Z" fill="#007190"/>
<path d="M73.6879 8.35822L79.2716 18.6291L79.4267 18.3423L75.6602 5.7373L73.6879 8.35822Z" fill="#007190"/>
<mask id="mask5_123_1542" style="mask-type:luminance" maskUnits="userSpaceOnUse" x="79" y="4" width="11" height="19">
<path d="M79.8177 4.90894H90V22.7687H79.8177V4.90894Z" fill="white"/>
</mask>
<g mask="url(#mask5_123_1542)">
<path d="M84.2784 5.05615L89.9896 7.68137L89.9999 8.42208L80.6282 22.6179L80.201 22.7299L80.1373 22.7015L80.0046 22.3819L83.7814 5.33263" fill="#81B73D"/>
</g>
<mask id="mask6_123_1542" style="mask-type:luminance" maskUnits="userSpaceOnUse" x="80" y="8" width="10" height="15">
<path d="M80.0382 8.21631H89.9999V22.7687H80.0382V8.21631Z" fill="white"/>
</mask>
<g mask="url(#mask6_123_1542)">
<path d="M86.1956 8.74621L80.201 22.7302L80.6283 22.6182L90 8.42236L86.1956 8.74621Z" fill="#69921D"/>
</g>
<path d="M83.7806 5.33252L80.0038 22.3801L80.1373 22.7005L85.1173 8.15239L83.7806 5.33252Z" fill="#277933"/>
<mask id="mask7_123_1542" style="mask-type:luminance" maskUnits="userSpaceOnUse" x="85" y="7" width="5" height="2">
<path d="M85.771 7.55469H89.9999V8.87763H85.771V7.55469Z" fill="white"/>
</mask>
<g mask="url(#mask7_123_1542)">
<path d="M85.9802 7.73369L86.1964 8.74657L89.9999 8.42186L89.9895 7.68115" fill="#ADCC52"/>
</g>
<path d="M83.7814 5.33263L85.1164 8.15164L85.9803 7.73391L84.2783 5.05615L83.7814 5.33263Z" fill="#69921D"/>
<path d="M75.556 1.01689L75.7834 0.579354L83.0941 0.500977L83.5669 0.990191L80.0649 12.6934L79.8418 12.8218L79.8349 12.8209L79.5955 12.6598" fill="#E3032D"/>
<path d="M75.556 1.01602L78.3888 2.42682L78.9151 1.8041L75.7834 0.579346L75.556 1.01602Z" fill="#B51227"/>
<path d="M75.556 1.01673L79.5955 12.6597L79.8341 12.8207L78.3888 2.42667L75.556 1.01587" fill="#791B14"/>
<path d="M79.7634 2.42835L79.8418 12.8216L80.0649 12.6924L83.5669 0.98999L79.7634 2.42835Z" fill="#B51227"/>
<path d="M83.0941 0.5L78.916 1.804L79.7635 2.42757L83.567 0.990076L83.0941 0.5Z" fill="#EA515F"/>
</svg>
