<svg width="75" height="29" viewBox="0 0 75 29" fill="none" xmlns="http://www.w3.org/2000/svg">
<path d="M71.7071 17.4956V15.1428V10.4409H64.6524H59.9505V8.08817H71.7071V3.38623H59.9505H52.8958V8.08817V10.4409V15.1428H59.9505H64.6524V17.4956H52.8958V22.1975H64.6524H71.7071V17.4956ZM73.566 16.0247V23.6684C73.566 23.8236 73.5025 23.9753 73.3931 24.0846C73.2838 24.194 73.1321 24.2575 72.9769 24.2575H65.3332V25.4321H74.1515C74.3067 25.4321 74.4584 25.3686 74.5677 25.2592C74.6771 25.1499 74.7406 24.9982 74.7406 24.843V16.0247H73.566ZM10.0739 0.740723H1.25557C1.10037 0.740723 0.948691 0.804215 0.839343 0.913562C0.729996 1.02291 0.666504 1.17459 0.666504 1.32979V10.1481H1.84111V2.50439C1.84111 2.34919 1.9046 2.19751 2.01395 2.08817C2.12329 1.97882 2.27497 1.91533 2.43017 1.91533H10.0739V0.740723ZM17.6224 28.0776H22.3244V17.4956H17.6224V28.0776ZM21.7388 3.38623H10.5677V8.08817H17.6224V15.1428H22.3244V3.97176C22.3244 3.81656 22.2609 3.66489 22.1515 3.55554C22.0422 3.44619 21.8905 3.3827 21.7353 3.3827L21.7388 3.38623ZM8.21853 3.38623H4.10213C3.94693 3.38623 3.79525 3.44972 3.6859 3.55907C3.57656 3.66841 3.51306 3.82009 3.51306 3.97529V21.612C3.51306 21.7672 3.57656 21.9189 3.6859 22.0282C3.79525 22.1376 3.94693 22.201 4.10213 22.201H15.2732V17.4991H8.21853V3.38975V3.38623ZM10.5713 15.1428H15.2732V10.4409H10.5713V15.1428ZM11.7459 11.6155H14.0986V13.9682H11.7459V11.6155ZM24.6806 3.38623V8.08817H38.79V10.4409H29.3826H24.6806V15.1428V22.1975H29.3826V15.2134L36.4372 22.1975H43.4919L36.1303 15.1428H38.7864H43.4884V10.4409V8.08817V3.38623H38.7864H24.6771H24.6806ZM45.8446 22.1975H50.5466V3.38623H45.8446V22.1975Z" fill="black"/>
</svg>
