<svg width="56" height="26" viewBox="0 0 56 26" fill="none" xmlns="http://www.w3.org/2000/svg">
<path fill-rule="evenodd" clip-rule="evenodd" d="M2.90317 4.68463H20.8166C22.0068 4.68463 22.9806 5.65844 22.9806 6.84866V19.388C22.9806 20.5783 22.0068 21.5521 20.8166 21.5521H2.3862C1.19598 21.5521 0.222168 20.5783 0.222168 19.388V3.90317C0.222168 3.33812 0.691042 2.9534 1.24407 2.88127L17.7629 0.777344C18.3279 0.777344 18.7848 1.2342 18.7848 1.79925V3.55452H1.86924C1.86924 4.28789 2.08564 4.69665 2.90317 4.69665V4.68463ZM12.9539 18.4142C11.4511 18.7028 9.51549 18.1978 8.45752 17.0677C7.97662 16.5628 8.74606 15.7813 9.22695 16.2983C9.93627 17.0557 11.1986 17.4164 12.2326 17.3923C13.543 17.3683 14.7212 16.166 13.9638 14.8315C12.9299 12.9801 10.3811 13.4971 9.08268 12.0544C8.02471 10.8882 8.52965 9.03674 9.76796 8.21922C11.0664 7.36562 13.3025 7.40169 14.3605 8.61595C14.8174 9.14494 14.0479 9.91438 13.5911 9.38539C12.7255 8.39955 10.6937 8.5318 9.92425 9.5537C8.81819 11.0084 10.4773 11.7899 11.6314 12.1385C13.2184 12.6194 14.9737 13.4971 15.2622 15.3124C15.4906 16.7792 14.3605 18.1377 12.9539 18.4142Z" fill="#EE4E2C"/>
<path fill-rule="evenodd" clip-rule="evenodd" d="M12.942 18.4261C11.4392 18.7147 9.50356 18.2097 8.44559 17.0796C7.96469 16.5747 8.73412 15.7932 9.21502 16.3102C9.92434 17.0676 11.1867 17.4283 12.2206 17.4042C13.5311 17.3802 14.7093 16.1779 13.9519 14.8434C12.9179 12.992 10.3692 13.509 9.07075 12.0663C8.01278 10.9001 8.51772 9.04864 9.75603 8.23112C11.0544 7.37753 13.2906 7.41359 14.3486 8.62786C14.8054 9.15684 14.036 9.92628 13.5792 9.39729C12.7135 8.41145 10.6818 8.5437 9.91232 9.56561C8.80626 11.0203 10.4654 11.8018 11.6195 12.1504C13.2065 12.6313 14.9617 13.509 15.2623 15.3243C15.4907 16.7911 14.3606 18.1496 12.954 18.4261H12.942Z" fill="#FEFEFE"/>
<path d="M43.7915 3.91542C43.1543 3.91542 42.5773 4.19194 42.1805 4.61272V4.10778C42.1805 3.65093 41.4592 3.65093 41.4592 4.10778V10.0228C41.4592 10.4797 42.1805 10.4797 42.1805 10.0228V7.3899C42.5773 7.82271 43.1543 8.0872 43.7915 8.0872C44.9817 8.0872 45.9435 7.14945 45.9435 5.9953C45.9435 4.84115 44.9817 3.9034 43.7915 3.9034V3.91542ZM43.7915 7.34181C43.0341 7.34181 42.4089 6.74069 42.4089 6.00732C42.4089 5.34609 42.9139 4.79306 43.5631 4.68486H43.5751C43.6473 4.67284 43.7074 4.67284 43.7795 4.67284C44.3446 4.67284 44.8255 4.99744 45.0419 5.46631C45.114 5.63463 45.1621 5.81496 45.1621 5.9953C45.1621 6.72867 44.5489 7.32979 43.7915 7.32979V7.34181ZM38.4416 8.09922C37.2513 8.09922 36.2895 7.16147 36.2895 6.00732C36.2895 4.85317 37.2513 3.91542 38.4416 3.91542C39.6318 3.91542 40.5936 4.85317 40.5936 6.00732C40.5936 7.16147 39.6318 8.09922 38.4416 8.09922ZM38.4416 4.67284C37.6841 4.67284 37.059 5.27396 37.059 6.00732C37.059 6.74069 37.6721 7.34181 38.4416 7.34181C39.199 7.34181 39.8241 6.74069 39.8241 6.00732C39.8241 5.27396 39.211 4.67284 38.4416 4.67284ZM55.7779 5.97126C55.7658 5.00946 55.2489 4.14385 54.2029 3.95149C53.3012 3.78318 52.2433 4.25205 51.8586 5.06958C51.4618 5.92317 51.6301 7.10136 52.4116 7.69046C53.2652 8.33967 54.5997 8.13529 55.4773 7.65439C55.8861 7.43799 55.5254 6.82485 55.1046 7.04125C54.5516 7.34181 53.8182 7.48608 53.2051 7.29372C52.7362 7.13743 52.4717 6.75271 52.3996 6.31991H55.4172C55.6096 6.31991 55.7779 6.16361 55.7779 5.97126ZM52.4236 5.62261C52.4236 5.59856 52.4356 5.57452 52.4477 5.55047C52.616 4.9734 53.2171 4.64879 53.8182 4.62475C54.5035 4.6007 54.9002 5.06958 55.0205 5.62261H52.4356H52.4236ZM50.9449 5.98328C50.9328 5.02149 50.4159 4.15587 49.3699 3.96351C48.4682 3.7952 47.4103 4.26407 47.0256 5.0816C46.6288 5.93519 46.7971 7.11339 47.5786 7.70248C48.4322 8.35169 49.7667 8.14731 50.6443 7.66642C51.0531 7.45001 50.6924 6.83687 50.2716 7.05327C49.7186 7.35383 48.9852 7.4981 48.3721 7.30574C47.9032 7.14945 47.6507 6.76473 47.5666 6.33193H50.5842C50.7765 6.33193 50.9449 6.17564 50.9449 5.98328ZM47.5906 5.63463C47.5906 5.61058 47.6026 5.58654 47.6146 5.56249C47.783 4.98542 48.3841 4.66081 48.9852 4.63677C49.6705 4.61272 50.0672 5.0816 50.1874 5.63463H47.6026H47.5906ZM35.436 5.31002V7.75057C35.436 8.20742 34.7146 8.20742 34.7146 7.75057V5.35811C34.6906 4.88924 34.2818 4.66081 34.2698 4.66081C33.7528 4.43239 32.8151 4.54059 32.262 5.24991V7.7626C32.262 8.21945 31.5407 8.21945 31.5407 7.7626V1.4869C31.5407 1.03005 32.262 1.03005 32.262 1.4869V4.31216C33.1517 3.72307 34.2818 3.78318 34.8108 4.14385C34.8108 4.14385 35.448 4.4925 35.436 5.32205V5.31002ZM30.3385 1.76341C29.6291 0.981956 28.1384 0.957911 27.2727 1.51094C26.4432 2.03993 26.1066 3.21812 26.8159 3.97554C27.6935 4.91328 29.3887 4.57666 30.074 5.76687C30.5669 6.62047 29.7854 7.3899 28.9198 7.41395C28.2345 7.42597 27.393 7.19754 26.9121 6.70462C26.5875 6.38002 26.0825 6.87294 26.3951 7.19754C27.0924 7.93091 28.3908 8.24349 29.4007 8.06316C30.3385 7.89484 31.0959 7.01721 30.9396 6.06744C30.7472 4.90126 29.569 4.33621 28.511 4.02363C27.7416 3.7952 26.6356 3.30228 27.3689 2.36453C27.8859 1.71532 29.2444 1.63117 29.8215 2.25633C30.1341 2.59296 30.639 2.10004 30.3385 1.76341Z" fill="#EE4E2C"/>
<path fill-rule="evenodd" clip-rule="evenodd" d="M49.2616 25.1949H46.9533L49.4179 20.5302L45.3664 12.8839H47.867L50.6682 18.1738L53.4695 12.8839H55.7778L49.2616 25.1949ZM26.2988 21.5521H28.2344V18.0175H30.8433C33.5483 18.0175 35.7364 16.1179 35.7364 13.7856C35.7364 11.4533 33.5483 9.55371 30.8433 9.55371H26.3109C26.3109 13.5572 26.3109 17.5486 26.3109 21.5521H26.2988ZM28.2344 16.0939V11.4893H30.8433C32.31 11.4893 33.5003 12.5232 33.5003 13.7856C33.5003 15.06 32.31 16.0819 30.8433 16.0819H28.2344V16.0939ZM42.9619 12.9681H44.657V21.4799H42.9619V20.5181C42.2045 21.1674 41.2307 21.5521 40.1607 21.5521C37.7682 21.5521 35.8326 19.6165 35.8326 17.224C35.8326 14.8315 37.7682 12.8959 40.1607 12.8959C41.2307 12.8959 42.2165 13.2807 42.9619 13.9299V12.9681ZM40.1607 14.7233C41.5432 14.7233 42.6733 15.8414 42.6733 17.236C42.6733 18.6186 41.5553 19.7487 40.1607 19.7487C38.7781 19.7487 37.648 18.6306 37.648 17.236C37.648 15.8535 38.7661 14.7233 40.1607 14.7233Z" fill="#EE4E2C"/>
</svg>
