<svg version="1.1" id="Layer_1" xmlns="http://www.w3.org/2000/svg" xmlns:xlink="http://www.w3.org/1999/xlink" x="0px" y="0px"
	 width="100%" viewBox="0 0 512 512" enable-background="new 0 0 512 512" xml:space="preserve">
<path fill="#ffffff" opacity="1.000000" stroke="none" 
	d="
M513.000000,183.000000 
	C513.000000,293.306519 513.000000,403.113037 513.000000,512.959778 
	C342.401794,512.959778 171.803604,512.959778 1.102697,512.959778 
	C1.102697,342.443512 1.102697,171.886932 1.102697,1.165182 
	C171.666534,1.165182 342.333252,1.165182 513.000000,1.165182 
	C513.000000,61.529697 513.000000,122.014847 513.000000,183.000000 
M262.996277,306.886566 
	C264.687225,314.900299 268.677917,320.589783 277.634827,321.008026 
	C286.180756,321.407104 294.731873,321.803986 303.283905,321.891693 
	C305.612244,321.915588 307.992981,320.948120 310.279449,320.216248 
	C319.569397,317.242462 325.688843,303.196320 315.641052,291.843475 
	C328.874329,284.502777 340.426666,275.045898 350.578583,263.872406 
	C352.684387,261.554688 354.502258,260.739166 357.807465,261.934082 
	C375.706177,268.404907 394.201202,270.887512 413.044098,267.774200 
	C417.875122,266.976013 423.541992,264.663605 426.598114,261.124176 
	C432.205597,254.629791 429.185608,247.028305 425.600281,240.283295 
	C421.235687,232.072220 416.535278,224.039734 411.985046,215.927246 
	C404.060883,201.799530 396.064178,187.711777 388.248138,173.524490 
	C383.786133,165.425308 380.552826,157.289886 380.759552,147.400284 
	C381.410614,116.253242 381.052216,85.083870 380.973328,53.923412 
	C380.942322,41.686329 376.580597,30.563583 367.748993,22.594778 
	C355.097839,11.179584 339.733826,9.052889 323.614349,14.843909 
	C310.237915,19.649479 296.971344,24.761242 283.663422,29.756886 
	C268.462982,35.462944 252.996521,36.878899 237.450272,31.658358 
	C223.831329,27.085026 210.215958,22.380241 196.981369,16.822983 
	C187.090240,12.669660 176.946396,10.362468 166.698578,12.395378 
	C145.571762,16.586407 133.368164,33.496380 133.112473,54.320000 
	C132.697174,88.141708 133.043793,121.972389 132.923386,155.798767 
	C132.913223,158.652618 132.428131,161.835098 131.108078,164.299469 
	C123.475418,178.548615 115.460503,192.592239 107.702438,206.775162 
	C100.633911,219.697510 93.470673,232.579102 86.844223,245.728149 
	C82.739349,253.873566 85.378159,262.698212 94.084908,265.415222 
	C99.938660,267.241913 106.132118,268.474823 112.245705,268.876892 
	C127.673981,269.891449 142.683090,267.210754 157.143555,261.831787 
	C160.272141,260.667999 162.092346,261.567352 163.905045,263.765900 
	C173.871399,275.853882 186.147461,285.006866 199.728745,292.776642 
	C190.870209,302.301331 192.110977,314.567017 202.180725,318.897705 
	C215.626572,324.680328 230.653900,324.145111 244.791656,318.657166 
	C250.305130,316.516968 250.074677,310.608612 252.911041,306.029907 
	C256.262451,306.059998 259.613831,306.090088 262.996277,306.886566 
M371.447815,459.101990 
	C370.090698,461.120758 368.262848,462.968109 367.454987,465.186829 
	C363.111786,477.114868 365.789459,489.481171 377.167877,497.047668 
	C386.122986,503.002625 396.118042,502.854218 406.039429,501.412231 
	C414.004456,500.254517 421.049377,496.618225 425.258820,489.237854 
	C432.595551,476.374542 430.620300,465.816803 418.882233,454.947418 
	C423.139191,450.107117 426.780548,444.867218 425.984192,437.917023 
	C425.382538,432.665741 426.669067,428.250793 430.781067,424.642212 
	C432.636292,423.014130 433.192932,413.962158 431.445251,413.374207 
	C428.992157,412.549011 425.904236,412.805817 423.288849,413.435089 
	C417.760162,414.765350 412.545776,416.910187 406.537323,415.183899 
	C402.664948,414.071320 398.342560,413.763428 394.310669,414.114624 
	C383.471375,415.058777 372.869324,420.444489 369.663086,431.823334 
	C367.205719,440.544647 370.455231,447.834351 375.808624,454.530396 
	C374.464966,455.946198 373.209167,457.269409 371.447815,459.101990 
M79.999687,452.499329 
	C79.999619,433.011597 80.017448,413.523834 79.988594,394.036163 
	C79.979927,388.185211 76.202209,385.897339 71.170319,389.081512 
	C68.639191,390.683258 65.890518,393.111389 64.921127,395.777100 
	C62.617023,402.113129 61.314442,408.813354 59.551754,415.579102 
	C59.029720,415.416443 57.507076,414.916595 55.969849,414.466583 
	C33.291344,407.828003 10.699553,424.017181 15.317570,450.641541 
	C18.919271,471.406494 39.977863,480.203461 58.750725,472.547638 
	C63.002930,470.813507 66.471443,467.859802 70.785187,472.675751 
	C71.974930,474.004028 75.752312,474.202026 77.620094,473.344818 
	C79.015045,472.704590 79.749947,469.569305 79.897240,467.482849 
	C80.224846,462.842224 79.999504,458.162567 79.999687,452.499329 
M205.321060,473.023865 
	C217.666641,467.942413 224.083145,457.717438 225.021347,446.238617 
	C226.499435,428.154755 210.541199,411.929718 191.688889,412.891602 
	C179.102722,413.533752 169.948044,419.561188 164.219070,429.993469 
	C158.777069,439.903229 159.358078,450.648926 165.130920,460.530029 
	C171.998779,472.285461 188.050125,478.820557 205.321060,473.023865 
M496.929932,431.866028 
	C490.800751,418.992676 480.503967,412.871155 466.353790,413.001007 
	C445.427246,413.193054 430.001495,432.622192 436.485474,453.469208 
	C442.167603,471.738220 456.727509,477.806122 474.242249,474.541382 
	C495.196045,470.635681 503.565186,450.400635 496.929932,431.866028 
M331.705139,431.262970 
	C336.719025,433.876617 339.082367,438.008942 339.018463,443.661957 
	C338.943115,450.327087 338.676788,457.016693 339.146484,463.649445 
	C339.362244,466.696075 340.646301,471.827454 342.296967,472.195374 
	C346.740479,473.185852 351.665955,472.303558 356.336395,471.684174 
	C357.062073,471.587952 357.904510,468.973633 357.925659,467.512665 
	C358.066467,457.795380 358.394501,448.054413 357.888153,438.361542 
	C357.370056,428.442902 352.801849,420.673920 343.653687,415.889496 
	C334.060944,410.872559 324.983093,412.306915 316.041504,417.475891 
	C312.965179,419.254272 309.946533,420.201538 307.251678,416.760284 
	C305.351044,414.333221 302.681488,412.586823 300.060547,414.707764 
	C298.380981,416.066864 297.177704,418.985504 297.131958,421.232971 
	C296.864197,434.392822 297.001160,447.560913 297.000916,460.726227 
	C297.000702,472.612885 297.788361,473.291473 309.643524,473.042267 
	C314.299866,472.944397 316.109039,470.764496 316.030334,466.285248 
	C315.910309,459.454712 316.220245,452.611664 315.946350,445.790039 
	C315.563324,436.251495 322.923065,429.580750 331.705139,431.262970 
M148.231445,473.984283 
	C152.049469,473.003601 151.999878,469.937317 152.001831,466.931732 
	C152.010590,453.445190 152.002045,439.958618 151.999115,426.472076 
	C151.996902,416.285706 150.269760,414.613220 140.157043,415.001862 
	C135.027985,415.198944 133.135223,417.205597 132.981628,422.253540 
	C132.720306,430.841797 132.642166,439.452057 131.914886,448.004425 
	C131.331741,454.861694 127.431580,457.420624 119.789787,456.998138 
	C114.635422,456.713196 111.245911,452.896118 111.005775,447.040863 
	C110.653313,438.446686 110.140442,429.852509 110.084480,421.255798 
	C110.059151,417.363892 107.735832,415.408844 104.837692,415.235962 
	C100.622887,414.984497 95.812988,413.336670 92.292847,417.509979 
	C92.103157,417.734894 92.088120,418.132446 92.050591,418.456451 
	C91.693024,421.543365 91.013237,424.637543 91.066292,427.718597 
	C91.194229,435.148621 91.473488,442.587708 92.047165,449.995575 
	C92.826630,460.060944 97.032059,468.442291 106.355301,472.985199 
	C115.045807,477.219727 123.943306,477.122162 132.252029,471.365021 
	C135.553436,469.077423 138.529251,468.610535 141.722351,471.974701 
	C142.955460,473.273834 145.468063,473.358551 148.231445,473.984283 
M253.002579,443.500122 
	C253.001511,427.187164 253.083267,410.873291 252.896286,394.562469 
	C252.872452,392.482910 251.905472,389.121429 250.563629,388.646240 
	C248.437180,387.893250 245.095291,388.297485 243.202484,389.585693 
	C237.486755,393.475616 234.168137,399.319855 234.086182,406.235138 
	C233.847549,426.373810 233.945511,446.517548 234.102295,466.657837 
	C234.115646,468.373688 235.325272,471.384064 236.358887,471.559784 
	C240.573257,472.276306 245.133774,472.923401 249.152496,471.926331 
	C250.940826,471.482666 252.614563,467.148773 252.827347,464.460815 
	C253.351120,457.844238 252.998413,451.158264 253.002579,443.500122 
M284.001648,461.068817 
	C284.000885,448.080200 284.068237,435.090851 283.920441,422.103882 
	C283.900055,420.312012 283.087494,417.164459 282.173859,416.981567 
	C278.020386,416.150208 273.572540,415.394073 269.475342,416.077759 
	C265.536774,416.734985 264.948883,420.692535 264.971130,424.423309 
	C265.046631,437.078400 264.997589,449.734253 265.001831,462.389801 
	C265.004944,471.719147 266.320892,472.485260 275.472046,473.165222 
	C282.773041,473.707703 285.540436,469.490814 284.001648,461.068817 
M264.016357,397.605621 
	C264.374084,399.009918 264.467255,400.557953 265.137726,401.792358 
	C267.406067,405.968658 270.648193,408.685883 275.814117,407.994965 
	C280.211334,407.406891 283.850128,405.441315 284.824951,400.948792 
	C285.809418,396.411957 284.935669,392.047150 280.553162,389.239624 
	C274.451385,385.330536 267.349030,388.604004 264.016357,397.605621 
z"/>
<path fill="#78C701" opacity="1.000000" stroke="none" 
	d="
M199.997269,292.158875 
	C186.147461,285.006866 173.871399,275.853882 163.905045,263.765900 
	C162.092346,261.567352 160.272141,260.667999 157.143555,261.831787 
	C142.683090,267.210754 127.673981,269.891449 112.245705,268.876892 
	C106.132118,268.474823 99.938660,267.241913 94.084908,265.415222 
	C85.378159,262.698212 82.739349,253.873566 86.844223,245.728149 
	C93.470673,232.579102 100.633911,219.697510 107.702438,206.775162 
	C115.460503,192.592239 123.475418,178.548615 131.108078,164.299469 
	C132.428131,161.835098 132.913223,158.652618 132.923386,155.798767 
	C133.043793,121.972389 132.697174,88.141708 133.112473,54.320000 
	C133.368164,33.496380 145.571762,16.586407 166.698578,12.395378 
	C176.946396,10.362468 187.090240,12.669660 196.981369,16.822983 
	C210.215958,22.380241 223.831329,27.085026 237.450272,31.658358 
	C252.996521,36.878899 268.462982,35.462944 283.663422,29.756886 
	C296.971344,24.761242 310.237915,19.649479 323.614349,14.843909 
	C339.733826,9.052889 355.097839,11.179584 367.748993,22.594778 
	C376.580597,30.563583 380.942322,41.686329 380.973328,53.923412 
	C381.052216,85.083870 381.410614,116.253242 380.759552,147.400284 
	C380.552826,157.289886 383.786133,165.425308 388.248138,173.524490 
	C396.064178,187.711777 404.060883,201.799530 411.985046,215.927246 
	C416.535278,224.039734 421.235687,232.072220 425.600281,240.283295 
	C429.185608,247.028305 432.205597,254.629791 426.598114,261.124176 
	C423.541992,264.663605 417.875122,266.976013 413.044098,267.774200 
	C394.201202,270.887512 375.706177,268.404907 357.807465,261.934082 
	C354.502258,260.739166 352.684387,261.554688 350.578583,263.872406 
	C340.426666,275.045898 328.874329,284.502777 314.956055,291.985352 
	C304.147003,295.601837 294.136383,299.473389 283.858704,302.410461 
	C277.093353,304.343781 269.943115,304.930481 262.965240,306.120178 
	C259.613831,306.090088 256.262451,306.059998 252.053772,305.995178 
	C245.787949,305.114868 240.220291,304.819794 235.003128,303.311981 
	C223.242401,299.912964 211.655121,295.913818 199.997269,292.158875 
M239.908615,153.772614 
	C242.112305,166.595413 250.537277,171.175995 259.851349,170.009720 
	C269.311493,168.825165 273.279083,162.430603 275.658508,154.398285 
	C277.088562,156.232712 278.479919,158.098892 279.954742,159.896591 
	C293.156860,175.989136 310.435333,182.285263 330.257446,177.350723 
	C349.479675,172.565521 363.265778,160.004120 366.641754,139.780960 
	C368.701935,127.439819 367.819611,114.580978 367.937256,101.951668 
	C368.011505,93.984680 366.199524,86.326935 361.223053,79.895256 
	C353.709351,70.184425 347.535950,59.942661 344.932983,47.693245 
	C343.822113,42.465553 341.312042,41.853004 337.014191,45.064823 
	C334.015381,47.305878 331.348969,49.991817 327.631653,53.276382 
	C326.922272,50.539902 326.504822,48.745735 325.989227,46.980221 
	C325.020081,43.661446 324.433380,40.135971 322.890594,37.101711 
	C320.490112,32.380600 317.506287,32.075787 313.908112,35.987900 
	C305.131439,45.530354 295.784424,54.668297 288.000671,64.976166 
	C275.876099,81.032501 246.244446,87.495575 229.367035,68.011383 
	C219.793304,56.958954 209.478745,46.543938 199.391953,35.942581 
	C195.885895,32.257698 193.619476,32.519932 191.513657,37.230564 
	C189.528366,41.671547 188.388123,46.490307 186.659821,51.808517 
	C183.899704,49.518677 181.131302,47.483116 178.677689,45.120644 
	C175.576675,42.134823 172.510529,42.593945 170.917740,45.993046 
	C169.001480,50.082451 168.396622,54.766998 166.949081,59.102081 
	C165.951202,62.090500 165.241470,65.790070 163.089752,67.663612 
	C156.483612,73.415718 151.479370,80.001457 149.039459,88.425079 
	C143.978409,105.898102 143.659454,123.525681 147.856094,141.179810 
	C153.267822,163.945328 172.809326,179.399002 196.181412,178.911789 
	C215.378387,178.511627 229.497665,168.882935 239.908615,153.772614 
M213.179932,223.352341 
	C217.140045,230.266769 223.049393,234.295319 231.063919,233.855560 
	C238.156570,233.466400 243.567078,229.721939 246.864609,223.262970 
	C248.546982,219.967667 247.551437,218.076584 243.810577,218.050385 
	C234.832809,217.987503 225.852997,217.954712 216.876755,218.090591 
	C214.147568,218.131897 211.810410,219.091049 213.179932,223.352341 
M277.469421,232.241852 
	C283.733490,236.656433 295.447266,232.914841 300.909027,223.950409 
	C303.036743,220.458084 301.737152,218.147736 297.591431,218.071091 
	C289.140198,217.914886 280.681183,217.893677 272.230896,218.074860 
	C267.100952,218.184845 265.330353,221.679947 268.627563,225.642761 
	C270.764374,228.210953 274.021484,229.847031 277.469421,232.241852 
M270.992828,254.491592 
	C271.982605,253.160782 273.114960,251.911621 273.933105,250.482544 
	C275.750000,247.308807 274.782806,245.160110 271.093231,245.097977 
	C261.947845,244.943924 252.796509,244.968674 243.650589,245.113266 
	C240.210678,245.167648 239.335342,247.612839 240.551956,250.330460 
	C241.463959,252.367676 243.008560,254.355576 244.764297,255.740829 
	C252.437042,261.794556 262.234406,261.411407 270.992828,254.491592 
z"/>
<path fill="#7AC805" opacity="1.000000" stroke="none" 
	d="
M371.700592,458.847321 
	C373.209167,457.269409 374.464966,455.946198 375.808624,454.530396 
	C370.455231,447.834351 367.205719,440.544647 369.663086,431.823334 
	C372.869324,420.444489 383.471375,415.058777 394.310669,414.114624 
	C398.342560,413.763428 402.664948,414.071320 406.537323,415.183899 
	C412.545776,416.910187 417.760162,414.765350 423.288849,413.435089 
	C425.904236,412.805817 428.992157,412.549011 431.445251,413.374207 
	C433.192932,413.962158 432.636292,423.014130 430.781067,424.642212 
	C426.669067,428.250793 425.382538,432.665741 425.984192,437.917023 
	C426.780548,444.867218 423.139191,450.107117 418.882233,454.947418 
	C430.620300,465.816803 432.595551,476.374542 425.258820,489.237854 
	C421.049377,496.618225 414.004456,500.254517 406.039429,501.412231 
	C396.118042,502.854218 386.122986,503.002625 377.167877,497.047668 
	C365.789459,489.481171 363.111786,477.114868 367.454987,465.186829 
	C368.262848,462.968109 370.090698,461.120758 371.700592,458.847321 
M385.886017,470.519592 
	C385.511414,472.488281 384.832245,474.455383 384.821869,476.425995 
	C384.795471,481.439117 388.310059,484.531647 392.357483,485.497284 
	C396.936798,486.589844 402.106842,487.376434 406.297882,483.268463 
	C411.157776,478.504822 411.789948,470.965271 407.033081,467.656464 
	C400.863281,463.364838 392.024597,462.835724 385.886017,470.519592 
M402.432617,447.065125 
	C406.506714,443.930817 408.181580,439.137115 406.541962,435.069183 
	C404.662292,430.405518 400.791840,429.741241 396.374176,429.974152 
	C391.512329,430.230499 388.422180,432.803528 388.009827,437.223480 
	C387.432251,443.414307 389.588684,447.059753 394.821625,447.909851 
	C397.094360,448.279083 399.516907,447.726196 402.432617,447.065125 
z"/>
<path fill="#7AC804" opacity="1.000000" stroke="none" 
	d="
M79.999619,452.999084 
	C79.999504,458.162567 80.224846,462.842224 79.897240,467.482849 
	C79.749947,469.569305 79.015045,472.704590 77.620094,473.344818 
	C75.752312,474.202026 71.974930,474.004028 70.785187,472.675751 
	C66.471443,467.859802 63.002930,470.813507 58.750725,472.547638 
	C39.977863,480.203461 18.919271,471.406494 15.317570,450.641541 
	C10.699553,424.017181 33.291344,407.828003 55.969849,414.466583 
	C57.507076,414.916595 59.029720,415.416443 59.551754,415.579102 
	C61.314442,408.813354 62.617023,402.113129 64.921127,395.777100 
	C65.890518,393.111389 68.639191,390.683258 71.170319,389.081512 
	C76.202209,385.897339 79.979927,388.185211 79.988594,394.036163 
	C80.017448,413.523834 79.999619,433.011597 79.999619,452.999084 
M49.815475,430.422211 
	C43.257748,429.548615 38.656475,431.641235 35.696308,436.843567 
	C32.826454,441.887177 33.621471,449.808655 37.409325,453.912354 
	C41.193050,458.011627 48.032654,459.263123 53.337379,456.826904 
	C57.385296,454.967926 61.552719,448.415863 60.919586,444.019440 
	C60.053333,438.004242 58.295044,432.497650 49.815475,430.422211 
z"/>
<path fill="#7AC805" opacity="1.000000" stroke="none" 
	d="
M204.917130,473.077118 
	C188.050125,478.820557 171.998779,472.285461 165.130920,460.530029 
	C159.358078,450.648926 158.777069,439.903229 164.219070,429.993469 
	C169.948044,419.561188 179.102722,413.533752 191.688889,412.891602 
	C210.541199,411.929718 226.499435,428.154755 225.021347,446.238617 
	C224.083145,457.717438 217.666641,467.942413 204.917130,473.077118 
M203.987564,451.234131 
	C204.360855,449.986420 204.726700,448.736420 205.108658,447.491364 
	C207.237274,440.553101 204.046463,434.200348 196.789368,430.936066 
	C191.524979,428.568085 185.368088,430.934692 181.878815,436.667450 
	C178.045471,442.965454 179.942764,452.358826 185.770920,455.937195 
	C192.304306,459.948517 199.687683,458.288879 203.987564,451.234131 
z"/>
<path fill="#7AC805" opacity="1.000000" stroke="none" 
	d="
M496.970398,432.264771 
	C503.565186,450.400635 495.196045,470.635681 474.242249,474.541382 
	C456.727509,477.806122 442.167603,471.738220 436.485474,453.469208 
	C430.001495,432.622192 445.427246,413.193054 466.353790,413.001007 
	C480.503967,412.871155 490.800751,418.992676 496.970398,432.264771 
M456.888519,452.516357 
	C459.652863,457.720551 464.532349,458.734253 469.529236,457.826843 
	C474.627502,456.901001 478.038330,453.592499 479.473389,448.172302 
	C481.265778,441.402618 478.553284,435.853790 474.947083,432.603973 
	C471.409454,429.415985 465.281677,429.458160 460.750000,432.097076 
	C454.320587,435.841095 452.667908,443.385742 456.888519,452.516357 
z"/>
<path fill="#7AC804" opacity="1.000000" stroke="none" 
	d="
M331.311401,431.156799 
	C322.923065,429.580750 315.563324,436.251495 315.946350,445.790039 
	C316.220245,452.611664 315.910309,459.454712 316.030334,466.285248 
	C316.109039,470.764496 314.299866,472.944397 309.643524,473.042267 
	C297.788361,473.291473 297.000702,472.612885 297.000916,460.726227 
	C297.001160,447.560913 296.864197,434.392822 297.131958,421.232971 
	C297.177704,418.985504 298.380981,416.066864 300.060547,414.707764 
	C302.681488,412.586823 305.351044,414.333221 307.251678,416.760284 
	C309.946533,420.201538 312.965179,419.254272 316.041504,417.475891 
	C324.983093,412.306915 334.060944,410.872559 343.653687,415.889496 
	C352.801849,420.673920 357.370056,428.442902 357.888153,438.361542 
	C358.394501,448.054413 358.066467,457.795380 357.925659,467.512665 
	C357.904510,468.973633 357.062073,471.587952 356.336395,471.684174 
	C351.665955,472.303558 346.740479,473.185852 342.296967,472.195374 
	C340.646301,471.827454 339.362244,466.696075 339.146484,463.649445 
	C338.676788,457.016693 338.943115,450.327087 339.018463,443.661957 
	C339.082367,438.008942 336.719025,433.876617 331.311401,431.156799 
z"/>
<path fill="#7AC805" opacity="1.000000" stroke="none" 
	d="
M147.814575,473.990417 
	C145.468063,473.358551 142.955460,473.273834 141.722351,471.974701 
	C138.529251,468.610535 135.553436,469.077423 132.252029,471.365021 
	C123.943306,477.122162 115.045807,477.219727 106.355301,472.985199 
	C97.032059,468.442291 92.826630,460.060944 92.047165,449.995575 
	C91.473488,442.587708 91.194229,435.148621 91.066292,427.718597 
	C91.013237,424.637543 91.693024,421.543365 92.050591,418.456451 
	C92.088120,418.132446 92.103157,417.734894 92.292847,417.509979 
	C95.812988,413.336670 100.622887,414.984497 104.837692,415.235962 
	C107.735832,415.408844 110.059151,417.363892 110.084480,421.255798 
	C110.140442,429.852509 110.653313,438.446686 111.005775,447.040863 
	C111.245911,452.896118 114.635422,456.713196 119.789787,456.998138 
	C127.431580,457.420624 131.331741,454.861694 131.914886,448.004425 
	C132.642166,439.452057 132.720306,430.841797 132.981628,422.253540 
	C133.135223,417.205597 135.027985,415.198944 140.157043,415.001862 
	C150.269760,414.613220 151.996902,416.285706 151.999115,426.472076 
	C152.002045,439.958618 152.010590,453.445190 152.001831,466.931732 
	C151.999878,469.937317 152.049469,473.003601 147.814575,473.990417 
z"/>
<path fill="#78C701" opacity="1.000000" stroke="none" 
	d="
M253.000366,444.000183 
	C252.998413,451.158264 253.351120,457.844238 252.827347,464.460815 
	C252.614563,467.148773 250.940826,471.482666 249.152496,471.926331 
	C245.133774,472.923401 240.573257,472.276306 236.358887,471.559784 
	C235.325272,471.384064 234.115646,468.373688 234.102295,466.657837 
	C233.945511,446.517548 233.847549,426.373810 234.086182,406.235138 
	C234.168137,399.319855 237.486755,393.475616 243.202484,389.585693 
	C245.095291,388.297485 248.437180,387.893250 250.563629,388.646240 
	C251.905472,389.121429 252.872452,392.482910 252.896286,394.562469 
	C253.083267,410.873291 253.001511,427.187164 253.000366,444.000183 
z"/>
<path fill="#F29205" opacity="1.000000" stroke="none" 
	d="
M262.980774,306.503357 
	C269.943115,304.930481 277.093353,304.343781 283.858704,302.410461 
	C294.136383,299.473389 304.147003,295.601837 314.637268,292.142639 
	C325.688843,303.196320 319.569397,317.242462 310.279449,320.216248 
	C307.992981,320.948120 305.612244,321.915588 303.283905,321.891693 
	C294.731873,321.803986 286.180756,321.407104 277.634827,321.008026 
	C268.677917,320.589783 264.687225,314.900299 262.980774,306.503357 
z"/>
<path fill="#F29205" opacity="1.000000" stroke="none" 
	d="
M199.863007,292.467773 
	C211.655121,295.913818 223.242401,299.912964 235.003128,303.311981 
	C240.220291,304.819794 245.787949,305.114868 251.600357,306.057861 
	C250.074677,310.608612 250.305130,316.516968 244.791656,318.657166 
	C230.653900,324.145111 215.626572,324.680328 202.180725,318.897705 
	C192.110977,314.567017 190.870209,302.301331 199.863007,292.467773 
z"/>
<path fill="#7DC909" opacity="1.000000" stroke="none" 
	d="
M284.006226,461.520386 
	C285.540436,469.490814 282.773041,473.707703 275.472046,473.165222 
	C266.320892,472.485260 265.004944,471.719147 265.001831,462.389801 
	C264.997589,449.734253 265.046631,437.078400 264.971130,424.423309 
	C264.948883,420.692535 265.536774,416.734985 269.475342,416.077759 
	C273.572540,415.394073 278.020386,416.150208 282.173859,416.981567 
	C283.087494,417.164459 283.900055,420.312012 283.920441,422.103882 
	C284.068237,435.090851 284.000885,448.080200 284.006226,461.520386 
z"/>
<path fill="#7DC909" opacity="1.000000" stroke="none" 
	d="
M264.044434,397.210449 
	C267.349030,388.604004 274.451385,385.330536 280.553162,389.239624 
	C284.935669,392.047150 285.809418,396.411957 284.824951,400.948792 
	C283.850128,405.441315 280.211334,407.406891 275.814117,407.994965 
	C270.648193,408.685883 267.406067,405.968658 265.137726,401.792358 
	C264.467255,400.557953 264.374084,399.009918 264.044434,397.210449 
z"/>
<path fill="#8EDF02" opacity="1.000000" stroke="none" 
	d="
M239.699020,153.013794 
	C229.497665,168.882935 215.378387,178.511627 196.181412,178.911789 
	C172.809326,179.399002 153.267822,163.945328 147.856094,141.179810 
	C143.659454,123.525681 143.978409,105.898102 149.039459,88.425079 
	C151.479370,80.001457 156.483612,73.415718 163.089752,67.663612 
	C165.241470,65.790070 165.951202,62.090500 166.949081,59.102081 
	C168.396622,54.766998 169.001480,50.082451 170.917740,45.993046 
	C172.510529,42.593945 175.576675,42.134823 178.677689,45.120644 
	C181.131302,47.483116 183.899704,49.518677 186.659821,51.808517 
	C188.388123,46.490307 189.528366,41.671547 191.513657,37.230564 
	C193.619476,32.519932 195.885895,32.257698 199.391953,35.942581 
	C209.478745,46.543938 219.793304,56.958954 229.367035,68.011383 
	C246.244446,87.495575 275.876099,81.032501 288.000671,64.976166 
	C295.784424,54.668297 305.131439,45.530354 313.908112,35.987900 
	C317.506287,32.075787 320.490112,32.380600 322.890594,37.101711 
	C324.433380,40.135971 325.020081,43.661446 325.989227,46.980221 
	C326.504822,48.745735 326.922272,50.539902 327.631653,53.276382 
	C331.348969,49.991817 334.015381,47.305878 337.014191,45.064823 
	C341.312042,41.853004 343.822113,42.465553 344.932983,47.693245 
	C347.535950,59.942661 353.709351,70.184425 361.223053,79.895256 
	C366.199524,86.326935 368.011505,93.984680 367.937256,101.951668 
	C367.819611,114.580978 368.701935,127.439819 366.641754,139.780960 
	C363.265778,160.004120 349.479675,172.565521 330.257446,177.350723 
	C310.435333,182.285263 293.156860,175.989136 279.954742,159.896591 
	C278.479919,158.098892 277.088562,156.232712 275.337830,153.871338 
	C274.966003,152.900909 274.914856,152.457443 275.162079,151.815659 
	C281.269592,149.595856 281.736847,148.392120 278.764404,143.105484 
	C269.555969,126.727806 247.265518,125.637032 236.676559,141.045929 
	C232.268448,147.460510 232.864166,149.494232 239.845993,152.265961 
	C239.767807,152.682083 239.733414,152.847946 239.699020,153.013794 
M166.147125,140.125046 
	C166.430786,140.724930 166.706314,141.328827 166.999283,141.924133 
	C173.953354,156.054642 188.596848,163.609268 203.671768,160.845581 
	C218.663986,158.097061 230.244034,145.339783 231.193359,129.693100 
	C231.705963,121.244408 231.537415,112.712425 231.050858,104.253990 
	C230.100540,87.733139 217.619781,75.142967 200.749557,73.127922 
	C185.554718,71.312988 169.531113,81.447906 165.484039,96.557167 
	C161.693359,110.709221 161.852264,125.137260 166.147125,140.125046 
M283.793549,99.500046 
	C283.514954,109.120026 282.960083,118.741707 283.019379,128.359604 
	C283.120636,144.783340 296.715759,159.731979 312.289062,161.002090 
	C331.396851,162.560440 347.393127,151.165482 349.892242,133.231506 
	C351.145325,124.239594 351.183716,114.970879 350.755127,105.875237 
	C349.939880,88.574394 336.396973,74.418633 320.211670,73.047241 
	C303.437683,71.625954 288.407654,82.249413 283.793549,99.500046 
z"/>
<path fill="#F29205" opacity="1.000000" stroke="none" 
	d="
M274.863739,152.013962 
	C274.914856,152.457443 274.966003,152.900909 275.076324,153.673859 
	C273.279083,162.430603 269.311493,168.825165 259.851349,170.009720 
	C250.537277,171.175995 242.112305,166.595413 239.803818,153.393204 
	C239.733414,152.847946 239.767807,152.682083 240.272888,152.269745 
	C252.117722,154.854248 263.490906,154.103821 274.863739,152.013962 
z"/>
<path fill="#8CDE00" opacity="1.000000" stroke="none" 
	d="
M213.034210,223.028137 
	C211.810410,219.091049 214.147568,218.131897 216.876755,218.090591 
	C225.852997,217.954712 234.832809,217.987503 243.810577,218.050385 
	C247.551437,218.076584 248.546982,219.967667 246.864609,223.262970 
	C243.567078,229.721939 238.156570,233.466400 231.063919,233.855560 
	C223.049393,234.295319 217.140045,230.266769 213.034210,223.028137 
z"/>
<path fill="#8CDE00" opacity="1.000000" stroke="none" 
	d="
M277.123047,232.071320 
	C274.021484,229.847031 270.764374,228.210953 268.627563,225.642761 
	C265.330353,221.679947 267.100952,218.184845 272.230896,218.074860 
	C280.681183,217.893677 289.140198,217.914886 297.591431,218.071091 
	C301.737152,218.147736 303.036743,220.458084 300.909027,223.950409 
	C295.447266,232.914841 283.733490,236.656433 277.123047,232.071320 
z"/>
<path fill="#8CDE00" opacity="1.000000" stroke="none" 
	d="
M270.733673,254.749878 
	C262.234406,261.411407 252.437042,261.794556 244.764297,255.740829 
	C243.008560,254.355576 241.463959,252.367676 240.551956,250.330460 
	C239.335342,247.612839 240.210678,245.167648 243.650589,245.113266 
	C252.796509,244.968674 261.947845,244.943924 271.093231,245.097977 
	C274.782806,245.160110 275.750000,247.308807 273.933105,250.482544 
	C273.114960,251.911621 271.982605,253.160782 270.733673,254.749878 
z"/>
<path fill="#000000" opacity="1.000000" stroke="none" 
	d="
M385.973633,470.146179 
	C392.024597,462.835724 400.863281,463.364838 407.033081,467.656464 
	C411.789948,470.965271 411.157776,478.504822 406.297882,483.268463 
	C402.106842,487.376434 396.936798,486.589844 392.357483,485.497284 
	C388.310059,484.531647 384.795471,481.439117 384.821869,476.425995 
	C384.832245,474.455383 385.511414,472.488281 385.973633,470.146179 
z"/>
<path fill="#000000" opacity="1.000000" stroke="none" 
	d="
M402.152039,447.328613 
	C399.516907,447.726196 397.094360,448.279083 394.821625,447.909851 
	C389.588684,447.059753 387.432251,443.414307 388.009827,437.223480 
	C388.422180,432.803528 391.512329,430.230499 396.374176,429.974152 
	C400.791840,429.741241 404.662292,430.405518 406.541962,435.069183 
	C408.181580,439.137115 406.506714,443.930817 402.152039,447.328613 
z"/>
<path fill="#000000" opacity="1.000000" stroke="none" 
	d="
M50.129124,430.681335 
	C58.295044,432.497650 60.053333,438.004242 60.919586,444.019440 
	C61.552719,448.415863 57.385296,454.967926 53.337379,456.826904 
	C48.032654,459.263123 41.193050,458.011627 37.409325,453.912354 
	C33.621471,449.808655 32.826454,441.887177 35.696308,436.843567 
	C38.656475,431.641235 43.257748,429.548615 50.129124,430.681335 
z"/>
<path fill="#000000" opacity="1.000000" stroke="none" 
	d="
M203.805115,451.579315 
	C199.687683,458.288879 192.304306,459.948517 185.770920,455.937195 
	C179.942764,452.358826 178.045471,442.965454 181.878815,436.667450 
	C185.368088,430.934692 191.524979,428.568085 196.789368,430.936066 
	C204.046463,434.200348 207.237274,440.553101 205.108658,447.491364 
	C204.726700,448.736420 204.360855,449.986420 203.805115,451.579315 
z"/>
<path fill="#000000" opacity="1.000000" stroke="none" 
	d="
M456.649475,452.212341 
	C452.667908,443.385742 454.320587,435.841095 460.750000,432.097076 
	C465.281677,429.458160 471.409454,429.415985 474.947083,432.603973 
	C478.553284,435.853790 481.265778,441.402618 479.473389,448.172302 
	C478.038330,453.592499 474.627502,456.901001 469.529236,457.826843 
	C464.532349,458.734253 459.652863,457.720551 456.649475,452.212341 
z"/>
<path fill="#FBFCF9" opacity="1.000000" stroke="none" 
	d="
M166.051727,139.743744 
	C161.852264,125.137260 161.693359,110.709221 165.484039,96.557167 
	C169.531113,81.447906 185.554718,71.312988 200.749557,73.127922 
	C217.619781,75.142967 230.100540,87.733139 231.050858,104.253990 
	C231.537415,112.712425 231.705963,121.244408 231.193359,129.693100 
	C230.244034,145.339783 218.663986,158.097061 203.671768,160.845581 
	C188.596848,163.609268 173.953354,156.054642 166.999283,141.924133 
	C166.706314,141.328827 166.430786,140.724930 166.051727,139.743744 
M197.894623,95.964439 
	C198.207184,96.907776 198.611893,97.831482 198.817734,98.797569 
	C200.466965,106.537956 198.912216,109.230019 191.251404,111.400932 
	C188.015472,112.317917 186.552734,114.183456 186.742020,117.525002 
	C186.892349,120.178825 186.839310,122.843483 186.931503,125.501419 
	C187.262283,135.039108 193.736725,141.713028 202.797867,141.885773 
	C211.590012,142.053391 218.563568,135.191147 218.919113,125.713768 
	C219.137100,119.903252 219.197586,114.064941 218.896133,108.261597 
	C218.351974,97.786346 210.785156,91.622849 200.442474,93.073700 
	C199.416168,93.217674 198.544724,94.465424 197.894623,95.964439 
z"/>
<path fill="#FBFCF9" opacity="1.000000" stroke="none" 
	d="
M283.875305,99.086304 
	C288.407654,82.249413 303.437683,71.625954 320.211670,73.047241 
	C336.396973,74.418633 349.939880,88.574394 350.755127,105.875237 
	C351.183716,114.970879 351.145325,124.239594 349.892242,133.231506 
	C347.393127,151.165482 331.396851,162.560440 312.289062,161.002090 
	C296.715759,159.731979 283.120636,144.783340 283.019379,128.359604 
	C282.960083,118.741707 283.514954,109.120026 283.875305,99.086304 
M305.963287,99.831993 
	C306.424835,107.340782 305.938171,107.817245 299.238892,111.302338 
	C297.458191,112.228691 295.381897,114.577293 295.287872,116.369781 
	C295.038452,121.123352 295.225494,126.061707 296.289886,130.684555 
	C297.902252,137.687607 305.577698,142.539551 312.623444,141.860458 
	C320.144684,141.135529 326.433289,135.605392 326.920197,128.291275 
	C327.415497,120.851456 327.479828,113.321419 326.932343,105.889862 
	C326.299622,97.301559 317.355377,91.155174 309.147766,92.570854 
	C304.763245,93.327103 303.712921,95.170563 305.963287,99.831993 
z"/>
<path fill="#FBC100" opacity="1.000000" stroke="none" 
	d="
M275.162079,151.815659 
	C263.490906,154.103821 252.117722,154.854248 240.316681,152.019470 
	C232.864166,149.494232 232.268448,147.460510 236.676559,141.045929 
	C247.265518,125.637032 269.555969,126.727806 278.764404,143.105484 
	C281.736847,148.392120 281.269592,149.595856 275.162079,151.815659 
z"/>
<path fill="#4F4F4F" opacity="1.000000" stroke="none" 
	d="
M197.748016,95.582657 
	C198.544724,94.465424 199.416168,93.217674 200.442474,93.073700 
	C210.785156,91.622849 218.351974,97.786346 218.896133,108.261597 
	C219.197586,114.064941 219.137100,119.903252 218.919113,125.713768 
	C218.563568,135.191147 211.590012,142.053391 202.797867,141.885773 
	C193.736725,141.713028 187.262283,135.039108 186.931503,125.501419 
	C186.839310,122.843483 186.892349,120.178825 186.742020,117.525002 
	C186.552734,114.183456 188.015472,112.317917 191.251404,111.400932 
	C198.912216,109.230019 200.466965,106.537956 198.817734,98.797569 
	C198.611893,97.831482 198.207184,96.907776 197.748016,95.582657 
z"/>
<path fill="#4F4F4F" opacity="1.000000" stroke="none" 
	d="
M305.858826,99.411560 
	C303.712921,95.170563 304.763245,93.327103 309.147766,92.570854 
	C317.355377,91.155174 326.299622,97.301559 326.932343,105.889862 
	C327.479828,113.321419 327.415497,120.851456 326.920197,128.291275 
	C326.433289,135.605392 320.144684,141.135529 312.623444,141.860458 
	C305.577698,142.539551 297.902252,137.687607 296.289886,130.684555 
	C295.225494,126.061707 295.038452,121.123352 295.287872,116.369781 
	C295.381897,114.577293 297.458191,112.228691 299.238892,111.302338 
	C305.938171,107.817245 306.424835,107.340782 305.858826,99.411560 
z"/>
</svg>