<?xml version="1.0" encoding="utf-8"?>
<!-- Generator: Adobe Illustrator 26.0.3, SVG Export Plug-In . SVG Version: 6.00 Build 0)  -->
<svg version="1.0" id="Layer_1" xmlns="http://www.w3.org/2000/svg" xmlns:xlink="http://www.w3.org/1999/xlink" x="0px" y="0px"
	 viewBox="0 0 854 613.5" style="enable-background:new 0 0 854 613.5;" xml:space="preserve">
<style type="text/css">
	.st0{fill:#4279BB;}
</style>
<path d="M719.3,349.4c-23,0-41.6-18.6-41.7-41.6s18.6-41.6,41.6-41.6c23,0,41.6,18.6,41.7,41.6l0,0
	C760.9,330.7,742.3,349.4,719.3,349.4 M719,224.4c-45.9,0-83.1,37.1-83.1,83s37.1,83.1,83,83.1c45.9,0,83.1-37.1,83.1-83
	c0,0,0,0,0,0C802,261.6,764.8,224.4,719,224.4"/>
<path class="st0" d="M719,274.8c-18,0-32.7,14.6-32.7,32.7s14.6,32.7,32.7,32.7c18,0,32.7-14.6,32.7-32.7c0,0,0,0,0,0
	C751.7,289.4,737,274.8,719,274.8"/>
<path d="M549.5,330h46.7c-10.4,30-38.8,25-38.8,25c-23-0.4-33.8-19.2-33.8-19.2c-19.2-33.4,0-58,0-58c8.8-15.5,31.7-17.1,31.7-17.1
	c28,0,37.6,20.9,37.6,20.9h43.4c-14.3-43.5-61.2-67.2-104.8-52.9c-43.5,14.3-67.2,61.2-52.9,104.8s61.2,67.2,104.8,52.9
	c34.1-11.2,57.1-43,57.1-78.9c0-3.1-0.2-6.1-0.5-9.2h-90.4V330L549.5,330z M372.8,338.2c18,0,32.5-14.6,32.5-32.5
	s-14.6-32.5-32.5-32.5s-32.5,14.6-32.5,32.5c0,0,0,0,0,0.1C340.2,323.7,354.8,338.3,372.8,338.2
	C372.7,338.3,372.7,338.3,372.8,338.2 M331.4,305.8c0-22.9,18.5-41.4,41.4-41.4s41.4,18.5,41.4,41.4s-18.5,41.4-41.4,41.4
	c0,0,0,0,0,0C349.9,347.1,331.4,328.6,331.4,305.8L331.4,305.8 M273.8,305.8c5.1-0.7,13.6-6.5,16.6-10.3c-1.1,4.6-1.1,18.1,0.1,22.7
	C287.1,312.9,278.9,306.4,273.8,305.8 M244,261.9c6.5,0,11.6,6.4,11.6,13.7s-5.1,13.7-11.6,13.7h-22.4v-27.5H244z M243.9,322.9
	c6.5,0,11.6,6.4,11.6,13.8s-5.1,13.7-11.6,13.7h-22.4v-27.4L243.9,322.9z M372.7,389c45.5,0,82.6-37.9,82.6-83.4
	c0.3-45.4-36.3-82.4-81.6-82.7c-0.3,0-0.6,0-1,0c-45.5,0-68.8,33.4-74.5,47c0-20.3-20-44.2-43.3-44.3h-75.4v162.6h70.3
	c28.3,0,48.5-24.5,48.5-45.6C304.8,355.9,327.2,389.1,372.7,389 M170.3,388.3h-44.2v-63H97.5v63.1H52.2L52,225.8h45.5v60.5h28.7
	v-60.5h44.2L170.3,388.3L170.3,388.3z"/>
</svg>
