<?xml version="1.0" encoding="utf-8"?>
<!-- Generator: Adobe Illustrator 25.0.1, SVG Export Plug-In . SVG Version: 6.00 Build 0)  -->
<svg version="1.0" id="Layer_1" xmlns="http://www.w3.org/2000/svg" xmlns:xlink="http://www.w3.org/1999/xlink" x="0px" y="0px"
	 viewBox="0 0 239 142" style="enable-background:new 0 0 239 142;" xml:space="preserve">
<style type="text/css">
	.st0{fill:#E6C3A5;}
	.st1{fill:#010101;}
	.st2{fill:none;}
</style>
<path class="st0" d="M50.8,62.7l6,6c0.5,0.5,1.3,0.5,1.8,0c0,0,0,0,0,0l0,0l6-6c0.5-0.5,0.5-1.4,0-1.9l-6-6c-0.5-0.5-1.3-0.5-1.9,0
	c0,0,0,0,0,0l0,0l-6,6C50.3,61.3,50.3,62.1,50.8,62.7C50.8,62.6,50.8,62.6,50.8,62.7L50.8,62.7 M47.5,59.4c0.5,0.5,1.3,0.5,1.8,0
	l0,0l6-6c0.5-0.5,0.5-1.4,0-1.9l-6-6c-0.5-0.5-1.3-0.5-1.8,0c0,0,0,0,0,0l0,0l-6,6c-0.5,0.5-0.5,1.4,0,1.9L47.5,59.4z M47.5,64.1
	l-6,6c-0.5,0.5-0.5,1.4,0,1.9l6,6c0.5,0.5,1.3,0.5,1.8,0c0,0,0,0,0,0l0,0l6-6c0.5-0.5,0.5-1.4,0-1.9l-6-6
	C48.8,63.6,48,63.6,47.5,64.1C47.5,64.1,47.5,64.1,47.5,64.1L47.5,64.1 M38.2,68.7c0.5,0.5,1.3,0.5,1.8,0l0,0l6-6
	c0.5-0.5,0.5-1.4,0-1.9l0,0l-6-6c-0.5-0.5-1.4-0.5-1.9,0c0,0,0,0,0,0l0,0l-6,6c-0.5,0.5-0.5,1.4,0,1.9c0,0,0,0,0,0l0,0L38.2,68.7z
	 M58.6,73.4c-0.5-0.5-1.3-0.5-1.9,0l0,0l-5.9,6c-0.5,0.5-0.5,1.4,0,1.9l6,6c0.5,0.5,1.3,0.5,1.8,0c0,0,0,0,0,0l0,0l6-6
	c0.5-0.5,0.5-1.4,0-1.9L58.6,73.4z M49.3,82.6c-0.5-0.5-1.3-0.5-1.8,0l0,0l-6,6c-0.5,0.5-0.5,1.4,0,1.9l6,6c0.5,0.5,1.3,0.5,1.8,0
	c0,0,0,0,0,0l0,0l6-6c0.5-0.5,0.5-1.4,0-1.9L49.3,82.6z M46.1,79.3l-5.9-6c-0.5-0.5-1.3-0.5-1.9,0l0,0l-6,6c-0.5,0.5-0.5,1.4,0,1.9
	c0,0,0,0,0,0l0,0l5.9,6c0.5,0.5,1.4,0.5,1.9,0c0,0,0,0,0,0l0,0l6-6C46.5,80.7,46.5,79.8,46.1,79.3"/>
<path class="st1" d="M98.2,76.4c0-0.5-0.1-1-0.3-1.4c-0.3-0.4-0.6-0.7-0.9-1c-0.4-0.3-0.9-0.6-1.4-0.8c-0.6-0.2-1.2-0.4-1.8-0.7
	c-0.9-0.3-1.8-0.6-2.6-1c-0.8-0.4-1.6-0.8-2.3-1.4c-0.7-0.5-1.2-1.2-1.6-1.9c-0.4-0.8-0.6-1.6-0.6-2.5c0-0.9,0.2-1.8,0.6-2.6
	c0.4-0.8,1-1.5,1.7-2c0.7-0.6,1.6-1,2.4-1.2c0.9-0.3,1.9-0.4,2.9-0.4c1,0,2,0.2,3,0.5c0.9,0.3,1.7,0.8,2.4,1.4
	c0.7,0.6,1.3,1.3,1.7,2.2c0.4,0.8,0.6,1.6,0.6,2.5c0,0.2-0.1,0.3-0.3,0.3c0,0,0,0,0,0l0,0h-3.2c-0.1,0-0.3-0.1-0.3-0.3
	c-0.1-0.4-0.2-0.9-0.3-1.3c-0.2-0.4-0.4-0.9-0.8-1.2c-0.4-0.4-0.8-0.6-1.2-0.8c-0.6-0.2-1.1-0.3-1.7-0.3c-0.5,0-1,0.1-1.5,0.2
	c-0.4,0.1-0.9,0.3-1.2,0.6c-0.3,0.3-0.6,0.6-0.8,1c-0.2,0.4-0.3,0.9-0.3,1.3c0,0.5,0.1,1,0.4,1.4c0.3,0.4,0.6,0.7,1,1
	c0.5,0.3,1,0.6,1.5,0.8c0.6,0.2,1.2,0.4,1.8,0.6c0.9,0.2,1.8,0.6,2.7,1c0.8,0.4,1.6,0.9,2.2,1.5c0.6,0.6,1.2,1.2,1.5,2
	c0.4,0.8,0.6,1.7,0.6,2.6c0,0.9-0.2,1.8-0.7,2.6c-0.4,0.8-1,1.4-1.7,1.9c-0.7,0.5-1.6,0.9-2.4,1.2c-1.6,0.4-3.3,0.5-5,0.2
	c-0.7-0.1-1.3-0.3-1.9-0.6c-0.6-0.3-1.2-0.6-1.7-1c-0.5-0.4-1-0.9-1.3-1.4c-0.4-0.5-0.7-1.1-0.9-1.8c-0.2-0.6-0.3-1.2-0.4-1.8
	c0-0.2,0.1-0.3,0.3-0.3c0,0,0,0,0,0h3.2c0.1,0,0.3,0.1,0.3,0.3c0.1,0.5,0.2,1,0.4,1.5c0.2,0.5,0.6,0.9,1,1.3
	c0.4,0.3,0.9,0.6,1.4,0.8c0.6,0.2,1.2,0.3,1.8,0.3c0.5,0,1-0.1,1.5-0.2c0.4-0.1,0.9-0.3,1.3-0.6c0.3-0.3,0.6-0.6,0.8-1
	C98.1,77.3,98.2,76.9,98.2,76.4L98.2,76.4z M120.4,72.2h-8.9v7h10.4c0.2,0,0.3,0.1,0.3,0.3c0,0,0,0,0,0v2.4c0,0.2-0.1,0.3-0.3,0.3
	c0,0,0,0,0,0h-13.8c-0.2,0-0.3-0.1-0.3-0.3c0,0,0,0,0,0V60.1c0-0.2,0.1-0.3,0.3-0.3h13.7c0.2,0,0.3,0.1,0.3,0.3l0,0v2.5
	c0,0.2-0.1,0.3-0.3,0.3l0,0h-10.3v6.3h8.9c0.2,0,0.3,0.1,0.3,0.3l0,0v2.4C120.6,72.1,120.5,72.2,120.4,72.2z M144.1,62.9h-6.6v19
	c0,0.2-0.1,0.3-0.3,0.3c0,0,0,0,0,0h-3.1c-0.2,0-0.3-0.1-0.3-0.3c0,0,0,0,0,0v-19h-6.5c-0.2,0-0.3-0.1-0.3-0.3v-2.5
	c0-0.2,0.1-0.3,0.3-0.3l0,0H144c0.2,0,0.3,0.1,0.3,0.3l0,0v2.5C144.3,62.7,144.2,62.9,144.1,62.9c-0.1,0-0.1,0-0.1,0H144.1
	L144.1,62.9z M160.4,77h-7l-1.5,5c0,0.1-0.1,0.2-0.3,0.2h-3.1c-0.1,0-0.3-0.1-0.3-0.2c0,0,0,0,0,0c0,0,0-0.1,0-0.1l7.1-21.8
	c0-0.1,0.1-0.2,0.3-0.2h2.9c0.1,0,0.2,0.1,0.3,0.2l6.9,21.8c0,0.2,0,0.3-0.2,0.4c0,0,0,0,0,0h-3.2c-0.1,0-0.2-0.1-0.3-0.2L160.4,77z
	 M154.4,73.9h5.1l-2.5-8.8L154.4,73.9z M175.3,73.7V82c0,0.2-0.1,0.3-0.3,0.3h-3.1c-0.2,0-0.3-0.1-0.3-0.3V60.1
	c0-0.2,0.1-0.3,0.3-0.3h7.2c1.1,0,2.1,0.2,3.1,0.5c0.9,0.3,1.7,0.8,2.4,1.4c0.7,0.6,1.2,1.4,1.6,2.2c0.4,0.9,0.6,1.9,0.6,2.9
	c0,1-0.2,1.9-0.6,2.8c-0.4,0.8-0.9,1.6-1.6,2.2c-0.7,0.6-1.5,1.1-2.4,1.4c-1,0.3-2.1,0.5-3.1,0.5L175.3,73.7z M175.3,70.7h3.8
	c0.6,0,1.1-0.1,1.7-0.3c0.5-0.2,0.9-0.5,1.2-0.8c0.4-0.3,0.6-0.7,0.8-1.2c0.2-0.5,0.2-1,0.2-1.5c0-0.5-0.1-1.1-0.3-1.6
	c-0.2-0.5-0.4-0.9-0.8-1.2c-0.4-0.4-0.8-0.6-1.2-0.8c-0.5-0.2-1.1-0.3-1.7-0.3h-3.8L175.3,70.7z M195.5,73.6v8.2
	c0,0.2-0.2,0.4-0.4,0.4h-2.8c-0.2,0-0.4-0.2-0.4-0.4V60.2c0-0.2,0.2-0.4,0.4-0.4h7c1.1,0,2.1,0.2,3.1,0.5c0.9,0.3,1.7,0.8,2.4,1.4
	c0.7,0.6,1.2,1.4,1.6,2.2c0.4,0.9,0.6,1.9,0.6,2.9c0,1-0.2,1.9-0.6,2.8c-0.4,0.8-0.9,1.6-1.6,2.2c-0.7,0.6-1.6,1.1-2.4,1.4
	c-1,0.3-2.1,0.5-3.1,0.5L195.5,73.6z M195.5,70.6h3.8c0.6,0,1.1-0.1,1.7-0.3c0.5-0.2,0.9-0.4,1.3-0.8c0.4-0.3,0.6-0.8,0.8-1.2
	c0.2-0.5,0.3-1,0.3-1.6c0-0.5-0.1-1.1-0.3-1.6c-0.2-0.5-0.4-0.9-0.8-1.2c-0.4-0.4-0.8-0.6-1.3-0.8c-0.5-0.2-1.1-0.3-1.7-0.3h-3.8
	V70.6z"/>
<rect x="25" y="40" class="st2" width="189" height="62"/>
</svg>
