<?xml version="1.0" standalone="no"?>
<!DOCTYPE svg PUBLIC "-//W3C//DTD SVG 20010904//EN"
 "http://www.w3.org/TR/2001/REC-SVG-20010904/DTD/svg10.dtd">
<svg version="1.0" xmlns="http://www.w3.org/2000/svg"
 width="2560.000000pt" height="790.000000pt" viewBox="0 0 2560.000000 790.000000"
 preserveAspectRatio="xMidYMid meet">

<g transform="translate(0.000000,790.000000) scale(0.100000,-0.100000)"
fill="#000000" stroke="none">
<path d="M4846 7884 c-312 -48 -643 -203 -900 -421 -279 -237 -520 -640 -591
-988 -24 -119 -37 -290 -28 -370 l8 -70 115 1 c322 4 635 145 927 419 275 257
461 551 549 865 39 138 54 253 54 423 0 182 16 165 -134 141z"/>
<path d="M11480 7258 c-654 -61 -1236 -281 -1709 -645 -137 -106 -413 -389
-523 -536 -221 -298 -384 -620 -507 -1000 -202 -624 -261 -1414 -160 -2150
216 -1588 1189 -2636 2655 -2862 508 -78 1082 -57 1547 56 263 64 429 124 672
244 305 149 542 322 786 572 332 341 572 744 735 1238 186 564 256 1215 203
1895 -64 829 -328 1552 -763 2090 -88 109 -276 300 -391 397 -146 124 -376
273 -566 367 -378 188 -764 293 -1234 336 -132 12 -611 11 -745 -2z m800
-1092 c671 -143 1156 -574 1424 -1267 160 -415 233 -932 206 -1455 -34 -656
-189 -1162 -488 -1584 -87 -123 -309 -346 -432 -433 -113 -80 -340 -195 -465
-236 -495 -162 -1077 -129 -1520 84 -647 311 -1048 966 -1162 1895 -25 206
-25 744 0 950 146 1187 765 1928 1727 2065 66 10 169 13 340 11 218 -4 259 -7
370 -30z"/>
<path d="M4685 6024 c-197 -22 -431 -81 -717 -183 -264 -94 -461 -157 -533
-172 -104 -21 -146 -9 -800 217 -277 96 -471 130 -688 121 -508 -23 -1009
-267 -1364 -667 -298 -335 -491 -781 -560 -1297 -24 -182 -24 -623 0 -823 42
-335 109 -628 221 -964 181 -542 408 -971 759 -1436 182 -240 297 -371 432
-492 402 -359 697 -400 1275 -178 371 143 617 189 893 168 204 -16 360 -57
667 -176 393 -152 678 -161 954 -28 232 111 426 293 697 652 297 394 511 773
657 1164 75 202 79 177 -32 232 -231 115 -457 296 -624 500 -258 317 -388 727
-369 1168 27 602 309 1056 876 1407 8 5 -99 134 -184 222 -288 299 -642 469
-1135 547 -97 15 -352 26 -425 18z"/>
<path d="M22990 5394 c-332 -31 -619 -108 -885 -238 -237 -117 -404 -236 -587
-422 -364 -369 -594 -855 -687 -1449 -60 -384 -56 -870 10 -1245 199 -1135
925 -1844 2034 -1985 271 -35 613 -29 881 15 530 86 958 293 1285 619 270 271
440 591 505 954 l6 37 -567 0 -567 0 -5 -21 c-11 -39 -82 -179 -121 -237 -154
-225 -438 -388 -762 -437 -124 -19 -360 -19 -480 0 -532 85 -906 451 -1020
998 -21 98 -40 281 -40 380 l0 57 1806 0 1807 0 -6 353 c-6 358 -11 425 -48
647 -70 419 -225 799 -451 1106 -99 135 -322 357 -443 443 -308 217 -625 342
-1019 402 -127 20 -528 34 -646 23z m490 -958 c110 -24 194 -53 291 -102 363
-181 594 -557 635 -1031 l7 -83 -1207 0 -1207 0 6 53 c30 254 108 478 236 672
72 109 233 266 342 333 144 90 294 145 462 171 88 14 347 6 435 -13z"/>
<path d="M18287 5375 c-593 -75 -1030 -367 -1297 -867 -28 -54 -56 -98 -61
-98 -5 0 -9 182 -9 440 l0 440 -585 0 -585 0 2 -2577 3 -2578 605 0 605 0 5
1615 6 1615 22 90 c65 265 159 445 311 596 210 209 470 309 806 309 578 0 907
-281 1006 -861 10 -57 14 -444 16 -1722 l4 -1647 605 0 605 0 -4 1797 c-3
1955 -1 1854 -58 2123 -52 239 -168 511 -293 684 -247 343 -618 559 -1082 631
-148 23 -484 29 -627 10z"/>
</g>
</svg>
